{"glyphs":{"0":{"ha":765,"x_min":66,"x_max":700,"o":"m 700 497 q 683 282 700 377 q 627 121 665 187 q 528 21 589 56 q 382 -14 468 -14 q 242 21 302 -14 q 144 121 183 56 q 86 282 105 187 q 66 497 66 377 q 84 712 66 617 q 139 872 101 807 q 236 972 176 938 q 382 1007 296 1007 q 522 973 463 1007 q 621 873 582 939 q 680 713 661 808 q 700 497 700 618 m 192 497 q 202 319 192 395 q 235 193 212 243 q 293 117 257 142 q 382 92 330 92 q 471 117 434 92 q 531 192 507 142 q 565 318 554 242 q 575 497 575 395 q 565 675 575 599 q 531 801 554 751 q 471 876 507 851 q 382 901 434 901 q 293 876 330 901 q 235 801 257 851 q 202 675 212 751 q 192 497 192 599 z "},"1":{"ha":765,"x_min":121,"x_max":482,"o":"m 482 0 l 363 0 l 363 619 q 363 682 363 648 q 365 748 363 715 q 367 811 366 781 q 368 864 368 841 q 348 843 357 852 q 330 826 339 834 q 311 809 321 818 q 286 787 300 800 l 186 705 l 121 789 l 380 991 l 482 991 l 482 0 z "},"2":{"ha":765,"x_min":65,"x_max":684,"o":"m 684 0 l 65 0 l 65 106 l 302 364 q 393 465 353 419 q 461 553 433 510 q 505 641 490 597 q 519 736 519 684 q 508 806 519 776 q 475 858 496 837 q 425 890 454 880 q 359 901 395 901 q 243 875 295 901 q 144 808 191 849 l 75 889 q 134 935 102 913 q 201 972 165 956 q 277 997 237 987 q 361 1006 317 1006 q 478 987 426 1006 q 568 935 531 969 q 624 851 604 901 q 644 741 644 802 q 626 631 644 683 q 577 528 608 578 q 502 427 545 477 q 407 321 458 376 l 216 118 l 216 113 l 684 113 l 684 0 z "},"3":{"ha":765,"x_min":56,"x_max":682,"o":"m 652 760 q 636 669 652 710 q 592 599 621 629 q 525 550 564 569 q 437 522 486 530 l 437 518 q 620 442 557 503 q 682 282 682 380 q 660 163 682 217 q 593 69 638 109 q 480 8 549 30 q 318 -14 412 -14 q 179 -2 244 -14 q 56 40 113 9 l 56 155 q 183 107 115 124 q 315 90 252 90 q 423 104 378 90 q 498 142 469 117 q 542 204 528 168 q 555 286 555 241 q 537 365 555 332 q 486 419 519 398 q 405 451 453 441 q 297 461 357 461 l 207 461 l 207 564 l 297 564 q 395 577 352 564 q 466 616 437 591 q 510 675 495 641 q 525 751 525 710 q 513 814 525 787 q 478 862 500 842 q 425 891 456 881 q 355 901 393 901 q 228 879 283 901 q 122 819 172 856 l 60 904 q 117 943 85 925 q 186 976 149 962 q 266 998 223 989 q 355 1006 308 1006 q 484 987 429 1006 q 576 936 539 969 q 633 858 614 903 q 652 760 652 813 z "},"4":{"ha":765,"x_min":16,"x_max":737,"o":"m 737 222 l 593 222 l 593 0 l 473 0 l 473 222 l 16 222 l 16 330 l 465 997 l 593 997 l 593 335 l 737 335 l 737 222 m 473 335 l 473 576 q 474 656 473 614 q 477 738 475 698 q 480 812 478 777 q 482 869 481 846 l 476 869 q 464 839 471 856 q 449 806 457 823 q 431 774 440 789 q 415 747 422 758 l 136 335 l 473 335 z "},"5":{"ha":765,"x_min":89,"x_max":688,"o":"m 370 608 q 495 590 437 608 q 596 534 553 571 q 663 444 639 498 q 688 318 688 389 q 665 179 688 241 q 596 75 642 117 q 484 9 551 32 q 330 -14 417 -14 q 262 -10 296 -14 q 198 0 229 -7 q 139 16 167 6 q 89 40 111 26 l 89 157 q 141 129 111 141 q 205 109 172 117 q 272 96 238 100 q 334 92 305 92 q 429 104 387 92 q 500 143 471 117 q 545 210 530 170 q 561 304 561 250 q 501 453 561 401 q 328 504 441 504 q 288 502 309 504 q 245 498 267 500 q 204 492 224 495 q 171 486 185 489 l 110 525 l 147 991 l 615 991 l 615 879 l 254 879 l 228 595 q 285 604 250 599 q 370 608 321 608 z "},"6":{"ha":765,"x_min":77,"x_max":701,"o":"m 77 424 q 84 566 77 495 q 109 701 91 636 q 158 821 127 766 q 237 918 189 877 q 353 982 286 959 q 510 1006 420 1006 q 538 1005 523 1006 q 570 1003 554 1004 q 601 999 586 1001 q 627 993 615 996 l 627 888 q 573 900 603 896 q 514 904 543 904 q 407 889 453 904 q 326 848 360 875 q 270 785 292 822 q 233 704 247 749 q 212 610 218 660 q 203 505 205 559 l 211 505 q 244 551 224 530 q 289 588 263 572 q 347 612 315 603 q 419 621 379 621 q 536 601 484 621 q 625 542 588 581 q 681 447 661 503 q 701 319 701 391 q 680 180 701 242 q 620 76 659 119 q 525 9 581 33 q 400 -14 469 -14 q 273 13 332 -14 q 170 94 214 39 q 102 230 127 148 q 77 424 77 312 m 399 90 q 473 104 439 90 q 531 146 507 118 q 569 217 555 174 q 582 319 582 260 q 571 405 582 367 q 537 469 559 442 q 481 509 515 495 q 403 524 448 524 q 320 508 357 524 q 256 466 282 492 q 215 408 229 441 q 200 343 200 376 q 213 253 200 298 q 250 172 225 208 q 312 113 275 136 q 399 90 349 90 z "},"7":{"ha":765,"x_min":61,"x_max":699,"o":"m 191 0 l 572 879 l 61 879 l 61 991 l 699 991 l 699 893 l 322 0 l 191 0 z "},"8":{"ha":765,"x_min":72,"x_max":694,"o":"m 383 1007 q 491 992 440 1007 q 579 947 541 977 q 640 873 618 918 q 663 768 663 828 q 649 686 663 723 q 612 620 635 650 q 555 567 588 591 q 485 525 523 544 q 562 478 524 504 q 629 420 600 452 q 676 348 659 388 q 694 258 694 308 q 672 145 694 196 q 608 60 649 95 q 510 5 567 24 q 383 -14 452 -14 q 251 5 309 -14 q 153 57 193 23 q 93 141 113 92 q 72 253 72 191 q 87 345 72 304 q 128 418 102 385 q 189 475 154 450 q 264 519 224 500 q 201 565 231 541 q 151 621 172 590 q 117 688 130 651 q 104 770 104 725 q 127 873 104 829 q 189 947 150 918 q 278 992 227 977 q 383 1007 328 1007 m 193 252 q 204 185 193 216 q 238 134 215 155 q 296 101 261 113 q 380 89 332 89 q 464 101 428 89 q 525 135 500 113 q 562 188 549 157 q 574 257 574 219 q 561 321 574 292 q 523 374 547 349 q 463 420 498 398 q 386 463 429 441 l 366 472 q 237 379 280 431 q 193 252 193 326 m 382 904 q 268 868 310 904 q 225 764 225 832 q 237 697 225 725 q 270 648 249 669 q 320 609 291 626 q 385 575 350 591 q 446 608 417 590 q 496 648 475 625 q 530 699 517 670 q 542 764 542 727 q 499 868 542 832 q 382 904 456 904 m 656 472 z "},"9":{"ha":765,"x_min":72,"x_max":697,"o":"m 697 568 q 690 426 697 497 q 665 291 683 355 q 616 171 647 227 q 536 74 585 115 q 421 10 488 33 q 264 -14 354 -14 q 235 -13 251 -14 q 204 -11 220 -12 q 174 -7 189 -9 q 147 -1 159 -5 l 147 104 q 201 92 171 96 q 260 87 231 87 q 410 119 351 87 q 504 206 469 151 q 553 333 538 260 q 571 486 568 406 l 562 486 q 530 441 549 462 q 485 404 511 420 q 427 380 459 389 q 354 371 394 371 q 237 391 290 371 q 149 450 185 411 q 92 544 112 488 q 72 672 72 600 q 93 811 72 749 q 154 917 115 873 q 249 983 193 960 q 374 1006 304 1006 q 501 979 442 1006 q 604 899 560 953 q 672 762 647 844 q 697 568 697 680 m 375 901 q 301 888 334 901 q 243 846 267 874 q 205 774 218 817 q 192 672 192 731 q 203 587 192 625 q 237 523 214 549 q 293 482 259 496 q 371 468 326 468 q 454 484 417 468 q 518 525 492 500 q 559 583 545 551 q 574 648 574 616 q 561 739 574 694 q 524 820 549 784 q 462 879 499 857 q 375 901 425 901 z "},"$":{"ha":794,"x_min":86,"x_max":705,"o":"m 705 304 q 636 151 705 212 q 440 74 568 90 l 440 -81 l 351 -81 l 351 68 q 203 81 274 69 q 86 114 132 93 l 86 228 q 211 187 137 204 q 351 168 284 170 l 351 458 q 155 562 212 503 q 97 714 97 621 q 165 861 97 804 q 351 932 234 919 l 351 1054 l 440 1054 l 440 933 q 685 882 569 930 l 647 786 q 440 835 542 827 l 440 549 q 602 479 549 512 q 680 405 655 447 q 705 304 705 363 m 582 296 q 550 373 582 345 q 440 429 518 402 l 440 175 q 582 296 582 197 m 221 715 q 250 635 221 666 q 351 579 279 605 l 351 832 q 254 791 288 821 q 221 715 221 760 z "},"&":{"ha":1017,"x_min":74,"x_max":1014,"o":"m 286 791 q 310 703 286 747 q 389 606 334 659 q 507 695 473 652 q 542 793 542 738 q 507 876 542 844 q 418 907 473 907 q 322 875 357 907 q 286 791 286 843 m 390 94 q 650 193 544 94 l 361 473 q 234 371 267 417 q 201 262 201 325 q 254 140 201 186 q 390 94 306 94 m 74 258 q 119 413 74 347 q 288 550 165 479 q 213 643 235 609 q 179 714 191 677 q 167 790 167 750 q 234 949 167 890 q 422 1007 301 1007 q 598 950 534 1007 q 663 793 663 893 q 616 657 663 719 q 464 533 570 595 l 732 275 q 829 496 795 349 l 953 496 q 811 197 906 302 l 1014 0 l 848 0 l 728 117 q 568 17 650 47 q 386 -14 486 -14 q 157 58 240 -14 q 74 258 74 129 z "},"@":{"ha":1249,"x_min":81,"x_max":1168,"o":"m 1168 496 q 1138 321 1168 401 q 1053 196 1107 241 q 928 151 999 151 q 831 185 870 151 q 782 272 791 218 l 775 272 q 698 183 749 216 q 579 151 647 151 q 417 220 476 151 q 358 410 358 289 q 394 571 358 500 q 498 683 431 643 q 653 722 566 722 q 760 714 700 722 q 865 689 820 705 l 850 372 l 850 357 q 936 237 850 237 q 1034 309 996 237 q 1071 497 1071 380 q 1021 710 1071 618 q 879 851 971 802 q 669 900 787 900 q 409 838 520 900 q 239 661 298 776 q 180 393 180 546 q 288 78 180 189 q 602 -32 396 -32 q 900 28 745 -32 l 900 -66 q 602 -123 764 -123 q 218 12 355 -123 q 81 389 81 147 q 154 702 81 564 q 361 916 227 840 q 669 991 495 991 q 929 930 815 991 q 1106 755 1044 868 q 1168 496 1168 642 m 467 407 q 597 237 467 237 q 749 447 736 237 l 757 621 q 654 635 707 635 q 517 574 567 635 q 467 407 467 514 z "},"A":{"ha":888,"x_min":0,"x_max":886,"o":"m 757 0 l 637 307 l 244 307 l 126 0 l 0 0 l 387 996 l 500 996 l 886 0 l 757 0 m 600 418 l 489 718 l 441 867 q 399 718 421 785 l 286 418 l 600 418 z "},"B":{"ha":903,"x_min":135,"x_max":828,"o":"m 135 991 l 418 991 q 706 932 617 991 q 794 746 794 873 q 746 601 794 658 q 606 526 698 543 l 606 519 q 774 440 720 500 q 828 282 828 380 q 737 75 828 149 q 484 0 646 0 l 135 0 l 135 991 m 260 570 l 443 570 q 612 607 559 570 q 665 732 665 644 q 607 849 665 813 q 424 885 549 885 l 260 885 l 260 570 m 260 465 l 260 106 l 460 106 q 637 152 579 106 q 694 292 694 198 q 633 423 694 380 q 450 465 572 465 l 260 465 z "},"C":{"ha":878,"x_min":85,"x_max":835,"o":"m 559 896 q 308 789 399 896 q 216 496 216 682 q 305 200 216 304 q 558 96 394 96 q 796 135 664 96 l 796 26 q 675 -5 733 3 q 541 -14 616 -14 q 203 120 321 -14 q 85 497 85 253 q 141 766 85 650 q 306 943 198 881 q 561 1006 414 1006 q 835 947 718 1006 l 785 842 q 559 896 666 896 z "},"D":{"ha":1014,"x_min":135,"x_max":929,"o":"m 929 505 q 795 130 929 260 q 411 0 661 0 l 135 0 l 135 991 l 440 991 q 800 864 671 991 q 929 505 929 737 m 798 501 q 704 788 798 690 q 422 885 611 885 l 260 885 l 260 107 l 395 107 q 798 501 798 107 z "},"E":{"ha":772,"x_min":135,"x_max":689,"o":"m 689 0 l 135 0 l 135 991 l 689 991 l 689 882 l 260 882 l 260 572 l 664 572 l 664 464 l 260 464 l 260 110 l 689 110 l 689 0 z "},"F":{"ha":721,"x_min":135,"x_max":689,"o":"m 260 0 l 135 0 l 135 991 l 689 991 l 689 882 l 260 882 l 260 530 l 663 530 l 663 421 l 260 421 l 260 0 z "},"G":{"ha":1011,"x_min":85,"x_max":908,"o":"m 566 524 l 908 524 l 908 37 q 748 -1 829 12 q 559 -14 667 -14 q 209 121 333 -14 q 85 496 85 255 q 146 767 85 651 q 325 944 208 883 q 599 1006 441 1006 q 895 947 758 1006 l 847 839 q 591 896 716 896 q 315 789 414 896 q 215 496 215 682 q 311 197 215 299 q 589 94 406 94 q 783 118 688 94 l 783 412 l 566 412 l 566 524 z "},"H":{"ha":1029,"x_min":135,"x_max":893,"o":"m 893 0 l 768 0 l 768 463 l 260 463 l 260 0 l 135 0 l 135 991 l 260 991 l 260 572 l 768 572 l 768 991 l 893 991 l 893 0 z "},"I":{"ha":471,"x_min":56,"x_max":414,"o":"m 414 0 l 56 0 l 56 72 l 172 98 l 172 892 l 56 920 l 56 991 l 414 991 l 414 920 l 297 892 l 297 98 l 414 72 l 414 0 z "},"J":{"ha":379,"x_min":-109,"x_max":253,"o":"m -5 -264 q -109 -245 -69 -264 l -109 -140 q -8 -154 -60 -154 q 94 -113 60 -154 q 127 5 127 -72 l 127 991 l 253 991 l 253 16 q 186 -191 253 -119 q -5 -264 119 -264 z "},"K":{"ha":860,"x_min":135,"x_max":860,"o":"m 860 0 l 713 0 l 361 473 l 260 385 l 260 0 l 135 0 l 135 991 l 260 991 l 260 503 l 345 597 l 699 991 l 844 991 l 452 559 l 860 0 z "},"L":{"ha":728,"x_min":135,"x_max":693,"o":"m 135 0 l 135 991 l 260 991 l 260 111 l 693 111 l 693 0 l 135 0 z "},"M":{"ha":1260,"x_min":135,"x_max":1125,"o":"m 572 0 l 245 869 l 240 869 q 250 602 250 761 l 250 0 l 135 0 l 135 991 l 319 991 l 625 179 l 631 179 l 942 991 l 1125 991 l 1125 0 l 1002 0 l 1002 610 q 1011 868 1002 711 l 1006 868 l 675 0 l 572 0 z "},"N":{"ha":1055,"x_min":135,"x_max":921,"o":"m 921 0 l 775 0 l 244 823 l 239 823 l 242 768 q 250 554 250 645 l 250 0 l 135 0 l 135 991 l 279 991 l 310 943 l 635 440 l 808 171 l 814 171 q 808 287 812 187 q 804 432 804 387 l 804 991 l 921 991 l 921 0 z "},"O":{"ha":1084,"x_min":85,"x_max":1000,"o":"m 1000 497 q 880 123 1000 259 q 543 -14 760 -14 q 204 120 324 -14 q 85 498 85 254 q 204 874 85 741 q 545 1007 323 1007 q 880 872 760 1007 q 1000 497 1000 736 m 216 497 q 300 197 216 300 q 543 94 383 94 q 785 196 703 94 q 868 497 868 298 q 786 797 868 696 q 545 897 704 897 q 300 795 383 897 q 216 497 216 693 z "},"P":{"ha":840,"x_min":135,"x_max":770,"o":"m 770 700 q 666 467 770 548 q 374 386 562 386 l 260 386 l 260 0 l 135 0 l 135 991 l 397 991 q 770 700 770 991 m 260 493 l 359 493 q 574 541 507 493 q 640 694 640 589 q 578 838 640 790 q 386 885 517 885 l 260 885 l 260 493 z "},"Q":{"ha":1084,"x_min":85,"x_max":1000,"o":"m 1000 497 q 925 184 1000 309 q 711 11 850 58 l 949 -236 l 770 -236 l 578 -12 l 543 -14 q 204 120 324 -14 q 85 498 85 254 q 204 874 85 741 q 545 1007 323 1007 q 880 872 760 1007 q 1000 497 1000 736 m 216 497 q 300 197 216 300 q 543 94 383 94 q 785 196 703 94 q 868 497 868 298 q 786 797 868 696 q 545 897 704 897 q 300 795 383 897 q 216 497 216 693 z "},"R":{"ha":864,"x_min":135,"x_max":843,"o":"m 260 515 l 408 515 q 585 563 529 515 q 640 704 640 610 q 584 841 640 798 q 401 884 528 884 l 260 884 l 260 515 m 260 410 l 260 0 l 135 0 l 135 991 l 408 991 q 681 921 593 991 q 770 710 770 851 q 571 444 770 513 l 843 0 l 697 0 l 457 410 l 260 410 z "},"S":{"ha":762,"x_min":71,"x_max":697,"o":"m 697 265 q 604 61 697 136 q 343 -14 510 -14 q 71 33 167 -14 l 71 153 q 209 110 134 125 q 349 94 283 94 q 516 137 460 94 q 572 254 572 180 q 552 336 572 304 q 484 395 532 368 q 339 458 436 423 q 142 577 201 509 q 83 753 83 645 q 171 937 83 869 q 400 1006 258 1006 q 673 950 549 1006 l 635 843 q 397 896 507 896 q 259 858 309 896 q 210 751 210 820 q 229 670 210 703 q 291 612 248 638 q 427 551 334 585 q 591 472 537 511 q 671 384 646 434 q 697 265 697 334 z "},"T":{"ha":772,"x_min":14,"x_max":757,"o":"m 449 0 l 323 0 l 323 882 l 14 882 l 14 991 l 757 991 l 757 882 l 449 882 l 449 0 z "},"U":{"ha":1015,"x_min":125,"x_max":889,"o":"m 889 991 l 889 350 q 787 83 889 180 q 503 -14 684 -14 q 224 84 323 -14 q 125 353 125 182 l 125 991 l 250 991 l 250 349 q 315 161 250 227 q 510 94 380 94 q 699 160 633 94 q 765 350 765 226 l 765 991 l 889 991 z "},"V":{"ha":833,"x_min":0,"x_max":833,"o":"m 0 991 l 131 991 l 354 355 q 416 139 397 235 q 479 358 433 224 l 701 991 l 833 991 l 479 0 l 354 0 l 0 991 z "},"W":{"ha":1292,"x_min":17,"x_max":1274,"o":"m 1010 0 l 884 0 l 690 650 q 640 846 648 795 q 593 646 629 768 l 406 0 l 279 0 l 17 991 l 147 991 l 301 386 q 349 150 332 267 q 401 393 363 261 l 576 991 l 705 991 l 888 389 q 942 150 923 271 q 990 387 953 243 l 1143 991 l 1274 991 l 1010 0 z "},"X":{"ha":814,"x_min":5,"x_max":808,"o":"m 808 0 l 667 0 l 404 431 l 138 0 l 5 0 l 335 517 l 26 991 l 165 991 l 408 603 l 653 991 l 785 991 l 478 519 l 808 0 z "},"Y":{"ha":786,"x_min":0,"x_max":786,"o":"m 393 504 l 652 991 l 786 991 l 456 385 l 456 0 l 330 0 l 330 379 l 0 991 l 136 991 l 393 504 z "},"Z":{"ha":794,"x_min":53,"x_max":741,"o":"m 741 0 l 53 0 l 53 94 l 575 880 l 69 880 l 69 991 l 726 991 l 726 897 l 204 111 l 741 111 l 741 0 z "},"`":{"ha":806,"x_min":262,"x_max":542,"o":"m 542 842 l 460 842 q 348 947 409 882 q 262 1050 288 1012 l 262 1064 l 408 1064 q 470 957 430 1019 q 542 859 510 895 l 542 842 z "},"a":{"ha":779,"x_min":64,"x_max":667,"o":"m 578 0 l 554 106 l 549 106 q 438 11 493 36 q 298 -14 382 -14 q 126 44 189 -14 q 64 207 64 102 q 421 444 64 433 l 547 449 l 547 493 q 511 618 547 578 q 393 659 474 659 q 282 641 334 659 q 183 602 229 623 l 146 693 q 269 740 202 723 q 400 757 335 757 q 601 697 535 757 q 667 507 667 637 l 667 0 l 578 0 m 326 85 q 487 140 429 85 q 546 297 546 195 l 546 364 l 436 359 q 249 319 308 355 q 191 205 191 283 q 226 116 191 147 q 326 85 262 85 z "},"b":{"ha":854,"x_min":118,"x_max":778,"o":"m 471 757 q 698 655 618 757 q 778 372 778 554 q 696 87 778 188 q 471 -14 615 -14 q 336 14 395 -14 q 240 94 277 41 l 231 94 q 205 0 210 13 l 118 0 l 118 1055 l 240 1055 l 240 799 q 233 646 240 722 l 240 646 q 471 757 315 757 m 450 656 q 289 592 338 656 q 240 376 240 528 l 240 371 q 290 153 240 218 q 453 87 340 87 q 603 161 553 87 q 652 374 652 235 q 602 585 652 515 q 450 656 553 656 z "},"c":{"ha":667,"x_min":77,"x_max":621,"o":"m 416 -14 q 166 85 256 -14 q 77 368 77 184 q 167 657 77 555 q 425 758 258 758 q 533 747 479 758 q 621 718 586 736 l 583 616 q 422 652 489 652 q 256 581 310 652 q 203 370 203 510 q 256 163 203 235 q 415 92 310 92 q 608 135 513 92 l 608 26 q 416 -14 531 -14 z "},"d":{"ha":854,"x_min":77,"x_max":736,"o":"m 382 -14 q 157 87 237 -14 q 77 371 77 187 q 157 656 77 553 q 383 758 237 758 q 614 648 533 758 l 623 648 q 617 703 621 662 q 614 758 614 744 l 614 1055 l 736 1055 l 736 0 l 637 0 l 619 100 l 614 100 q 382 -14 536 -14 m 401 87 q 564 148 513 87 q 615 347 615 209 l 615 370 q 563 591 615 525 q 400 657 511 657 q 254 582 306 657 q 203 368 203 507 q 254 159 203 230 q 401 87 305 87 z "},"e":{"ha":783,"x_min":77,"x_max":713,"o":"m 435 -14 q 172 88 267 -14 q 77 367 77 189 q 165 652 77 546 q 406 758 254 758 q 629 668 546 758 q 713 422 713 577 l 713 349 l 203 349 q 267 156 206 222 q 440 90 328 90 q 553 101 500 90 q 679 142 607 111 l 679 35 q 563 -3 617 8 q 435 -14 509 -14 m 404 659 q 266 602 317 659 q 205 446 215 546 l 585 446 q 536 604 583 550 q 404 659 490 659 z "},"f":{"ha":478,"x_min":21,"x_max":538,"o":"m 461 650 l 273 650 l 273 0 l 151 0 l 151 650 l 21 650 l 21 707 l 151 749 l 151 791 q 211 995 151 927 q 393 1063 270 1063 q 538 1038 465 1063 l 505 942 q 395 962 442 962 q 303 922 333 962 q 273 793 273 881 l 273 745 l 461 745 l 461 650 z "},"g":{"ha":854,"x_min":77,"x_max":736,"o":"m 401 86 q 565 147 514 86 q 616 342 616 208 l 616 371 q 565 588 616 520 q 399 656 513 656 q 254 582 305 656 q 203 370 203 507 q 253 159 203 231 q 401 86 302 86 m 615 7 l 619 98 l 614 98 q 383 -14 538 -14 q 158 87 239 -14 q 77 371 77 188 q 158 654 77 551 q 382 758 240 758 q 615 646 533 758 l 623 646 l 639 745 l 736 745 l 736 -12 q 655 -253 736 -172 q 403 -334 574 -334 q 135 -286 240 -334 l 135 -174 q 410 -232 243 -232 q 560 -176 505 -232 q 615 -22 615 -121 l 615 7 z "},"h":{"ha":859,"x_min":118,"x_max":746,"o":"m 625 0 l 625 476 q 585 611 625 567 q 458 656 545 656 q 293 593 345 656 q 240 385 240 530 l 240 0 l 118 0 l 118 1055 l 240 1055 l 240 746 q 233 642 240 685 l 241 642 q 336 726 275 696 q 473 757 397 757 q 677 692 609 757 q 746 485 746 627 l 746 0 l 625 0 z "},"i":{"ha":358,"x_min":109,"x_max":252,"o":"m 240 0 l 118 0 l 118 745 l 240 745 l 240 0 m 109 946 q 129 1005 109 987 q 180 1023 150 1023 q 230 1005 209 1023 q 252 946 252 987 q 230 887 252 906 q 180 868 209 868 q 129 887 150 868 q 109 946 109 906 z "},"j":{"ha":358,"x_min":-77,"x_max":252,"o":"m 31 -334 q -77 -317 -33 -334 l -77 -218 q 16 -232 -30 -232 q 93 -203 68 -232 q 118 -115 118 -174 l 118 745 l 240 745 l 240 -111 q 187 -278 240 -222 q 31 -334 134 -334 m 109 946 q 129 1005 109 987 q 180 1023 150 1023 q 230 1005 209 1023 q 252 946 252 987 q 230 887 252 906 q 180 868 209 868 q 129 887 150 868 q 109 946 109 906 z "},"k":{"ha":742,"x_min":118,"x_max":729,"o":"m 239 383 l 280 436 l 328 493 l 566 745 l 708 745 l 407 427 l 729 0 l 582 0 l 323 347 l 239 273 l 239 0 l 118 0 l 118 1055 l 239 1055 l 239 504 l 233 383 l 239 383 z "},"l":{"ha":358,"x_min":118,"x_max":240,"o":"m 240 0 l 118 0 l 118 1055 l 240 1055 l 240 0 z "},"m":{"ha":1299,"x_min":118,"x_max":1186,"o":"m 1065 0 l 1065 479 q 914 656 1065 656 q 762 595 810 656 q 713 411 713 535 l 713 0 l 591 0 l 591 479 q 554 612 591 568 q 439 656 517 656 q 288 593 336 656 q 240 386 240 530 l 240 0 l 118 0 l 118 745 l 216 745 l 235 643 l 241 643 q 331 728 273 697 q 461 758 389 758 q 689 633 636 758 l 696 633 q 794 726 732 693 q 935 758 856 758 q 1123 693 1061 758 q 1186 485 1186 628 l 1186 0 l 1065 0 z "},"n":{"ha":859,"x_min":118,"x_max":746,"o":"m 625 0 l 625 476 q 585 611 625 567 q 458 656 545 656 q 292 592 344 656 q 240 386 240 529 l 240 0 l 118 0 l 118 745 l 216 745 l 235 643 l 241 643 q 338 728 276 698 q 476 758 401 758 q 680 692 613 758 q 746 485 746 625 l 746 0 l 625 0 z "},"o":{"ha":840,"x_min":77,"x_max":765,"o":"m 765 374 q 673 89 765 191 q 418 -14 581 -14 q 239 34 317 -14 q 119 169 161 81 q 77 374 77 257 q 168 657 77 555 q 422 758 258 758 q 672 655 580 758 q 765 374 765 551 m 203 374 q 258 160 203 233 q 421 87 313 87 q 583 160 528 87 q 639 374 639 233 q 583 585 639 514 q 419 656 527 656 q 203 374 203 656 z "},"p":{"ha":854,"x_min":118,"x_max":778,"o":"m 471 -14 q 240 94 321 -14 l 232 94 l 235 66 q 240 -28 240 14 l 240 -334 l 118 -334 l 118 745 l 218 745 l 235 643 l 240 643 q 340 731 283 704 q 472 758 397 758 q 697 657 617 758 q 778 374 778 557 q 697 89 778 191 q 471 -14 616 -14 m 450 656 q 291 593 340 656 q 240 397 241 531 l 240 374 q 290 155 240 222 q 453 87 340 87 q 599 163 547 87 q 652 375 652 239 q 599 584 652 511 q 450 656 547 656 z "},"q":{"ha":854,"x_min":77,"x_max":736,"o":"m 403 87 q 562 147 512 87 q 615 345 612 207 l 615 370 q 564 590 615 524 q 400 657 512 657 q 254 582 304 657 q 203 368 203 507 q 253 160 203 232 q 403 87 304 87 m 379 -14 q 156 88 235 -14 q 77 371 77 190 q 158 655 77 553 q 383 758 239 758 q 615 643 536 758 l 621 643 l 639 745 l 736 745 l 736 -334 l 614 -334 l 614 -16 q 621 100 614 59 l 612 100 q 379 -14 534 -14 z "},"r":{"ha":574,"x_min":118,"x_max":553,"o":"m 465 758 q 553 750 515 758 l 538 637 q 457 647 496 647 q 348 614 398 647 q 269 525 297 582 q 240 397 240 467 l 240 0 l 118 0 l 118 745 l 218 745 l 232 608 l 237 608 q 338 720 280 682 q 465 758 397 758 z "},"s":{"ha":665,"x_min":71,"x_max":603,"o":"m 603 205 q 525 44 603 101 q 306 -14 447 -14 q 72 33 159 -14 l 72 144 q 309 85 195 85 q 443 115 401 85 q 485 195 485 144 q 445 269 485 239 q 301 339 404 300 q 153 409 196 380 q 91 473 111 437 q 71 561 71 509 q 145 705 71 652 q 350 758 220 758 q 587 708 477 758 l 546 611 q 342 659 433 659 q 227 634 266 659 q 187 568 187 610 q 221 501 187 528 q 379 427 255 474 q 516 362 472 392 q 582 295 561 332 q 603 205 603 258 z "},"t":{"ha":501,"x_min":22,"x_max":471,"o":"m 367 86 q 422 91 391 86 q 471 102 454 96 l 471 8 q 418 -6 454 1 q 346 -14 382 -14 q 127 216 127 -14 l 127 650 l 22 650 l 22 708 l 129 757 l 178 916 l 250 916 l 250 745 l 465 745 l 465 650 l 250 650 l 250 220 q 281 121 250 155 q 367 86 312 86 z "},"u":{"ha":859,"x_min":110,"x_max":741,"o":"m 233 745 l 233 265 q 274 131 233 175 q 399 87 314 87 q 566 151 513 87 q 618 357 618 215 l 618 745 l 741 745 l 741 0 l 640 0 l 623 98 l 616 98 q 522 16 583 45 q 380 -14 461 -14 q 178 51 246 -14 q 110 257 110 115 l 110 745 l 233 745 z "},"v":{"ha":705,"x_min":0,"x_max":705,"o":"m 282 0 l 0 745 l 131 745 l 289 306 q 349 109 336 174 l 354 109 q 359 129 356 117 q 366 153 362 140 q 416 306 370 166 l 575 745 l 705 745 l 422 0 l 282 0 z "},"w":{"ha":1092,"x_min":16,"x_max":1076,"o":"m 726 0 l 599 419 q 547 616 581 471 l 542 616 q 492 418 513 484 l 358 0 l 220 0 l 16 745 l 142 745 q 249 327 212 470 q 293 125 286 184 l 298 125 l 308 167 q 349 325 329 264 l 481 745 l 614 745 l 742 325 q 756 274 749 301 q 771 221 764 248 q 783 171 778 195 q 791 126 789 146 l 798 126 q 847 347 804 178 l 951 745 l 1076 745 l 869 0 l 726 0 z "},"x":{"ha":734,"x_min":25,"x_max":710,"o":"m 294 380 l 37 745 l 176 745 l 368 464 l 558 745 l 696 745 l 439 380 l 710 0 l 571 0 l 368 297 l 163 0 l 25 0 l 294 380 z "},"y":{"ha":708,"x_min":1,"x_max":708,"o":"m 1 745 l 132 745 l 293 321 q 355 118 344 182 l 361 118 q 389 212 367 143 q 425 322 410 281 l 576 745 l 708 745 l 387 -103 q 276 -280 340 -227 q 117 -334 212 -334 q 16 -322 66 -334 l 16 -225 q 97 -233 50 -233 q 196 -201 155 -233 q 262 -102 237 -169 l 301 -3 l 1 745 z "},"z":{"ha":653,"x_min":54,"x_max":599,"o":"m 599 0 l 54 0 l 54 81 l 454 650 l 78 650 l 78 745 l 589 745 l 589 653 l 195 94 l 599 94 l 599 0 z "},"¡":{"ha":374,"x_min":100,"x_max":272,"o":"m 144 458 l 225 458 l 260 -253 l 110 -253 l 144 458 m 272 664 q 250 595 272 618 q 186 571 228 571 q 122 594 144 571 q 100 664 100 618 q 123 733 100 709 q 186 758 146 758 q 249 734 226 758 q 272 664 272 709 z "},"¢":{"ha":794,"x_min":126,"x_max":673,"o":"m 661 163 q 489 121 585 124 l 489 -14 l 396 -14 l 396 125 q 192 240 258 146 q 126 503 126 334 q 396 889 126 847 l 396 1006 l 490 1006 l 490 895 q 673 854 593 890 l 637 753 q 472 789 541 789 q 305 718 359 789 q 252 504 252 648 q 306 294 252 359 q 467 228 360 228 q 573 240 527 228 q 661 269 618 252 l 661 163 z "},"£":{"ha":794,"x_min":45,"x_max":743,"o":"m 464 1004 q 710 947 593 1004 l 667 850 q 467 903 553 903 q 346 862 387 903 q 304 729 304 821 l 304 536 l 587 536 l 587 444 l 304 444 l 304 300 q 282 188 304 235 q 210 111 260 142 l 743 111 l 743 0 l 45 0 l 45 103 q 182 298 182 135 l 182 444 l 49 444 l 49 536 l 182 536 l 182 742 q 258 935 182 865 q 464 1004 334 1004 z "},"¤":{"ha":794,"x_min":82,"x_max":710,"o":"m 125 490 q 174 643 125 570 l 82 737 l 150 803 l 241 714 q 397 762 309 762 q 550 714 479 762 l 643 803 l 710 737 l 621 644 q 669 490 669 569 q 621 335 669 402 l 708 243 l 643 178 l 550 267 q 397 220 480 220 q 241 268 308 220 l 150 179 l 83 244 l 174 336 q 125 490 125 410 m 218 490 q 270 363 218 415 q 397 311 322 311 q 525 363 473 311 q 578 490 578 414 q 525 620 578 568 q 397 672 473 672 q 271 620 323 672 q 218 490 218 567 z "},"¥":{"ha":794,"x_min":20,"x_max":772,"o":"m 396 507 l 644 991 l 772 991 l 493 471 l 665 471 l 665 382 l 456 382 l 456 268 l 665 268 l 665 179 l 456 179 l 456 0 l 336 0 l 336 179 l 126 179 l 126 268 l 336 268 l 336 382 l 126 382 l 126 471 l 296 471 l 20 991 l 149 991 l 396 507 z "},"¦":{"ha":765,"x_min":332,"x_max":433,"o":"m 332 1055 l 433 1055 l 433 526 l 332 526 l 332 1055 m 332 195 l 433 195 l 433 -335 l 332 -335 l 332 195 z "},"§":{"ha":713,"x_min":82,"x_max":621,"o":"m 93 549 q 122 653 93 608 q 203 724 151 699 q 125 789 153 751 q 97 884 97 827 q 168 1015 97 967 q 371 1063 238 1063 q 485 1053 433 1063 q 608 1015 536 1044 l 571 922 q 459 958 505 949 q 363 968 413 968 q 248 948 285 968 q 211 886 211 928 q 250 820 211 848 q 395 754 290 791 q 569 657 518 709 q 621 532 621 605 q 517 347 621 410 q 619 195 619 293 q 539 46 619 98 q 317 -7 459 -7 q 82 39 174 -7 l 82 143 q 205 101 141 117 q 322 86 270 86 q 456 111 409 86 q 503 184 503 136 q 467 253 503 226 q 323 321 431 279 q 141 421 190 370 q 93 549 93 472 m 197 562 q 216 502 197 528 q 275 453 234 477 q 427 387 316 429 q 515 514 515 439 q 468 606 515 569 q 297 682 420 643 q 225 636 253 670 q 197 562 197 603 z "},"¨":{"ha":806,"x_min":207,"x_max":597,"o":"m 207 946 q 226 998 207 982 q 272 1014 245 1014 q 318 998 298 1014 q 338 946 338 982 q 318 893 338 910 q 272 876 298 876 q 226 893 245 876 q 207 946 207 910 m 468 946 q 487 998 468 982 q 532 1014 506 1014 q 578 998 558 1014 q 597 946 597 982 q 578 893 597 910 q 532 876 558 876 q 487 893 506 876 q 468 946 468 910 z "},"©":{"ha":1156,"x_min":68,"x_max":1088,"o":"m 606 715 q 479 657 525 715 q 433 496 433 600 q 473 332 433 389 q 604 275 513 275 q 750 307 669 275 l 750 218 q 676 192 709 200 q 599 184 643 184 q 396 266 468 184 q 325 496 325 347 q 400 722 325 637 q 604 806 475 806 q 775 764 692 806 l 734 679 q 606 715 663 715 m 68 496 q 136 750 68 631 q 322 937 203 869 q 578 1006 441 1006 q 832 938 713 1006 q 1019 751 951 870 q 1088 496 1088 633 q 1022 245 1088 362 q 838 57 956 127 q 578 -14 719 -14 q 319 57 437 -14 q 134 244 200 127 q 68 496 68 361 m 142 496 q 200 278 142 379 q 360 118 258 177 q 578 60 461 60 q 795 118 694 60 q 955 278 897 176 q 1014 496 1014 379 q 956 713 1014 612 q 796 873 897 814 q 578 932 694 932 q 360 873 461 932 q 200 714 259 815 q 142 496 142 612 z "},"ª":{"ha":496,"x_min":45,"x_max":428,"o":"m 363 541 l 346 599 q 187 532 282 532 q 83 566 121 532 q 45 669 45 600 q 98 775 45 739 q 264 815 152 811 l 342 818 l 342 848 q 315 910 342 890 q 243 930 289 930 q 103 895 175 930 q 72 962 85 937 q 245 1003 155 1003 q 382 966 336 1003 q 428 846 428 928 l 428 541 l 363 541 m 134 669 q 208 603 134 603 q 342 724 342 603 l 342 755 l 275 753 q 167 731 200 750 q 134 669 134 711 z "},"«":{"ha":707,"x_min":56,"x_max":653,"o":"m 56 375 l 289 654 l 376 604 l 182 367 l 376 129 l 289 78 l 56 357 l 56 375 m 330 375 l 567 654 l 653 604 l 458 367 l 653 129 l 567 78 l 330 357 l 330 375 z "},"¬":{"ha":794,"x_min":69,"x_max":722,"o":"m 722 539 l 722 178 l 624 178 l 624 440 l 69 440 l 69 539 l 722 539 z "},"­":{"ha":447,"x_min":56,"x_max":392,"o":"m 56 318 l 56 427 l 392 427 l 392 318 l 56 318 z "},"®":{"ha":1156,"x_min":68,"x_max":1088,"o":"m 493 518 l 562 518 q 647 545 617 518 q 677 616 677 572 q 650 688 677 666 q 561 710 622 710 l 493 710 l 493 518 m 785 619 q 755 522 785 563 q 676 461 726 481 l 838 192 l 718 192 l 579 432 l 493 432 l 493 192 l 387 192 l 387 799 l 566 799 q 732 754 680 799 q 785 619 785 710 m 68 496 q 136 750 68 631 q 322 937 203 869 q 578 1006 441 1006 q 832 938 713 1006 q 1019 751 951 870 q 1088 496 1088 633 q 1022 245 1088 362 q 838 57 956 127 q 578 -14 719 -14 q 319 57 437 -14 q 134 244 200 127 q 68 496 68 361 m 142 496 q 200 278 142 379 q 360 118 258 177 q 578 60 461 60 q 795 118 694 60 q 955 278 897 176 q 1014 496 1014 379 q 956 713 1014 612 q 796 873 897 814 q 578 932 694 932 q 360 873 461 932 q 200 714 259 815 q 142 496 142 612 z "},"°":{"ha":595,"x_min":83,"x_max":511,"o":"m 83 791 q 146 944 83 883 q 297 1006 208 1006 q 449 943 387 1006 q 511 791 511 881 q 449 641 511 703 q 297 579 387 579 q 146 640 209 579 q 83 791 83 701 m 167 791 q 206 700 167 738 q 298 661 245 661 q 391 700 353 661 q 428 791 428 739 q 391 884 428 846 q 298 922 353 922 q 205 884 244 922 q 167 791 167 846 z "},"±":{"ha":794,"x_min":69,"x_max":722,"o":"m 446 543 l 722 543 l 722 444 l 446 444 l 446 158 l 346 158 l 346 444 l 69 444 l 69 543 l 346 543 l 346 831 l 446 831 l 446 543 m 69 0 l 69 98 l 722 98 l 722 0 l 69 0 z "},"²":{"ha":486,"x_min":33,"x_max":427,"o":"m 425 397 l 33 397 l 33 472 l 193 628 q 303 750 279 711 q 328 835 328 788 q 302 901 328 879 q 235 924 277 924 q 159 907 193 924 q 89 864 125 891 l 40 928 q 236 1004 130 1004 q 376 960 326 1004 q 427 840 427 916 q 418 782 427 809 q 392 728 410 755 q 346 669 374 701 q 154 484 318 638 l 425 484 l 425 397 z "},"³":{"ha":486,"x_min":24,"x_max":446,"o":"m 428 851 q 325 710 428 749 q 446 568 446 680 q 383 434 446 482 q 205 386 321 386 q 24 425 102 386 l 24 513 q 207 465 120 465 q 346 571 346 465 q 193 667 346 667 l 114 667 l 114 743 l 193 743 q 295 770 263 743 q 328 840 328 796 q 301 903 328 880 q 231 925 275 925 q 77 872 160 925 l 26 936 q 125 989 77 973 q 229 1004 174 1004 q 375 963 321 1004 q 428 851 428 922 z "},"´":{"ha":806,"x_min":262,"x_max":542,"o":"m 262 859 q 328 951 288 891 q 395 1064 368 1011 l 542 1064 l 542 1050 q 449 941 512 1006 q 343 842 386 875 l 262 842 l 262 859 z "},"µ":{"ha":865,"x_min":118,"x_max":747,"o":"m 240 264 q 407 87 240 87 q 573 151 522 87 q 625 357 625 214 l 625 745 l 747 745 l 747 0 l 648 0 l 629 100 l 623 100 q 399 -14 549 -14 q 239 49 300 -14 l 233 49 q 240 -117 240 -1 l 240 -334 l 118 -334 l 118 745 l 240 745 l 240 264 z "},"¶":{"ha":909,"x_min":77,"x_max":762,"o":"m 762 -176 l 682 -176 l 682 978 l 541 978 l 541 -176 l 460 -176 l 460 379 q 361 367 418 367 q 145 452 214 367 q 77 707 77 536 q 151 969 77 883 q 382 1055 224 1055 l 762 1055 l 762 -176 z "},"·":{"ha":372,"x_min":100,"x_max":272,"o":"m 100 490 q 122 559 100 534 q 184 585 144 585 q 249 559 227 585 q 272 490 272 534 q 249 421 272 447 q 184 396 226 396 q 122 421 144 396 q 100 490 100 446 z "},"¸":{"ha":313,"x_min":20,"x_max":294,"o":"m 294 -193 q 243 -297 294 -260 q 89 -334 192 -334 q 20 -326 45 -334 l 20 -250 q 93 -257 44 -257 q 170 -244 144 -257 q 196 -196 196 -231 q 69 -119 196 -136 l 129 0 l 210 0 l 174 -74 q 294 -193 294 -100 z "},"¹":{"ha":486,"x_min":52,"x_max":334,"o":"m 232 991 l 334 991 l 334 397 l 235 397 l 235 781 q 240 904 235 826 q 203 872 219 885 q 100 796 188 859 l 52 864 l 232 991 z "},"º":{"ha":522,"x_min":45,"x_max":479,"o":"m 479 768 q 421 595 479 658 q 260 532 362 532 q 103 594 161 532 q 45 768 45 657 q 102 942 45 880 q 262 1003 159 1003 q 421 941 363 1003 q 479 768 479 880 m 132 768 q 162 646 132 686 q 261 606 192 606 q 359 646 329 606 q 390 768 390 686 q 359 890 390 850 q 261 929 329 929 q 163 890 193 929 q 132 768 132 850 z "},"»":{"ha":707,"x_min":54,"x_max":652,"o":"m 652 357 l 415 78 l 329 129 l 524 367 l 329 604 l 415 654 l 652 375 l 652 357 m 375 357 l 140 78 l 54 129 l 249 367 l 54 604 l 140 654 l 375 375 l 375 357 z "},"¼":{"ha":1097,"x_min":48,"x_max":1022,"o":"m 884 991 l 279 0 l 175 0 l 781 991 l 884 991 m 229 991 l 330 991 l 330 397 l 231 397 l 231 781 q 237 904 231 826 q 200 872 216 885 q 96 796 184 859 l 48 864 l 229 991 m 1022 134 l 937 134 l 937 1 l 833 1 l 833 134 l 562 134 l 562 206 l 836 599 l 937 599 l 937 217 l 1022 217 l 1022 134 m 833 217 l 833 347 q 838 487 833 419 q 771 380 832 475 l 660 217 l 833 217 z "},"½":{"ha":1097,"x_min":31,"x_max":1011,"o":"m 843 991 l 237 0 l 134 0 l 739 991 l 843 991 m 212 991 l 313 991 l 313 397 l 214 397 l 214 781 q 220 904 214 826 q 183 872 199 885 q 79 796 168 859 l 31 864 l 212 991 m 1010 1 l 618 1 l 618 75 l 778 231 q 888 353 864 315 q 912 438 912 391 q 887 505 912 482 q 819 527 861 527 q 743 511 777 527 q 673 467 709 494 l 625 531 q 821 608 715 608 q 961 563 910 608 q 1011 444 1011 519 q 1003 386 1011 412 q 977 331 994 359 q 931 273 959 304 q 739 87 903 241 l 1010 87 l 1010 1 z "},"¾":{"ha":1097,"x_min":22,"x_max":1072,"o":"m 945 991 l 340 0 l 236 0 l 842 991 l 945 991 m 1072 134 l 987 134 l 987 1 l 884 1 l 884 134 l 612 134 l 612 206 l 886 599 l 987 599 l 987 217 l 1072 217 l 1072 134 m 884 217 l 884 347 q 888 487 884 419 q 821 380 882 475 l 710 217 l 884 217 m 426 851 q 323 710 426 749 q 444 568 444 680 q 381 434 444 482 q 203 386 319 386 q 22 425 100 386 l 22 513 q 205 465 118 465 q 344 571 344 465 q 191 667 344 667 l 112 667 l 112 743 l 191 743 q 293 770 261 743 q 326 840 326 796 q 299 903 326 880 q 229 925 273 925 q 75 872 158 925 l 24 936 q 123 989 75 973 q 227 1004 172 1004 q 373 963 319 1004 q 426 851 426 922 z "},"¿":{"ha":603,"x_min":35,"x_max":586,"o":"m 408 458 l 408 422 q 383 292 408 343 q 290 184 358 241 q 176 72 200 109 q 153 -22 153 35 q 196 -124 153 -87 q 319 -161 239 -161 q 543 -102 427 -161 l 586 -200 q 315 -267 452 -267 q 109 -203 184 -267 q 35 -25 35 -140 q 48 63 35 24 q 90 136 62 101 q 199 240 117 170 q 289 339 269 301 q 310 436 310 376 l 310 458 l 408 458 m 440 664 q 354 571 440 571 q 291 595 312 571 q 269 664 269 619 q 294 736 269 713 q 354 758 319 758 q 415 736 391 758 q 440 664 440 713 z "},"À":{"ha":888,"x_min":0,"x_max":886,"o":"m 757 0 l 637 307 l 244 307 l 126 0 l 0 0 l 387 996 l 500 996 l 886 0 l 757 0 m 600 418 l 489 718 l 441 867 q 399 718 421 785 l 286 418 l 600 418 m 505 1071 l 423 1071 q 312 1176 372 1112 q 226 1279 251 1241 l 226 1293 l 372 1293 q 433 1186 393 1249 q 505 1088 473 1124 l 505 1071 z "},"Á":{"ha":888,"x_min":0,"x_max":886,"o":"m 757 0 l 637 307 l 244 307 l 126 0 l 0 0 l 387 996 l 500 996 l 886 0 l 757 0 m 600 418 l 489 718 l 441 867 q 399 718 421 785 l 286 418 l 600 418 m 357 1088 q 422 1180 382 1120 q 489 1293 462 1240 l 636 1293 l 636 1279 q 543 1170 606 1236 q 437 1071 480 1104 l 357 1071 l 357 1088 z "},"Â":{"ha":888,"x_min":0,"x_max":886,"o":"m 757 0 l 637 307 l 244 307 l 126 0 l 0 0 l 387 996 l 500 996 l 886 0 l 757 0 m 600 418 l 489 718 l 441 867 q 399 718 421 785 l 286 418 l 600 418 m 203 1086 q 322 1221 288 1177 q 374 1293 357 1264 l 498 1293 q 672 1086 534 1225 l 672 1071 l 586 1071 q 435 1196 525 1107 q 286 1071 346 1109 l 203 1071 l 203 1086 z "},"Ã":{"ha":888,"x_min":0,"x_max":886,"o":"m 757 0 l 637 307 l 244 307 l 126 0 l 0 0 l 387 996 l 500 996 l 886 0 l 757 0 m 600 418 l 489 718 l 441 867 q 399 718 421 785 l 286 418 l 600 418 m 541 1072 q 484 1085 512 1072 q 430 1112 456 1097 q 378 1139 403 1126 q 330 1152 353 1152 q 280 1132 297 1152 q 254 1071 263 1112 l 183 1071 q 231 1201 191 1154 q 336 1249 270 1249 q 395 1236 366 1249 q 450 1209 424 1223 q 501 1182 477 1194 q 547 1169 526 1169 q 596 1189 580 1169 q 623 1250 613 1209 l 693 1250 q 646 1121 685 1169 q 541 1072 606 1072 z "},"Ä":{"ha":888,"x_min":0,"x_max":886,"o":"m 757 0 l 637 307 l 244 307 l 126 0 l 0 0 l 387 996 l 500 996 l 886 0 l 757 0 m 600 418 l 489 718 l 441 867 q 399 718 421 785 l 286 418 l 600 418 m 245 1175 q 264 1227 245 1211 q 311 1243 283 1243 q 357 1227 337 1243 q 376 1175 376 1211 q 357 1122 376 1139 q 311 1105 337 1105 q 264 1122 283 1105 q 245 1175 245 1139 m 507 1175 q 526 1227 507 1211 q 570 1243 545 1243 q 616 1227 597 1243 q 636 1175 636 1211 q 616 1122 636 1139 q 570 1105 597 1105 q 526 1122 545 1105 q 507 1175 507 1139 z "},"Å":{"ha":888,"x_min":0,"x_max":886,"o":"m 595 1075 q 574 995 595 1028 q 519 945 554 961 l 886 0 l 757 0 l 637 307 l 244 307 l 126 0 l 0 0 l 366 940 q 309 991 330 957 q 289 1074 289 1025 q 330 1180 289 1140 q 440 1219 370 1219 q 552 1179 509 1219 q 595 1075 595 1139 m 600 418 l 489 718 l 441 867 q 399 718 421 785 l 286 418 l 600 418 m 518 1074 q 496 1131 518 1110 q 440 1152 474 1152 q 385 1131 407 1152 q 363 1074 363 1110 q 382 1016 363 1037 q 440 996 402 996 q 496 1016 475 996 q 518 1074 518 1037 z "},"Æ":{"ha":1223,"x_min":-1,"x_max":1140,"o":"m 1140 0 l 624 0 l 624 307 l 277 307 l 127 0 l -1 0 l 469 991 l 1140 991 l 1140 882 l 749 882 l 749 572 l 1114 572 l 1114 464 l 749 464 l 749 110 l 1140 110 l 1140 0 m 325 418 l 624 418 l 624 880 l 543 880 l 325 418 z "},"Ç":{"ha":878,"x_min":85,"x_max":835,"o":"m 559 896 q 308 789 399 896 q 216 496 216 682 q 305 200 216 304 q 558 96 394 96 q 796 135 664 96 l 796 26 q 675 -5 733 3 q 541 -14 616 -14 q 203 120 321 -14 q 85 497 85 253 q 141 766 85 650 q 306 943 198 881 q 561 1006 414 1006 q 835 947 718 1006 l 785 842 q 559 896 666 896 m 644 -193 q 593 -297 644 -260 q 439 -334 542 -334 q 370 -326 395 -334 l 370 -250 q 443 -257 394 -257 q 520 -244 494 -257 q 546 -196 546 -231 q 419 -119 546 -136 l 479 0 l 559 0 l 524 -74 q 644 -193 644 -100 z "},"È":{"ha":772,"x_min":135,"x_max":689,"o":"m 689 0 l 135 0 l 135 991 l 689 991 l 689 882 l 260 882 l 260 572 l 664 572 l 664 464 l 260 464 l 260 110 l 689 110 l 689 0 m 492 1071 l 410 1071 q 299 1176 359 1112 q 213 1279 238 1241 l 213 1293 l 359 1293 q 420 1186 380 1249 q 492 1088 460 1124 l 492 1071 z "},"É":{"ha":772,"x_min":135,"x_max":689,"o":"m 689 0 l 135 0 l 135 991 l 689 991 l 689 882 l 260 882 l 260 572 l 664 572 l 664 464 l 260 464 l 260 110 l 689 110 l 689 0 m 307 1088 q 373 1180 333 1120 q 439 1293 412 1240 l 587 1293 l 587 1279 q 494 1170 557 1236 q 388 1071 431 1104 l 307 1071 l 307 1088 z "},"Ê":{"ha":772,"x_min":135,"x_max":689,"o":"m 689 0 l 135 0 l 135 991 l 689 991 l 689 882 l 260 882 l 260 572 l 664 572 l 664 464 l 260 464 l 260 110 l 689 110 l 689 0 m 173 1086 q 293 1221 258 1177 q 344 1293 328 1264 l 469 1293 q 642 1086 504 1225 l 642 1071 l 556 1071 q 405 1196 495 1107 q 256 1071 316 1109 l 173 1071 l 173 1086 z "},"Ë":{"ha":772,"x_min":135,"x_max":689,"o":"m 689 0 l 135 0 l 135 991 l 689 991 l 689 882 l 260 882 l 260 572 l 664 572 l 664 464 l 260 464 l 260 110 l 689 110 l 689 0 m 216 1175 q 235 1227 216 1211 q 281 1243 254 1243 q 328 1227 308 1243 q 347 1175 347 1211 q 328 1122 347 1139 q 281 1105 308 1105 q 235 1122 254 1105 q 216 1175 216 1139 m 477 1175 q 496 1227 477 1211 q 541 1243 515 1243 q 587 1227 568 1243 q 607 1175 607 1211 q 587 1122 607 1139 q 541 1105 568 1105 q 496 1122 515 1105 q 477 1175 477 1139 z "},"Ì":{"ha":471,"x_min":41,"x_max":414,"o":"m 414 0 l 56 0 l 56 72 l 172 98 l 172 892 l 56 920 l 56 991 l 414 991 l 414 920 l 297 892 l 297 98 l 414 72 l 414 0 m 320 1071 l 238 1071 q 126 1176 187 1112 q 41 1279 66 1241 l 41 1293 l 186 1293 q 248 1186 208 1249 q 320 1088 288 1124 l 320 1071 z "},"Í":{"ha":471,"x_min":56,"x_max":439,"o":"m 414 0 l 56 0 l 56 72 l 172 98 l 172 892 l 56 920 l 56 991 l 414 991 l 414 920 l 297 892 l 297 98 l 414 72 l 414 0 m 160 1088 q 225 1180 186 1120 q 292 1293 265 1240 l 439 1293 l 439 1279 q 347 1170 410 1236 q 241 1071 283 1104 l 160 1071 l 160 1088 z "},"Î":{"ha":471,"x_min":-2,"x_max":467,"o":"m 414 0 l 56 0 l 56 72 l 172 98 l 172 892 l 56 920 l 56 991 l 414 991 l 414 920 l 297 892 l 297 98 l 414 72 l 414 0 m -2 1086 q 118 1221 83 1177 q 169 1293 153 1264 l 294 1293 q 467 1086 329 1225 l 467 1071 l 381 1071 q 230 1196 320 1107 q 81 1071 141 1109 l -2 1071 l -2 1086 z "},"Ï":{"ha":471,"x_min":41,"x_max":431,"o":"m 414 0 l 56 0 l 56 72 l 172 98 l 172 892 l 56 920 l 56 991 l 414 991 l 414 920 l 297 892 l 297 98 l 414 72 l 414 0 m 41 1175 q 60 1227 41 1211 q 106 1243 79 1243 q 152 1227 132 1243 q 172 1175 172 1211 q 152 1122 172 1139 q 106 1105 132 1105 q 60 1122 79 1105 q 41 1175 41 1139 m 302 1175 q 321 1227 302 1211 q 366 1243 340 1243 q 412 1227 392 1243 q 431 1175 431 1211 q 412 1122 431 1139 q 366 1105 392 1105 q 321 1122 340 1105 q 302 1175 302 1139 z "},"Ð":{"ha":1014,"x_min":41,"x_max":929,"o":"m 929 505 q 796 131 929 262 q 410 0 663 0 l 144 0 l 144 436 l 41 436 l 41 545 l 144 545 l 144 991 l 440 991 q 800 864 671 991 q 929 505 929 736 m 798 501 q 703 788 798 691 q 422 885 609 885 l 269 885 l 269 545 l 517 545 l 517 436 l 269 436 l 269 107 l 395 107 q 798 501 798 107 z "},"Ñ":{"ha":1055,"x_min":135,"x_max":921,"o":"m 921 0 l 775 0 l 244 823 l 239 823 l 242 768 q 250 554 250 645 l 250 0 l 135 0 l 135 991 l 279 991 l 310 943 l 635 440 l 808 171 l 814 171 q 808 287 812 187 q 804 432 804 387 l 804 991 l 921 991 l 921 0 m 637 1072 q 581 1085 608 1072 q 526 1112 553 1097 q 474 1139 499 1126 q 427 1152 450 1152 q 376 1132 393 1152 q 350 1071 359 1112 l 279 1071 q 327 1201 288 1154 q 432 1249 366 1249 q 491 1236 463 1249 q 547 1209 520 1223 q 597 1182 573 1194 q 644 1169 622 1169 q 693 1189 676 1169 q 720 1250 709 1209 l 789 1250 q 742 1121 781 1169 q 637 1072 703 1072 z "},"Ò":{"ha":1084,"x_min":85,"x_max":1000,"o":"m 1000 497 q 880 123 1000 259 q 543 -14 760 -14 q 204 120 324 -14 q 85 498 85 254 q 204 874 85 741 q 545 1007 323 1007 q 880 872 760 1007 q 1000 497 1000 736 m 216 497 q 300 197 216 300 q 543 94 383 94 q 785 196 703 94 q 868 497 868 298 q 786 797 868 696 q 545 897 704 897 q 300 795 383 897 q 216 497 216 693 m 623 1071 l 541 1071 q 429 1176 490 1112 q 343 1279 368 1241 l 343 1293 l 489 1293 q 551 1186 511 1249 q 623 1088 591 1124 l 623 1071 z "},"Ó":{"ha":1084,"x_min":85,"x_max":1000,"o":"m 1000 497 q 880 123 1000 259 q 543 -14 760 -14 q 204 120 324 -14 q 85 498 85 254 q 204 874 85 741 q 545 1007 323 1007 q 880 872 760 1007 q 1000 497 1000 736 m 216 497 q 300 197 216 300 q 543 94 383 94 q 785 196 703 94 q 868 497 868 298 q 786 797 868 696 q 545 897 704 897 q 300 795 383 897 q 216 497 216 693 m 446 1088 q 511 1180 471 1120 q 578 1293 551 1240 l 725 1293 l 725 1279 q 632 1170 695 1236 q 526 1071 569 1104 l 446 1071 l 446 1088 z "},"Ô":{"ha":1084,"x_min":85,"x_max":1000,"o":"m 1000 497 q 880 123 1000 259 q 543 -14 760 -14 q 204 120 324 -14 q 85 498 85 254 q 204 874 85 741 q 545 1007 323 1007 q 880 872 760 1007 q 1000 497 1000 736 m 216 497 q 300 197 216 300 q 543 94 383 94 q 785 196 703 94 q 868 497 868 298 q 786 797 868 696 q 545 897 704 897 q 300 795 383 897 q 216 497 216 693 m 298 1086 q 418 1221 383 1177 q 469 1293 453 1264 l 594 1293 q 768 1086 629 1225 l 768 1071 l 682 1071 q 530 1196 621 1107 q 382 1071 441 1109 l 298 1071 l 298 1086 z "},"Õ":{"ha":1084,"x_min":85,"x_max":1000,"o":"m 1000 497 q 880 123 1000 259 q 543 -14 760 -14 q 204 120 324 -14 q 85 498 85 254 q 204 874 85 741 q 545 1007 323 1007 q 880 872 760 1007 q 1000 497 1000 736 m 216 497 q 300 197 216 300 q 543 94 383 94 q 785 196 703 94 q 868 497 868 298 q 786 797 868 696 q 545 897 704 897 q 300 795 383 897 q 216 497 216 693 m 640 1072 q 583 1085 611 1072 q 529 1112 555 1097 q 477 1139 502 1126 q 429 1152 452 1152 q 379 1132 396 1152 q 353 1071 362 1112 l 282 1071 q 330 1201 290 1154 q 435 1249 369 1249 q 494 1236 465 1249 q 549 1209 523 1223 q 600 1182 576 1194 q 646 1169 625 1169 q 695 1189 679 1169 q 722 1250 712 1209 l 792 1250 q 745 1121 784 1169 q 640 1072 705 1072 z "},"Ö":{"ha":1084,"x_min":85,"x_max":1000,"o":"m 1000 497 q 880 123 1000 259 q 543 -14 760 -14 q 204 120 324 -14 q 85 498 85 254 q 204 874 85 741 q 545 1007 323 1007 q 880 872 760 1007 q 1000 497 1000 736 m 216 497 q 300 197 216 300 q 543 94 383 94 q 785 196 703 94 q 868 497 868 298 q 786 797 868 696 q 545 897 704 897 q 300 795 383 897 q 216 497 216 693 m 350 1175 q 369 1227 350 1211 q 415 1243 388 1243 q 461 1227 441 1243 q 481 1175 481 1211 q 461 1122 481 1139 q 415 1105 441 1105 q 369 1122 388 1105 q 350 1175 350 1139 m 611 1175 q 630 1227 611 1211 q 675 1243 649 1243 q 721 1227 701 1243 q 741 1175 741 1211 q 721 1122 741 1139 q 675 1105 701 1105 q 630 1122 649 1105 q 611 1175 611 1139 z "},"Ø":{"ha":1084,"x_min":85,"x_max":1000,"o":"m 1000 497 q 880 123 1000 259 q 543 -14 760 -14 q 286 52 386 -14 l 220 -43 l 135 12 l 207 115 q 85 498 85 250 q 204 874 85 741 q 545 1007 323 1007 q 791 945 683 1007 l 856 1036 l 940 979 l 869 880 q 1000 497 1000 743 m 868 497 q 798 778 868 676 l 353 147 q 543 94 430 94 q 785 196 703 94 q 868 497 868 298 m 216 497 q 282 222 216 321 l 725 848 q 545 897 651 897 q 300 795 383 897 q 216 497 216 693 z "},"Ù":{"ha":1015,"x_min":125,"x_max":889,"o":"m 889 991 l 889 350 q 787 83 889 180 q 503 -14 684 -14 q 224 84 323 -14 q 125 353 125 182 l 125 991 l 250 991 l 250 349 q 315 161 250 227 q 510 94 380 94 q 699 160 633 94 q 765 350 765 226 l 765 991 l 889 991 m 587 1071 l 505 1071 q 393 1176 454 1112 q 307 1279 332 1241 l 307 1293 l 453 1293 q 515 1186 475 1249 q 587 1088 555 1124 l 587 1071 z "},"Ú":{"ha":1015,"x_min":125,"x_max":889,"o":"m 889 991 l 889 350 q 787 83 889 180 q 503 -14 684 -14 q 224 84 323 -14 q 125 353 125 182 l 125 991 l 250 991 l 250 349 q 315 161 250 227 q 510 94 380 94 q 699 160 633 94 q 765 350 765 226 l 765 991 l 889 991 m 407 1088 q 472 1180 433 1120 q 539 1293 512 1240 l 686 1293 l 686 1279 q 593 1170 656 1236 q 488 1071 530 1104 l 407 1071 l 407 1088 z "},"Û":{"ha":1015,"x_min":125,"x_max":889,"o":"m 889 991 l 889 350 q 787 83 889 180 q 503 -14 684 -14 q 224 84 323 -14 q 125 353 125 182 l 125 991 l 250 991 l 250 349 q 315 161 250 227 q 510 94 380 94 q 699 160 633 94 q 765 350 765 226 l 765 991 l 889 991 m 262 1086 q 382 1221 347 1177 q 433 1293 417 1264 l 558 1293 q 732 1086 593 1225 l 732 1071 l 646 1071 q 494 1196 585 1107 q 346 1071 406 1109 l 262 1071 l 262 1086 z "},"Ü":{"ha":1015,"x_min":125,"x_max":889,"o":"m 889 991 l 889 350 q 787 83 889 180 q 503 -14 684 -14 q 224 84 323 -14 q 125 353 125 182 l 125 991 l 250 991 l 250 349 q 315 161 250 227 q 510 94 380 94 q 699 160 633 94 q 765 350 765 226 l 765 991 l 889 991 m 310 1175 q 329 1227 310 1211 q 375 1243 348 1243 q 421 1227 401 1243 q 441 1175 441 1211 q 421 1122 441 1139 q 375 1105 401 1105 q 329 1122 348 1105 q 310 1175 310 1139 m 571 1175 q 590 1227 571 1211 q 635 1243 609 1243 q 681 1227 661 1243 q 701 1175 701 1211 q 681 1122 701 1139 q 635 1105 661 1105 q 590 1122 609 1105 q 571 1175 571 1139 z "},"Ý":{"ha":786,"x_min":0,"x_max":786,"o":"m 393 504 l 652 991 l 786 991 l 456 385 l 456 0 l 330 0 l 330 379 l 0 991 l 136 991 l 393 504 m 300 1088 q 365 1180 326 1120 q 432 1293 405 1240 l 579 1293 l 579 1279 q 486 1170 549 1236 q 380 1071 423 1104 l 300 1071 l 300 1088 z "},"Þ":{"ha":840,"x_min":135,"x_max":770,"o":"m 770 530 q 668 296 770 377 q 372 215 566 215 l 260 215 l 260 0 l 135 0 l 135 991 l 260 991 l 260 819 l 393 819 q 677 748 584 819 q 770 530 770 676 m 260 321 l 359 321 q 575 369 509 321 q 640 524 640 417 q 578 667 640 621 q 383 713 517 713 l 260 713 l 260 321 z "},"ß":{"ha":876,"x_min":118,"x_max":814,"o":"m 725 857 q 628 687 725 763 q 552 620 574 645 q 530 572 530 595 q 552 523 530 545 q 653 449 574 500 q 780 333 746 387 q 814 212 814 280 q 747 45 814 103 q 555 -14 680 -14 q 354 33 429 -14 l 354 143 q 451 100 397 116 q 551 85 505 85 q 694 204 694 85 q 667 288 694 252 q 564 371 640 323 q 448 464 484 422 q 412 566 412 507 q 435 644 412 608 q 507 715 458 680 q 579 784 557 753 q 602 850 602 815 q 556 932 602 903 q 425 961 511 961 q 240 811 240 961 l 240 0 l 118 0 l 118 811 q 195 998 118 934 q 425 1063 273 1063 q 646 1008 568 1063 q 725 857 725 954 z "},"à":{"ha":779,"x_min":64,"x_max":667,"o":"m 578 0 l 554 106 l 549 106 q 438 11 493 36 q 298 -14 382 -14 q 126 44 189 -14 q 64 207 64 102 q 421 444 64 433 l 547 449 l 547 493 q 511 618 547 578 q 393 659 474 659 q 282 641 334 659 q 183 602 229 623 l 146 693 q 269 740 202 723 q 400 757 335 757 q 601 697 535 757 q 667 507 667 637 l 667 0 l 578 0 m 326 85 q 487 140 429 85 q 546 297 546 195 l 546 364 l 436 359 q 249 319 308 355 q 191 205 191 283 q 226 116 191 147 q 326 85 262 85 m 466 842 l 384 842 q 272 947 333 882 q 186 1050 212 1012 l 186 1064 l 332 1064 q 394 957 354 1019 q 466 859 434 895 l 466 842 z "},"á":{"ha":779,"x_min":64,"x_max":667,"o":"m 578 0 l 554 106 l 549 106 q 438 11 493 36 q 298 -14 382 -14 q 126 44 189 -14 q 64 207 64 102 q 421 444 64 433 l 547 449 l 547 493 q 511 618 547 578 q 393 659 474 659 q 282 641 334 659 q 183 602 229 623 l 146 693 q 269 740 202 723 q 400 757 335 757 q 601 697 535 757 q 667 507 667 637 l 667 0 l 578 0 m 326 85 q 487 140 429 85 q 546 297 546 195 l 546 364 l 436 359 q 249 319 308 355 q 191 205 191 283 q 226 116 191 147 q 326 85 262 85 m 296 859 q 361 951 321 891 q 428 1064 401 1011 l 575 1064 l 575 1050 q 482 941 545 1006 q 376 842 419 875 l 296 842 l 296 859 z "},"â":{"ha":779,"x_min":64,"x_max":667,"o":"m 578 0 l 554 106 l 549 106 q 438 11 493 36 q 298 -14 382 -14 q 126 44 189 -14 q 64 207 64 102 q 421 444 64 433 l 547 449 l 547 493 q 511 618 547 578 q 393 659 474 659 q 282 641 334 659 q 183 602 229 623 l 146 693 q 269 740 202 723 q 400 757 335 757 q 601 697 535 757 q 667 507 667 637 l 667 0 l 578 0 m 326 85 q 487 140 429 85 q 546 297 546 195 l 546 364 l 436 359 q 249 319 308 355 q 191 205 191 283 q 226 116 191 147 q 326 85 262 85 m 152 857 q 272 991 237 948 q 323 1064 307 1035 l 448 1064 q 621 857 483 996 l 621 842 l 535 842 q 384 966 474 878 q 235 842 295 880 l 152 842 l 152 857 z "},"ã":{"ha":779,"x_min":64,"x_max":667,"o":"m 578 0 l 554 106 l 549 106 q 438 11 493 36 q 298 -14 382 -14 q 126 44 189 -14 q 64 207 64 102 q 421 444 64 433 l 547 449 l 547 493 q 511 618 547 578 q 393 659 474 659 q 282 641 334 659 q 183 602 229 623 l 146 693 q 269 740 202 723 q 400 757 335 757 q 601 697 535 757 q 667 507 667 637 l 667 0 l 578 0 m 326 85 q 487 140 429 85 q 546 297 546 195 l 546 364 l 436 359 q 249 319 308 355 q 191 205 191 283 q 226 116 191 147 q 326 85 262 85 m 494 843 q 437 856 465 843 q 382 883 409 868 q 331 910 355 897 q 283 922 306 922 q 233 902 250 922 q 206 842 216 882 l 136 842 q 183 972 144 924 q 288 1019 222 1019 q 348 1007 319 1019 q 403 980 376 994 q 454 952 429 965 q 500 940 478 940 q 549 960 532 940 q 576 1021 566 980 l 646 1021 q 598 891 637 940 q 494 843 559 843 z "},"ä":{"ha":779,"x_min":64,"x_max":667,"o":"m 578 0 l 554 106 l 549 106 q 438 11 493 36 q 298 -14 382 -14 q 126 44 189 -14 q 64 207 64 102 q 421 444 64 433 l 547 449 l 547 493 q 511 618 547 578 q 393 659 474 659 q 282 641 334 659 q 183 602 229 623 l 146 693 q 269 740 202 723 q 400 757 335 757 q 601 697 535 757 q 667 507 667 637 l 667 0 l 578 0 m 326 85 q 487 140 429 85 q 546 297 546 195 l 546 364 l 436 359 q 249 319 308 355 q 191 205 191 283 q 226 116 191 147 q 326 85 262 85 m 189 946 q 208 998 189 982 q 254 1014 227 1014 q 300 998 281 1014 q 320 946 320 982 q 300 893 320 910 q 254 876 281 876 q 208 893 227 876 q 189 946 189 910 m 450 946 q 469 998 450 982 q 514 1014 488 1014 q 560 998 541 1014 q 580 946 580 982 q 560 893 580 910 q 514 876 541 876 q 469 893 488 876 q 450 946 450 910 z "},"å":{"ha":779,"x_min":64,"x_max":667,"o":"m 578 0 l 554 106 l 549 106 q 438 11 493 36 q 298 -14 382 -14 q 126 44 189 -14 q 64 207 64 102 q 421 444 64 433 l 547 449 l 547 493 q 511 618 547 578 q 393 659 474 659 q 282 641 334 659 q 183 602 229 623 l 146 693 q 269 740 202 723 q 400 757 335 757 q 601 697 535 757 q 667 507 667 637 l 667 0 l 578 0 m 326 85 q 487 140 429 85 q 546 297 546 195 l 546 364 l 436 359 q 249 319 308 355 q 191 205 191 283 q 226 116 191 147 q 326 85 262 85 m 551 990 q 508 882 551 922 q 397 842 466 842 q 286 881 327 842 q 245 989 245 921 q 286 1095 245 1055 q 397 1135 327 1135 q 508 1095 465 1135 q 551 990 551 1055 m 474 989 q 452 1046 474 1025 q 397 1067 430 1067 q 341 1046 363 1067 q 319 989 319 1025 q 339 931 319 952 q 397 911 359 911 q 453 931 431 911 q 474 989 474 952 z "},"æ":{"ha":1200,"x_min":64,"x_max":1129,"o":"m 64 207 q 403 444 64 433 l 528 449 l 528 496 q 489 618 528 578 q 372 659 451 659 q 164 602 278 659 l 126 693 q 243 739 174 720 q 382 757 312 757 q 525 729 469 757 q 610 637 581 701 q 704 727 646 695 q 838 758 762 758 q 1050 667 971 758 q 1129 425 1129 575 l 1129 350 l 653 350 q 868 90 659 90 q 980 101 928 90 q 1096 142 1032 113 l 1096 35 q 985 -3 1036 8 q 864 -14 933 -14 q 582 143 667 -14 q 459 23 526 59 q 300 -14 392 -14 q 126 44 189 -14 q 64 207 64 102 m 191 205 q 226 114 191 143 q 319 85 261 85 q 470 140 414 85 q 525 297 525 195 l 525 364 l 421 359 q 246 319 301 355 q 191 205 191 283 m 836 659 q 709 604 755 659 q 656 446 663 549 l 1000 446 q 958 604 1000 549 q 836 659 916 659 z "},"ç":{"ha":667,"x_min":77,"x_max":621,"o":"m 416 -14 q 166 85 256 -14 q 77 368 77 184 q 167 657 77 555 q 425 758 258 758 q 533 747 479 758 q 621 718 586 736 l 583 616 q 422 652 489 652 q 256 581 310 652 q 203 370 203 510 q 256 163 203 235 q 415 92 310 92 q 608 135 513 92 l 608 26 q 416 -14 531 -14 m 519 -193 q 468 -297 519 -260 q 314 -334 417 -334 q 245 -326 270 -334 l 245 -250 q 318 -257 269 -257 q 395 -244 369 -257 q 421 -196 421 -231 q 294 -119 421 -136 l 354 0 l 435 0 l 399 -74 q 519 -193 519 -100 z "},"è":{"ha":783,"x_min":77,"x_max":713,"o":"m 435 -14 q 172 88 267 -14 q 77 367 77 189 q 165 652 77 546 q 406 758 254 758 q 629 668 546 758 q 713 422 713 577 l 713 349 l 203 349 q 267 156 206 222 q 440 90 328 90 q 553 101 500 90 q 679 142 607 111 l 679 35 q 563 -3 617 8 q 435 -14 509 -14 m 404 659 q 266 602 317 659 q 205 446 215 546 l 585 446 q 536 604 583 550 q 404 659 490 659 m 491 842 l 409 842 q 297 947 358 882 q 212 1050 237 1012 l 212 1064 l 357 1064 q 419 957 379 1019 q 491 859 459 895 l 491 842 z "},"é":{"ha":783,"x_min":77,"x_max":713,"o":"m 435 -14 q 172 88 267 -14 q 77 367 77 189 q 165 652 77 546 q 406 758 254 758 q 629 668 546 758 q 713 422 713 577 l 713 349 l 203 349 q 267 156 206 222 q 440 90 328 90 q 553 101 500 90 q 679 142 607 111 l 679 35 q 563 -3 617 8 q 435 -14 509 -14 m 404 659 q 266 602 317 659 q 205 446 215 546 l 585 446 q 536 604 583 550 q 404 659 490 659 m 317 859 q 382 951 342 891 q 449 1064 422 1011 l 596 1064 l 596 1050 q 503 941 566 1006 q 397 842 440 875 l 317 842 l 317 859 z "},"ê":{"ha":783,"x_min":77,"x_max":713,"o":"m 435 -14 q 172 88 267 -14 q 77 367 77 189 q 165 652 77 546 q 406 758 254 758 q 629 668 546 758 q 713 422 713 577 l 713 349 l 203 349 q 267 156 206 222 q 440 90 328 90 q 553 101 500 90 q 679 142 607 111 l 679 35 q 563 -3 617 8 q 435 -14 509 -14 m 404 659 q 266 602 317 659 q 205 446 215 546 l 585 446 q 536 604 583 550 q 404 659 490 659 m 172 857 q 291 991 256 948 q 342 1064 326 1035 l 467 1064 q 641 857 503 996 l 641 842 l 555 842 q 404 966 494 878 q 255 842 315 880 l 172 842 l 172 857 z "},"ë":{"ha":783,"x_min":77,"x_max":713,"o":"m 435 -14 q 172 88 267 -14 q 77 367 77 189 q 165 652 77 546 q 406 758 254 758 q 629 668 546 758 q 713 422 713 577 l 713 349 l 203 349 q 267 156 206 222 q 440 90 328 90 q 553 101 500 90 q 679 142 607 111 l 679 35 q 563 -3 617 8 q 435 -14 509 -14 m 404 659 q 266 602 317 659 q 205 446 215 546 l 585 446 q 536 604 583 550 q 404 659 490 659 m 214 946 q 233 998 214 982 q 279 1014 252 1014 q 325 998 305 1014 q 345 946 345 982 q 325 893 345 910 q 279 876 305 876 q 233 893 252 876 q 214 946 214 910 m 475 946 q 494 998 475 982 q 538 1014 513 1014 q 585 998 565 1014 q 604 946 604 982 q 585 893 604 910 q 538 876 565 876 q 494 893 513 876 q 475 946 475 910 z "},"ì":{"ha":358,"x_min":-30,"x_max":250,"o":"m 240 0 l 118 0 l 118 745 l 240 745 l 240 0 m 250 842 l 168 842 q 56 947 117 882 q -30 1050 -5 1012 l -30 1064 l 116 1064 q 178 957 138 1019 q 250 859 218 895 l 250 842 z "},"í":{"ha":358,"x_min":113,"x_max":393,"o":"m 240 0 l 118 0 l 118 745 l 240 745 l 240 0 m 113 859 q 179 951 139 891 q 245 1064 218 1011 l 393 1064 l 393 1050 q 300 941 363 1006 q 194 842 237 875 l 113 842 l 113 859 z "},"î":{"ha":358,"x_min":-55,"x_max":414,"o":"m 240 0 l 118 0 l 118 745 l 240 745 l 240 0 m -55 857 q 65 991 30 948 q 116 1064 100 1035 l 241 1064 q 414 857 276 996 l 414 842 l 328 842 q 177 966 267 878 q 28 842 88 880 l -55 842 l -55 857 z "},"ï":{"ha":358,"x_min":-15,"x_max":376,"o":"m 240 0 l 118 0 l 118 745 l 240 745 l 240 0 m -15 946 q 4 998 -15 982 q 50 1014 23 1014 q 96 998 77 1014 q 116 946 116 982 q 96 893 116 910 q 50 876 77 876 q 4 893 23 876 q -15 946 -15 910 m 246 946 q 265 998 246 982 q 310 1014 284 1014 q 356 998 336 1014 q 376 946 376 982 q 356 893 376 910 q 310 876 336 876 q 265 893 284 876 q 246 946 246 910 z "},"ð":{"ha":840,"x_min":77,"x_max":765,"o":"m 765 382 q 675 89 765 191 q 418 -14 585 -14 q 171 78 265 -14 q 77 323 77 170 q 164 568 77 479 q 403 657 252 657 q 619 576 555 657 l 625 579 q 453 844 585 724 l 272 741 l 220 817 l 375 905 q 250 979 317 945 l 300 1063 q 475 962 406 1013 l 635 1055 l 688 981 l 550 901 q 709 672 652 806 q 765 382 765 538 m 642 349 q 582 502 642 446 q 421 558 523 558 q 254 499 309 558 q 200 319 200 441 q 257 147 200 208 q 421 86 314 86 q 589 153 536 86 q 642 349 642 220 z "},"ñ":{"ha":859,"x_min":118,"x_max":746,"o":"m 625 0 l 625 476 q 585 611 625 567 q 458 656 545 656 q 292 592 344 656 q 240 386 240 529 l 240 0 l 118 0 l 118 745 l 216 745 l 235 643 l 241 643 q 338 728 276 698 q 476 758 401 758 q 680 692 613 758 q 746 485 746 625 l 746 0 l 625 0 m 544 843 q 487 856 515 843 q 432 883 459 868 q 381 910 406 897 q 333 922 356 922 q 283 902 300 922 q 256 842 266 882 l 186 842 q 233 972 194 924 q 338 1019 273 1019 q 398 1007 369 1019 q 453 980 427 994 q 504 952 479 965 q 550 940 528 940 q 599 960 583 940 q 626 1021 616 980 l 696 1021 q 648 891 688 940 q 544 843 609 843 z "},"ò":{"ha":840,"x_min":77,"x_max":765,"o":"m 765 374 q 673 89 765 191 q 418 -14 581 -14 q 239 34 317 -14 q 119 169 161 81 q 77 374 77 257 q 168 657 77 555 q 422 758 258 758 q 672 655 580 758 q 765 374 765 551 m 203 374 q 258 160 203 233 q 421 87 313 87 q 583 160 528 87 q 639 374 639 233 q 583 585 639 514 q 419 656 527 656 q 203 374 203 656 m 509 842 l 427 842 q 316 947 376 882 q 230 1050 255 1012 l 230 1064 l 376 1064 q 437 957 397 1019 q 509 859 477 895 l 509 842 z "},"ó":{"ha":840,"x_min":77,"x_max":765,"o":"m 765 374 q 673 89 765 191 q 418 -14 581 -14 q 239 34 317 -14 q 119 169 161 81 q 77 374 77 257 q 168 657 77 555 q 422 758 258 758 q 672 655 580 758 q 765 374 765 551 m 203 374 q 258 160 203 233 q 421 87 313 87 q 583 160 528 87 q 639 374 639 233 q 583 585 639 514 q 419 656 527 656 q 203 374 203 656 m 323 859 q 389 951 349 891 q 456 1064 429 1011 l 603 1064 l 603 1050 q 510 941 573 1006 q 404 842 447 875 l 323 842 l 323 859 z "},"ô":{"ha":840,"x_min":77,"x_max":765,"o":"m 765 374 q 673 89 765 191 q 418 -14 581 -14 q 239 34 317 -14 q 119 169 161 81 q 77 374 77 257 q 168 657 77 555 q 422 758 258 758 q 672 655 580 758 q 765 374 765 551 m 203 374 q 258 160 203 233 q 421 87 313 87 q 583 160 528 87 q 639 374 639 233 q 583 585 639 514 q 419 656 527 656 q 203 374 203 656 m 184 857 q 304 991 269 948 q 355 1064 339 1035 l 480 1064 q 654 857 515 996 l 654 842 l 568 842 q 416 966 507 878 q 268 842 328 880 l 184 842 l 184 857 z "},"õ":{"ha":840,"x_min":77,"x_max":765,"o":"m 765 374 q 673 89 765 191 q 418 -14 581 -14 q 239 34 317 -14 q 119 169 161 81 q 77 374 77 257 q 168 657 77 555 q 422 758 258 758 q 672 655 580 758 q 765 374 765 551 m 203 374 q 258 160 203 233 q 421 87 313 87 q 583 160 528 87 q 639 374 639 233 q 583 585 639 514 q 419 656 527 656 q 203 374 203 656 m 526 843 q 469 856 496 843 q 414 883 441 868 q 362 910 387 897 q 315 922 338 922 q 264 902 281 922 q 238 842 248 882 l 168 842 q 215 972 176 924 q 320 1019 254 1019 q 379 1007 351 1019 q 435 980 408 994 q 486 952 461 965 q 532 940 510 940 q 581 960 564 940 q 608 1021 597 980 l 677 1021 q 630 891 669 940 q 526 843 591 843 z "},"ö":{"ha":840,"x_min":77,"x_max":765,"o":"m 765 374 q 673 89 765 191 q 418 -14 581 -14 q 239 34 317 -14 q 119 169 161 81 q 77 374 77 257 q 168 657 77 555 q 422 758 258 758 q 672 655 580 758 q 765 374 765 551 m 203 374 q 258 160 203 233 q 421 87 313 87 q 583 160 528 87 q 639 374 639 233 q 583 585 639 514 q 419 656 527 656 q 203 374 203 656 m 224 946 q 243 998 224 982 q 289 1014 262 1014 q 335 998 315 1014 q 355 946 355 982 q 335 893 355 910 q 289 876 315 876 q 243 893 262 876 q 224 946 224 910 m 485 946 q 504 998 485 982 q 549 1014 523 1014 q 595 998 575 1014 q 614 946 614 982 q 595 893 614 910 q 549 876 575 876 q 504 893 523 876 q 485 946 485 910 z "},"ø":{"ha":840,"x_min":77,"x_max":765,"o":"m 765 374 q 673 89 765 191 q 418 -14 581 -14 q 239 32 315 -14 l 183 -46 l 103 8 l 165 94 q 77 374 77 200 q 168 657 77 555 q 422 758 258 758 q 604 708 525 758 l 659 786 l 741 733 l 677 646 q 765 374 765 541 m 203 374 q 236 196 203 261 l 542 621 q 419 656 492 656 q 203 374 203 656 m 639 374 q 607 545 639 477 l 301 119 q 421 87 348 87 q 583 160 528 87 q 639 374 639 233 z "},"ù":{"ha":859,"x_min":110,"x_max":741,"o":"m 233 745 l 233 265 q 274 131 233 175 q 399 87 314 87 q 566 151 513 87 q 618 357 618 215 l 618 745 l 741 745 l 741 0 l 640 0 l 623 98 l 616 98 q 522 16 583 45 q 380 -14 461 -14 q 178 51 246 -14 q 110 257 110 115 l 110 745 l 233 745 m 500 842 l 418 842 q 306 947 367 882 q 220 1050 245 1012 l 220 1064 l 366 1064 q 428 957 388 1019 q 500 859 468 895 l 500 842 z "},"ú":{"ha":859,"x_min":110,"x_max":741,"o":"m 233 745 l 233 265 q 274 131 233 175 q 399 87 314 87 q 566 151 513 87 q 618 357 618 215 l 618 745 l 741 745 l 741 0 l 640 0 l 623 98 l 616 98 q 522 16 583 45 q 380 -14 461 -14 q 178 51 246 -14 q 110 257 110 115 l 110 745 l 233 745 m 342 859 q 407 951 368 891 q 474 1064 447 1011 l 621 1064 l 621 1050 q 528 941 591 1006 q 422 842 465 875 l 342 842 l 342 859 z "},"û":{"ha":859,"x_min":110,"x_max":741,"o":"m 233 745 l 233 265 q 274 131 233 175 q 399 87 314 87 q 566 151 513 87 q 618 357 618 215 l 618 745 l 741 745 l 741 0 l 640 0 l 623 98 l 616 98 q 522 16 583 45 q 380 -14 461 -14 q 178 51 246 -14 q 110 257 110 115 l 110 745 l 233 745 m 190 857 q 310 991 275 948 q 361 1064 345 1035 l 486 1064 q 659 857 521 996 l 659 842 l 573 842 q 422 966 512 878 q 273 842 333 880 l 190 842 l 190 857 z "},"ü":{"ha":859,"x_min":110,"x_max":741,"o":"m 233 745 l 233 265 q 274 131 233 175 q 399 87 314 87 q 566 151 513 87 q 618 357 618 215 l 618 745 l 741 745 l 741 0 l 640 0 l 623 98 l 616 98 q 522 16 583 45 q 380 -14 461 -14 q 178 51 246 -14 q 110 257 110 115 l 110 745 l 233 745 m 229 946 q 248 998 229 982 q 294 1014 267 1014 q 340 998 321 1014 q 360 946 360 982 q 340 893 360 910 q 294 876 321 876 q 248 893 267 876 q 229 946 229 910 m 490 946 q 509 998 490 982 q 554 1014 528 1014 q 600 998 581 1014 q 620 946 620 982 q 600 893 620 910 q 554 876 581 876 q 509 893 528 876 q 490 946 490 910 z "},"ý":{"ha":708,"x_min":1,"x_max":708,"o":"m 1 745 l 132 745 l 293 321 q 355 118 344 182 l 361 118 q 389 212 367 143 q 425 322 410 281 l 576 745 l 708 745 l 387 -103 q 276 -280 340 -227 q 117 -334 212 -334 q 16 -322 66 -334 l 16 -225 q 97 -233 50 -233 q 196 -201 155 -233 q 262 -102 237 -169 l 301 -3 l 1 745 m 278 859 q 343 951 304 891 q 410 1064 383 1011 l 557 1064 l 557 1050 q 465 941 528 1006 q 359 842 401 875 l 278 842 l 278 859 z "},"þ":{"ha":854,"x_min":118,"x_max":778,"o":"m 241 644 q 343 732 287 706 q 472 758 400 758 q 697 657 616 758 q 778 374 778 555 q 697 89 778 191 q 472 -14 616 -14 q 240 94 321 -14 l 232 94 q 240 -22 240 5 l 240 -334 l 118 -334 l 118 1055 l 240 1055 l 240 745 q 236 644 240 697 l 241 644 m 452 656 q 292 595 342 656 q 240 400 241 534 l 240 374 q 290 155 240 222 q 453 87 340 87 q 652 375 652 87 q 603 586 652 516 q 452 656 555 656 z "},"ÿ":{"ha":708,"x_min":1,"x_max":708,"o":"m 1 745 l 132 745 l 293 321 q 355 118 344 182 l 361 118 q 389 212 367 143 q 425 322 410 281 l 576 745 l 708 745 l 387 -103 q 276 -280 340 -227 q 117 -334 212 -334 q 16 -322 66 -334 l 16 -225 q 97 -233 50 -233 q 196 -201 155 -233 q 262 -102 237 -169 l 301 -3 l 1 745 m 159 946 q 178 998 159 982 q 224 1014 197 1014 q 270 998 250 1014 q 290 946 290 982 q 270 893 290 910 q 224 876 250 876 q 178 893 197 876 q 159 946 159 910 m 420 946 q 439 998 420 982 q 484 1014 458 1014 q 530 998 510 1014 q 549 946 549 982 q 530 893 549 910 q 484 876 510 876 q 439 893 458 876 q 420 946 420 910 z "},"Ā":{"ha":888,"x_min":0,"x_max":886,"o":"m 757 0 l 637 307 l 244 307 l 126 0 l 0 0 l 387 996 l 500 996 l 886 0 l 757 0 m 600 418 l 489 718 l 441 867 q 399 718 421 785 l 286 418 l 600 418 m 248 1169 l 660 1169 l 660 1071 l 248 1071 l 248 1169 z "},"ā":{"ha":779,"x_min":64,"x_max":667,"o":"m 578 0 l 554 106 l 549 106 q 438 11 493 36 q 298 -14 382 -14 q 126 44 189 -14 q 64 207 64 102 q 421 444 64 433 l 547 449 l 547 493 q 511 618 547 578 q 393 659 474 659 q 282 641 334 659 q 183 602 229 623 l 146 693 q 269 740 202 723 q 400 757 335 757 q 601 697 535 757 q 667 507 667 637 l 667 0 l 578 0 m 326 85 q 487 140 429 85 q 546 297 546 195 l 546 364 l 436 359 q 249 319 308 355 q 191 205 191 283 q 226 116 191 147 q 326 85 262 85 m 198 940 l 610 940 l 610 842 l 198 842 l 198 940 z "},"Ă":{"ha":888,"x_min":0,"x_max":886,"o":"m 757 0 l 637 307 l 244 307 l 126 0 l 0 0 l 387 996 l 500 996 l 886 0 l 757 0 m 600 418 l 489 718 l 441 867 q 399 718 421 785 l 286 418 l 600 418 m 439 1071 q 288 1118 343 1071 q 227 1257 233 1164 l 301 1257 q 335 1189 307 1209 q 441 1169 363 1169 q 543 1191 510 1169 q 582 1257 576 1212 l 659 1257 q 591 1120 650 1168 q 439 1071 533 1071 z "},"ă":{"ha":779,"x_min":64,"x_max":667,"o":"m 578 0 l 554 106 l 549 106 q 438 11 493 36 q 298 -14 382 -14 q 126 44 189 -14 q 64 207 64 102 q 421 444 64 433 l 547 449 l 547 493 q 511 618 547 578 q 393 659 474 659 q 282 641 334 659 q 183 602 229 623 l 146 693 q 269 740 202 723 q 400 757 335 757 q 601 697 535 757 q 667 507 667 637 l 667 0 l 578 0 m 326 85 q 487 140 429 85 q 546 297 546 195 l 546 364 l 436 359 q 249 319 308 355 q 191 205 191 283 q 226 116 191 147 q 326 85 262 85 m 391 842 q 240 888 295 842 q 178 1028 184 935 l 253 1028 q 287 960 258 980 q 393 940 315 940 q 495 961 462 940 q 534 1028 528 983 l 610 1028 q 543 890 602 939 q 391 842 485 842 z "},"Ą":{"ha":888,"x_min":0,"x_max":886,"o":"m 757 0 l 637 307 l 244 307 l 126 0 l 0 0 l 387 996 l 500 996 l 886 0 l 757 0 m 600 418 l 489 718 l 441 867 q 399 718 421 785 l 286 418 l 600 418 m 750 -161 q 767 -208 750 -193 q 812 -224 783 -224 q 880 -215 842 -224 l 880 -293 q 793 -306 833 -306 q 650 -175 650 -306 q 759 0 650 -81 l 845 0 q 774 -82 798 -45 q 750 -161 750 -119 z "},"ą":{"ha":779,"x_min":64,"x_max":699,"o":"m 578 0 l 554 106 l 549 106 q 438 11 493 36 q 298 -14 382 -14 q 126 44 189 -14 q 64 207 64 102 q 421 444 64 433 l 547 449 l 547 493 q 511 618 547 578 q 393 659 474 659 q 282 641 334 659 q 183 602 229 623 l 146 693 q 269 740 202 723 q 400 757 335 757 q 601 697 535 757 q 667 507 667 637 l 667 0 l 578 0 m 326 85 q 487 140 429 85 q 546 297 546 195 l 546 364 l 436 359 q 249 319 308 355 q 191 205 191 283 q 226 116 191 147 q 326 85 262 85 m 569 -161 q 586 -208 569 -193 q 631 -224 602 -224 q 699 -215 661 -224 l 699 -293 q 612 -306 652 -306 q 469 -175 469 -306 q 578 0 469 -81 l 664 0 q 593 -82 616 -45 q 569 -161 569 -119 z "},"Ć":{"ha":878,"x_min":85,"x_max":835,"o":"m 559 896 q 308 789 399 896 q 216 496 216 682 q 305 200 216 304 q 558 96 394 96 q 796 135 664 96 l 796 26 q 675 -5 733 3 q 541 -14 616 -14 q 203 120 321 -14 q 85 497 85 253 q 141 766 85 650 q 306 943 198 881 q 561 1006 414 1006 q 835 947 718 1006 l 785 842 q 559 896 666 896 m 441 1088 q 507 1180 467 1120 q 574 1293 547 1240 l 721 1293 l 721 1279 q 628 1170 691 1236 q 522 1071 565 1104 l 441 1071 l 441 1088 z "},"ć":{"ha":667,"x_min":77,"x_max":621,"o":"m 416 -14 q 166 85 256 -14 q 77 368 77 184 q 167 657 77 555 q 425 758 258 758 q 533 747 479 758 q 621 718 586 736 l 583 616 q 422 652 489 652 q 256 581 310 652 q 203 370 203 510 q 256 163 203 235 q 415 92 310 92 q 608 135 513 92 l 608 26 q 416 -14 531 -14 m 311 859 q 377 951 337 891 q 444 1064 416 1011 l 591 1064 l 591 1050 q 498 941 561 1006 q 392 842 435 875 l 311 842 l 311 859 z "},"Ĉ":{"ha":878,"x_min":85,"x_max":835,"o":"m 559 896 q 308 789 399 896 q 216 496 216 682 q 305 200 216 304 q 558 96 394 96 q 796 135 664 96 l 796 26 q 675 -5 733 3 q 541 -14 616 -14 q 203 120 321 -14 q 85 497 85 253 q 141 766 85 650 q 306 943 198 881 q 561 1006 414 1006 q 835 947 718 1006 l 785 842 q 559 896 666 896 m 305 1086 q 425 1221 390 1177 q 476 1293 460 1264 l 601 1293 q 774 1086 636 1225 l 774 1071 l 688 1071 q 537 1196 627 1107 q 389 1071 448 1109 l 305 1071 l 305 1086 z "},"ĉ":{"ha":667,"x_min":77,"x_max":633,"o":"m 416 -14 q 166 85 256 -14 q 77 368 77 184 q 167 657 77 555 q 425 758 258 758 q 533 747 479 758 q 621 718 586 736 l 583 616 q 422 652 489 652 q 256 581 310 652 q 203 370 203 510 q 256 163 203 235 q 415 92 310 92 q 608 135 513 92 l 608 26 q 416 -14 531 -14 m 163 857 q 283 991 248 948 q 334 1064 318 1035 l 459 1064 q 633 857 494 996 l 633 842 l 547 842 q 395 966 486 878 q 247 842 307 880 l 163 842 l 163 857 z "},"Ċ":{"ha":878,"x_min":85,"x_max":835,"o":"m 559 896 q 308 789 399 896 q 216 496 216 682 q 305 200 216 304 q 558 96 394 96 q 796 135 664 96 l 796 26 q 675 -5 733 3 q 541 -14 616 -14 q 203 120 321 -14 q 85 497 85 253 q 141 766 85 650 q 306 943 198 881 q 561 1006 414 1006 q 835 947 718 1006 l 785 842 q 559 896 666 896 m 468 1175 q 489 1234 468 1216 q 540 1253 509 1253 q 590 1234 568 1253 q 611 1175 611 1216 q 590 1116 611 1135 q 540 1097 568 1097 q 489 1116 509 1097 q 468 1175 468 1135 z "},"ċ":{"ha":667,"x_min":77,"x_max":621,"o":"m 416 -14 q 166 85 256 -14 q 77 368 77 184 q 167 657 77 555 q 425 758 258 758 q 533 747 479 758 q 621 718 586 736 l 583 616 q 422 652 489 652 q 256 581 310 652 q 203 370 203 510 q 256 163 203 235 q 415 92 310 92 q 608 135 513 92 l 608 26 q 416 -14 531 -14 m 335 946 q 356 1005 335 987 q 407 1023 376 1023 q 457 1005 435 1023 q 478 946 478 987 q 457 887 478 906 q 407 868 435 868 q 356 887 376 868 q 335 946 335 906 z "},"Č":{"ha":878,"x_min":85,"x_max":835,"o":"m 559 896 q 308 789 399 896 q 216 496 216 682 q 305 200 216 304 q 558 96 394 96 q 796 135 664 96 l 796 26 q 675 -5 733 3 q 541 -14 616 -14 q 203 120 321 -14 q 85 497 85 253 q 141 766 85 650 q 306 943 198 881 q 561 1006 414 1006 q 835 947 718 1006 l 785 842 q 559 896 666 896 m 305 1293 l 389 1293 q 537 1165 466 1243 q 688 1293 623 1251 l 774 1293 l 774 1275 q 601 1071 635 1136 l 476 1071 q 305 1275 435 1140 l 305 1293 z "},"č":{"ha":667,"x_min":77,"x_max":638,"o":"m 416 -14 q 166 85 256 -14 q 77 368 77 184 q 167 657 77 555 q 425 758 258 758 q 533 747 479 758 q 621 718 586 736 l 583 616 q 422 652 489 652 q 256 581 310 652 q 203 370 203 510 q 256 163 203 235 q 415 92 310 92 q 608 135 513 92 l 608 26 q 416 -14 531 -14 m 169 1064 l 252 1064 q 401 936 330 1014 q 552 1064 486 1021 l 638 1064 l 638 1046 q 465 842 499 907 l 340 842 q 169 1046 299 911 l 169 1064 z "},"Ď":{"ha":1014,"x_min":135,"x_max":929,"o":"m 929 505 q 795 130 929 260 q 411 0 661 0 l 135 0 l 135 991 l 440 991 q 800 864 671 991 q 929 505 929 737 m 798 501 q 704 788 798 690 q 422 885 611 885 l 260 885 l 260 107 l 395 107 q 798 501 798 107 m 236 1293 l 319 1293 q 468 1165 397 1243 q 619 1293 553 1251 l 705 1293 l 705 1275 q 532 1071 566 1136 l 407 1071 q 236 1275 366 1140 l 236 1293 z "},"ď":{"ha":854,"x_min":77,"x_max":965,"o":"m 382 -14 q 157 87 237 -14 q 77 371 77 187 q 157 656 77 553 q 383 758 237 758 q 614 648 533 758 l 623 648 q 617 703 621 662 q 614 758 614 744 l 614 1055 l 736 1055 l 736 0 l 637 0 l 619 100 l 614 100 q 382 -14 536 -14 m 401 87 q 564 148 513 87 q 615 347 615 209 l 615 370 q 563 591 615 525 q 400 657 511 657 q 254 582 306 657 q 203 368 203 507 q 254 159 203 230 q 401 87 305 87 m 798 850 q 827 958 814 895 q 844 1055 840 1021 l 965 1055 l 965 1043 q 927 945 956 1007 q 865 833 898 882 l 798 833 l 798 850 z "},"Đ":{"ha":1014,"x_min":41,"x_max":929,"o":"m 929 505 q 796 131 929 262 q 410 0 663 0 l 144 0 l 144 436 l 41 436 l 41 545 l 144 545 l 144 991 l 440 991 q 800 864 671 991 q 929 505 929 736 m 798 501 q 703 788 798 691 q 422 885 609 885 l 269 885 l 269 545 l 517 545 l 517 436 l 269 436 l 269 107 l 395 107 q 798 501 798 107 z "},"đ":{"ha":857,"x_min":77,"x_max":842,"o":"m 382 -14 q 157 86 237 -14 q 77 368 77 186 q 156 653 77 552 q 382 754 236 754 q 614 644 533 754 l 623 644 q 617 691 621 654 q 614 755 614 728 l 614 840 l 318 840 l 318 932 l 614 932 l 614 1055 l 736 1055 l 736 932 l 842 932 l 842 840 l 736 840 l 736 0 l 636 0 l 618 100 l 612 100 q 382 -14 534 -14 m 403 87 q 564 148 513 87 q 615 345 615 208 l 615 368 q 564 589 615 524 q 400 653 512 653 q 255 581 305 653 q 204 367 204 508 q 253 160 204 233 q 403 87 302 87 z "},"Ē":{"ha":772,"x_min":135,"x_max":689,"o":"m 689 0 l 135 0 l 135 991 l 689 991 l 689 882 l 260 882 l 260 572 l 664 572 l 664 464 l 260 464 l 260 110 l 689 110 l 689 0 m 205 1169 l 618 1169 l 618 1071 l 205 1071 l 205 1169 z "},"ē":{"ha":783,"x_min":77,"x_max":713,"o":"m 435 -14 q 172 88 267 -14 q 77 367 77 189 q 165 652 77 546 q 406 758 254 758 q 629 668 546 758 q 713 422 713 577 l 713 349 l 203 349 q 267 156 206 222 q 440 90 328 90 q 553 101 500 90 q 679 142 607 111 l 679 35 q 563 -3 617 8 q 435 -14 509 -14 m 404 659 q 266 602 317 659 q 205 446 215 546 l 585 446 q 536 604 583 550 q 404 659 490 659 m 208 940 l 621 940 l 621 842 l 208 842 l 208 940 z "},"Ĕ":{"ha":772,"x_min":135,"x_max":689,"o":"m 689 0 l 135 0 l 135 991 l 689 991 l 689 882 l 260 882 l 260 572 l 664 572 l 664 464 l 260 464 l 260 110 l 689 110 l 689 0 m 415 1071 q 264 1118 319 1071 q 203 1257 209 1164 l 277 1257 q 311 1189 283 1209 q 418 1169 340 1169 q 519 1191 486 1169 q 558 1257 553 1212 l 635 1257 q 568 1120 626 1168 q 415 1071 509 1071 z "},"ĕ":{"ha":783,"x_min":77,"x_max":713,"o":"m 435 -14 q 172 88 267 -14 q 77 367 77 189 q 165 652 77 546 q 406 758 254 758 q 629 668 546 758 q 713 422 713 577 l 713 349 l 203 349 q 267 156 206 222 q 440 90 328 90 q 553 101 500 90 q 679 142 607 111 l 679 35 q 563 -3 617 8 q 435 -14 509 -14 m 404 659 q 266 602 317 659 q 205 446 215 546 l 585 446 q 536 604 583 550 q 404 659 490 659 m 405 842 q 254 888 309 842 q 193 1028 199 935 l 267 1028 q 301 960 273 980 q 408 940 330 940 q 509 961 476 940 q 548 1028 543 983 l 625 1028 q 557 890 616 939 q 405 842 499 842 z "},"Ė":{"ha":772,"x_min":135,"x_max":689,"o":"m 689 0 l 135 0 l 135 991 l 689 991 l 689 882 l 260 882 l 260 572 l 664 572 l 664 464 l 260 464 l 260 110 l 689 110 l 689 0 m 351 1156 q 372 1215 351 1196 q 423 1233 393 1233 q 473 1215 452 1233 q 494 1156 494 1196 q 473 1097 494 1116 q 423 1078 452 1078 q 372 1097 393 1078 q 351 1156 351 1116 z "},"ė":{"ha":783,"x_min":77,"x_max":713,"o":"m 435 -14 q 172 88 267 -14 q 77 367 77 189 q 165 652 77 546 q 406 758 254 758 q 629 668 546 758 q 713 422 713 577 l 713 349 l 203 349 q 267 156 206 222 q 440 90 328 90 q 553 101 500 90 q 679 142 607 111 l 679 35 q 563 -3 617 8 q 435 -14 509 -14 m 404 659 q 266 602 317 659 q 205 446 215 546 l 585 446 q 536 604 583 550 q 404 659 490 659 m 338 946 q 358 1005 338 987 q 410 1023 379 1023 q 459 1005 438 1023 q 481 946 481 987 q 459 887 481 906 q 410 868 438 868 q 358 887 379 868 q 338 946 338 906 z "},"Ę":{"ha":772,"x_min":135,"x_max":689,"o":"m 689 0 l 135 0 l 135 991 l 689 991 l 689 882 l 260 882 l 260 572 l 664 572 l 664 464 l 260 464 l 260 110 l 689 110 l 689 0 m 545 -161 q 561 -208 545 -193 q 607 -224 578 -224 q 674 -215 637 -224 l 674 -293 q 588 -306 627 -306 q 445 -175 445 -306 q 553 0 445 -81 l 640 0 q 568 -82 592 -45 q 545 -161 545 -119 z "},"ę":{"ha":783,"x_min":77,"x_max":713,"o":"m 435 -14 q 172 88 267 -14 q 77 367 77 189 q 165 652 77 546 q 406 758 254 758 q 629 668 546 758 q 713 422 713 577 l 713 349 l 203 349 q 267 156 206 222 q 440 90 328 90 q 553 101 500 90 q 679 142 607 111 l 679 35 q 563 -3 617 8 q 435 -14 509 -14 m 404 659 q 266 602 317 659 q 205 446 215 546 l 585 446 q 536 604 583 550 q 404 659 490 659 m 537 -142 q 554 -189 537 -173 q 600 -204 570 -204 q 667 -195 629 -204 l 667 -273 q 581 -286 620 -286 q 437 -155 437 -286 q 546 20 437 -61 l 632 20 q 561 -62 585 -25 q 537 -142 537 -99 z "},"Ě":{"ha":772,"x_min":135,"x_max":689,"o":"m 689 0 l 135 0 l 135 991 l 689 991 l 689 882 l 260 882 l 260 572 l 664 572 l 664 464 l 260 464 l 260 110 l 689 110 l 689 0 m 184 1293 l 268 1293 q 416 1165 345 1243 q 568 1293 502 1251 l 654 1293 l 654 1275 q 480 1071 515 1136 l 355 1071 q 184 1275 315 1140 l 184 1293 z "},"ě":{"ha":783,"x_min":77,"x_max":713,"o":"m 435 -14 q 172 88 267 -14 q 77 367 77 189 q 165 652 77 546 q 406 758 254 758 q 629 668 546 758 q 713 422 713 577 l 713 349 l 203 349 q 267 156 206 222 q 440 90 328 90 q 553 101 500 90 q 679 142 607 111 l 679 35 q 563 -3 617 8 q 435 -14 509 -14 m 404 659 q 266 602 317 659 q 205 446 215 546 l 585 446 q 536 604 583 550 q 404 659 490 659 m 174 1064 l 258 1064 q 406 936 335 1014 q 557 1064 492 1021 l 644 1064 l 644 1046 q 470 842 505 907 l 345 842 q 174 1046 304 911 l 174 1064 z "},"Ĝ":{"ha":1011,"x_min":85,"x_max":908,"o":"m 566 524 l 908 524 l 908 37 q 748 -1 829 12 q 559 -14 667 -14 q 209 121 333 -14 q 85 496 85 255 q 146 767 85 651 q 325 944 208 883 q 599 1006 441 1006 q 895 947 758 1006 l 847 839 q 591 896 716 896 q 315 789 414 896 q 215 496 215 682 q 311 197 215 299 q 589 94 406 94 q 783 118 688 94 l 783 412 l 566 412 l 566 524 m 345 1086 q 464 1221 429 1177 q 515 1293 499 1264 l 640 1293 q 814 1086 675 1225 l 814 1071 l 728 1071 q 576 1196 667 1107 q 428 1071 488 1109 l 345 1071 l 345 1086 z "},"ĝ":{"ha":854,"x_min":77,"x_max":736,"o":"m 401 86 q 565 147 514 86 q 616 342 616 208 l 616 371 q 565 588 616 520 q 399 656 513 656 q 254 582 305 656 q 203 370 203 507 q 253 159 203 231 q 401 86 302 86 m 615 7 l 619 98 l 614 98 q 383 -14 538 -14 q 158 87 239 -14 q 77 371 77 188 q 158 654 77 551 q 382 758 240 758 q 615 646 533 758 l 623 646 l 639 745 l 736 745 l 736 -12 q 655 -253 736 -172 q 403 -334 574 -334 q 135 -286 240 -334 l 135 -174 q 410 -232 243 -232 q 560 -176 505 -232 q 615 -22 615 -121 l 615 7 m 183 857 q 303 991 268 948 q 354 1064 338 1035 l 479 1064 q 652 857 514 996 l 652 842 l 566 842 q 415 966 505 878 q 267 842 326 880 l 183 842 l 183 857 z "},"Ğ":{"ha":1011,"x_min":85,"x_max":908,"o":"m 566 524 l 908 524 l 908 37 q 748 -1 829 12 q 559 -14 667 -14 q 209 121 333 -14 q 85 496 85 255 q 146 767 85 651 q 325 944 208 883 q 599 1006 441 1006 q 895 947 758 1006 l 847 839 q 591 896 716 896 q 315 789 414 896 q 215 496 215 682 q 311 197 215 299 q 589 94 406 94 q 783 118 688 94 l 783 412 l 566 412 l 566 524 m 575 1071 q 424 1118 479 1071 q 363 1257 369 1164 l 437 1257 q 471 1189 443 1209 q 578 1169 500 1169 q 680 1191 646 1169 q 718 1257 713 1212 l 795 1257 q 728 1120 786 1168 q 575 1071 669 1071 z "},"ğ":{"ha":854,"x_min":77,"x_max":736,"o":"m 401 86 q 565 147 514 86 q 616 342 616 208 l 616 371 q 565 588 616 520 q 399 656 513 656 q 254 582 305 656 q 203 370 203 507 q 253 159 203 231 q 401 86 302 86 m 615 7 l 619 98 l 614 98 q 383 -14 538 -14 q 158 87 239 -14 q 77 371 77 188 q 158 654 77 551 q 382 758 240 758 q 615 646 533 758 l 623 646 l 639 745 l 736 745 l 736 -12 q 655 -253 736 -172 q 403 -334 574 -334 q 135 -286 240 -334 l 135 -174 q 410 -232 243 -232 q 560 -176 505 -232 q 615 -22 615 -121 l 615 7 m 416 842 q 266 888 321 842 q 204 1028 210 935 l 279 1028 q 313 960 284 980 q 419 940 341 940 q 521 961 488 940 q 559 1028 554 983 l 636 1028 q 569 890 627 939 q 416 842 511 842 z "},"Ġ":{"ha":1011,"x_min":85,"x_max":908,"o":"m 566 524 l 908 524 l 908 37 q 748 -1 829 12 q 559 -14 667 -14 q 209 121 333 -14 q 85 496 85 255 q 146 767 85 651 q 325 944 208 883 q 599 1006 441 1006 q 895 947 758 1006 l 847 839 q 591 896 716 896 q 315 789 414 896 q 215 496 215 682 q 311 197 215 299 q 589 94 406 94 q 783 118 688 94 l 783 412 l 566 412 l 566 524 m 515 1175 q 536 1234 515 1216 q 587 1253 557 1253 q 637 1234 616 1253 q 659 1175 659 1216 q 637 1116 659 1135 q 587 1097 616 1097 q 536 1116 557 1097 q 515 1175 515 1135 z "},"ġ":{"ha":854,"x_min":77,"x_max":736,"o":"m 401 86 q 565 147 514 86 q 616 342 616 208 l 616 371 q 565 588 616 520 q 399 656 513 656 q 254 582 305 656 q 203 370 203 507 q 253 159 203 231 q 401 86 302 86 m 615 7 l 619 98 l 614 98 q 383 -14 538 -14 q 158 87 239 -14 q 77 371 77 188 q 158 654 77 551 q 382 758 240 758 q 615 646 533 758 l 623 646 l 639 745 l 736 745 l 736 -12 q 655 -253 736 -172 q 403 -334 574 -334 q 135 -286 240 -334 l 135 -174 q 410 -232 243 -232 q 560 -176 505 -232 q 615 -22 615 -121 l 615 7 m 343 946 q 364 1005 343 987 q 415 1023 385 1023 q 465 1005 444 1023 q 486 946 486 987 q 465 887 486 906 q 415 868 444 868 q 364 887 385 868 q 343 946 343 906 z "},"Ģ":{"ha":1011,"x_min":85,"x_max":908,"o":"m 566 524 l 908 524 l 908 37 q 748 -1 829 12 q 559 -14 667 -14 q 209 121 333 -14 q 85 496 85 255 q 146 767 85 651 q 325 944 208 883 q 599 1006 441 1006 q 895 947 758 1006 l 847 839 q 591 896 716 896 q 315 789 414 896 q 215 496 215 682 q 311 197 215 299 q 589 94 406 94 q 783 118 688 94 l 783 412 l 566 412 l 566 524 m 448 -290 q 481 -193 463 -256 q 505 -85 499 -130 l 625 -85 l 625 -97 q 582 -203 614 -140 q 514 -307 549 -267 l 448 -307 l 448 -290 z "},"ģ":{"ha":854,"x_min":77,"x_max":736,"o":"m 401 86 q 565 147 514 86 q 616 342 616 208 l 616 371 q 565 588 616 520 q 399 656 513 656 q 254 582 305 656 q 203 370 203 507 q 253 159 203 231 q 401 86 302 86 m 615 7 l 619 98 l 614 98 q 383 -14 538 -14 q 158 87 239 -14 q 77 371 77 188 q 158 654 77 551 q 382 758 240 758 q 615 646 533 758 l 623 646 l 639 745 l 736 745 l 736 -12 q 655 -253 736 -172 q 403 -334 574 -334 q 135 -286 240 -334 l 135 -174 q 410 -232 243 -232 q 560 -176 505 -232 q 615 -22 615 -121 l 615 7 m 526 1047 q 490 944 508 1007 q 468 842 473 881 l 347 842 l 347 854 q 391 958 357 892 q 458 1064 425 1023 l 526 1064 l 526 1047 z "},"Ĥ":{"ha":1029,"x_min":135,"x_max":893,"o":"m 893 0 l 768 0 l 768 463 l 260 463 l 260 0 l 135 0 l 135 991 l 260 991 l 260 572 l 768 572 l 768 991 l 893 991 l 893 0 m 278 1086 q 398 1221 363 1177 q 449 1293 433 1264 l 574 1293 q 747 1086 609 1225 l 747 1071 l 661 1071 q 510 1196 600 1107 q 361 1071 421 1109 l 278 1071 l 278 1086 z "},"ĥ":{"ha":859,"x_min":118,"x_max":746,"o":"m 625 0 l 625 476 q 585 611 625 567 q 458 656 545 656 q 293 593 345 656 q 240 385 240 530 l 240 0 l 118 0 l 118 1055 l 240 1055 l 240 746 q 233 642 240 685 l 241 642 q 336 726 275 696 q 473 757 397 757 q 677 692 609 757 q 746 485 746 627 l 746 0 l 625 0 m 199 1124 q 318 1258 283 1215 q 370 1331 353 1301 l 494 1331 q 668 1124 530 1262 l 668 1108 l 582 1108 q 431 1233 521 1144 q 282 1108 342 1146 l 199 1108 l 199 1124 z "},"Ħ":{"ha":1029,"x_min":0,"x_max":1028,"o":"m 135 827 l 135 991 l 260 991 l 260 827 l 768 827 l 768 991 l 893 991 l 893 827 l 1028 827 l 1028 726 l 893 726 l 893 0 l 768 0 l 768 463 l 260 463 l 260 0 l 135 0 l 135 726 l 0 726 l 0 827 l 135 827 m 768 572 l 768 726 l 260 726 l 260 572 l 768 572 z "},"ħ":{"ha":859,"x_min":12,"x_max":746,"o":"m 625 0 l 625 449 q 585 584 625 539 q 458 628 545 628 q 292 565 344 628 q 240 358 240 503 l 240 0 l 118 0 l 118 839 l 12 839 l 12 930 l 118 930 l 118 1055 l 240 1055 l 240 930 l 534 930 l 534 839 l 240 839 l 240 718 q 233 615 240 659 l 241 615 q 339 702 277 673 q 475 730 401 730 q 678 665 610 730 q 746 457 746 600 l 746 0 l 625 0 z "},"Ĩ":{"ha":471,"x_min":-19,"x_max":491,"o":"m 414 0 l 56 0 l 56 72 l 172 98 l 172 892 l 56 920 l 56 991 l 414 991 l 414 920 l 297 892 l 297 98 l 414 72 l 414 0 m 339 1072 q 282 1085 310 1072 q 228 1112 254 1097 q 176 1139 201 1126 q 128 1152 151 1152 q 78 1132 95 1152 q 52 1071 61 1112 l -19 1071 q 28 1201 -11 1154 q 134 1249 68 1249 q 193 1236 164 1249 q 248 1209 222 1223 q 299 1182 275 1194 q 345 1169 323 1169 q 394 1189 378 1169 q 421 1250 411 1209 l 491 1250 q 444 1121 483 1169 q 339 1072 404 1072 z "},"ĩ":{"ha":358,"x_min":-75,"x_max":435,"o":"m 240 0 l 118 0 l 118 745 l 240 745 l 240 0 m 283 843 q 227 856 254 843 q 172 883 199 868 q 120 910 145 897 q 73 922 96 922 q 22 902 39 922 q -4 842 5 882 l -75 842 q -27 972 -66 924 q 78 1019 12 1019 q 137 1007 109 1019 q 193 980 166 994 q 243 952 219 965 q 290 940 268 940 q 339 960 322 940 q 366 1021 355 980 l 435 1021 q 388 891 427 940 q 283 843 349 843 z "},"Ī":{"ha":471,"x_min":30,"x_max":442,"o":"m 414 0 l 56 0 l 56 72 l 172 98 l 172 892 l 56 920 l 56 991 l 414 991 l 414 920 l 297 892 l 297 98 l 414 72 l 414 0 m 30 1169 l 442 1169 l 442 1071 l 30 1071 l 30 1169 z "},"ī":{"ha":358,"x_min":-24,"x_max":388,"o":"m 240 0 l 118 0 l 118 745 l 240 745 l 240 0 m -24 940 l 388 940 l 388 842 l -24 842 l -24 940 z "},"Ĭ":{"ha":471,"x_min":20,"x_max":452,"o":"m 414 0 l 56 0 l 56 72 l 172 98 l 172 892 l 56 920 l 56 991 l 414 991 l 414 920 l 297 892 l 297 98 l 414 72 l 414 0 m 233 1071 q 82 1118 137 1071 q 20 1257 26 1164 l 95 1257 q 129 1189 100 1209 q 235 1169 157 1169 q 337 1191 304 1169 q 376 1257 370 1212 l 452 1257 q 385 1120 444 1168 q 233 1071 327 1071 z "},"ĭ":{"ha":358,"x_min":-37,"x_max":395,"o":"m 240 0 l 118 0 l 118 745 l 240 745 l 240 0 m 176 842 q 25 888 80 842 q -37 1028 -31 935 l 38 1028 q 72 960 43 980 q 178 940 100 940 q 280 961 247 940 q 319 1028 313 983 l 395 1028 q 328 890 387 939 q 176 842 270 842 z "},"Į":{"ha":471,"x_min":56,"x_max":414,"o":"m 414 0 l 56 0 l 56 72 l 172 98 l 172 892 l 56 920 l 56 991 l 414 991 l 414 920 l 297 892 l 297 98 l 414 72 l 414 0 m 222 -161 q 238 -208 222 -193 q 284 -224 255 -224 q 351 -215 314 -224 l 351 -293 q 265 -306 304 -306 q 122 -175 122 -306 q 231 0 122 -81 l 317 0 q 245 -82 269 -45 q 222 -161 222 -119 z "},"į":{"ha":358,"x_min":35,"x_max":264,"o":"m 240 0 l 118 0 l 118 745 l 240 745 l 240 0 m 109 946 q 129 1005 109 987 q 180 1023 150 1023 q 230 1005 209 1023 q 252 946 252 987 q 230 887 252 906 q 180 868 209 868 q 129 887 150 868 q 109 946 109 906 m 134 -161 q 151 -208 134 -193 q 197 -224 168 -224 q 264 -215 227 -224 l 264 -293 q 178 -306 217 -306 q 35 -175 35 -306 q 143 0 35 -81 l 229 0 q 158 -82 182 -45 q 134 -161 134 -119 z "},"İ":{"ha":471,"x_min":56,"x_max":414,"o":"m 414 0 l 56 0 l 56 72 l 172 98 l 172 892 l 56 920 l 56 991 l 414 991 l 414 920 l 297 892 l 297 98 l 414 72 l 414 0 m 163 1175 q 183 1234 163 1216 q 235 1253 204 1253 q 284 1234 263 1253 q 306 1175 306 1216 q 284 1116 306 1135 q 235 1097 263 1097 q 183 1116 204 1097 q 163 1175 163 1135 z "},"ı":{"ha":358,"x_min":118,"x_max":240,"o":"m 240 0 l 118 0 l 118 745 l 240 745 l 240 0 z "},"Ĳ":{"ha":850,"x_min":56,"x_max":724,"o":"m 414 0 l 56 0 l 56 72 l 172 98 l 172 892 l 56 920 l 56 991 l 414 991 l 414 920 l 297 892 l 297 98 l 414 72 l 414 0 m 465 -264 q 362 -245 401 -264 l 362 -140 q 463 -154 410 -154 q 564 -113 530 -154 q 598 5 598 -72 l 598 991 l 724 991 l 724 16 q 657 -191 724 -119 q 465 -264 590 -264 z "},"ĳ":{"ha":714,"x_min":109,"x_max":607,"o":"m 240 0 l 118 0 l 118 745 l 240 745 l 240 0 m 109 946 q 129 1005 109 987 q 180 1023 150 1023 q 230 1005 209 1023 q 252 946 252 987 q 230 887 252 906 q 180 868 209 868 q 129 887 150 868 q 109 946 109 906 m 386 -334 q 279 -317 322 -334 l 279 -218 q 371 -232 326 -232 q 449 -203 424 -232 q 473 -115 473 -174 l 473 745 l 595 745 l 595 -111 q 542 -278 595 -222 q 386 -334 489 -334 m 464 946 q 485 1005 464 987 q 536 1023 505 1023 q 586 1005 564 1023 q 607 946 607 987 q 586 887 607 906 q 536 868 564 868 q 485 887 505 868 q 464 946 464 906 z "},"Ĵ":{"ha":379,"x_min":-109,"x_max":427,"o":"m -5 -264 q -109 -245 -69 -264 l -109 -140 q -8 -154 -60 -154 q 94 -113 60 -154 q 127 5 127 -72 l 127 991 l 253 991 l 253 16 q 186 -191 253 -119 q -5 -264 119 -264 m -43 1086 q 77 1221 42 1177 q 128 1293 112 1264 l 253 1293 q 427 1086 288 1225 l 427 1071 l 340 1071 q 189 1196 279 1107 q 41 1071 100 1109 l -43 1071 l -43 1086 z "},"ĵ":{"ha":358,"x_min":-77,"x_max":410,"o":"m 31 -334 q -77 -317 -33 -334 l -77 -218 q 16 -232 -30 -232 q 93 -203 68 -232 q 118 -115 118 -174 l 118 745 l 240 745 l 240 -111 q 187 -278 240 -222 q 31 -334 134 -334 m -59 857 q 61 991 26 948 q 112 1064 96 1035 l 237 1064 q 410 857 272 996 l 410 842 l 324 842 q 173 966 263 878 q 24 842 84 880 l -59 842 l -59 857 z "},"Ķ":{"ha":860,"x_min":135,"x_max":860,"o":"m 860 0 l 713 0 l 361 473 l 260 385 l 260 0 l 135 0 l 135 991 l 260 991 l 260 503 l 345 597 l 699 991 l 844 991 l 452 559 l 860 0 m 342 -290 q 375 -193 357 -256 q 399 -85 393 -130 l 519 -85 l 519 -97 q 476 -203 509 -140 q 408 -307 443 -267 l 342 -307 l 342 -290 z "},"ķ":{"ha":742,"x_min":118,"x_max":729,"o":"m 239 383 l 280 436 l 328 493 l 566 745 l 708 745 l 407 427 l 729 0 l 582 0 l 323 347 l 239 273 l 239 0 l 118 0 l 118 1055 l 239 1055 l 239 504 l 233 383 l 239 383 m 282 -290 q 315 -193 297 -256 q 339 -85 334 -130 l 460 -85 l 460 -97 q 416 -203 449 -140 q 349 -307 383 -267 l 282 -307 l 282 -290 z "},"ĸ":{"ha":742,"x_min":118,"x_max":729,"o":"m 559 745 l 707 745 l 425 415 l 729 0 l 583 0 l 339 336 l 248 261 l 248 0 l 118 0 l 118 745 l 248 745 l 248 551 q 239 364 248 457 l 296 433 l 559 745 z "},"Ĺ":{"ha":728,"x_min":135,"x_max":693,"o":"m 135 0 l 135 991 l 260 991 l 260 111 l 693 111 l 693 0 l 135 0 m 163 1088 q 229 1180 189 1120 q 296 1293 269 1240 l 443 1293 l 443 1279 q 350 1170 413 1236 q 244 1071 287 1104 l 163 1071 l 163 1088 z "},"ĺ":{"ha":358,"x_min":112,"x_max":391,"o":"m 240 0 l 118 0 l 118 1055 l 240 1055 l 240 0 m 112 1126 q 177 1219 138 1159 q 244 1332 217 1279 l 391 1332 l 391 1318 q 298 1208 361 1274 q 193 1109 235 1143 l 112 1109 l 112 1126 z "},"Ļ":{"ha":728,"x_min":135,"x_max":693,"o":"m 135 0 l 135 991 l 260 991 l 260 111 l 693 111 l 693 0 l 135 0 m 283 -290 q 317 -193 298 -256 q 340 -85 335 -130 l 461 -85 l 461 -97 q 417 -203 450 -140 q 350 -307 385 -267 l 283 -307 l 283 -290 z "},"ļ":{"ha":358,"x_min":62,"x_max":240,"o":"m 240 0 l 118 0 l 118 1055 l 240 1055 l 240 0 m 62 -290 q 96 -193 77 -256 q 119 -85 114 -130 l 240 -85 l 240 -97 q 196 -203 229 -140 q 129 -307 163 -267 l 62 -307 l 62 -290 z "},"Ľ":{"ha":728,"x_min":135,"x_max":693,"o":"m 135 0 l 135 991 l 260 991 l 260 111 l 693 111 l 693 0 l 135 0 m 463 787 q 491 895 478 831 q 509 992 505 958 l 629 992 l 629 980 q 591 882 621 944 q 529 770 562 819 l 463 770 l 463 787 z "},"ľ":{"ha":358,"x_min":118,"x_max":471,"o":"m 240 0 l 118 0 l 118 1055 l 240 1055 l 240 0 m 304 850 q 333 958 319 895 q 350 1055 346 1021 l 471 1055 l 471 1043 q 433 945 462 1007 q 370 833 404 882 l 304 833 l 304 850 z "},"Ŀ":{"ha":728,"x_min":135,"x_max":693,"o":"m 135 0 l 135 991 l 260 991 l 260 111 l 693 111 l 693 0 l 135 0 m 461 496 q 482 555 461 537 q 533 574 503 574 q 583 555 562 574 q 604 496 604 537 q 583 437 604 456 q 533 418 562 418 q 482 437 503 418 q 461 496 461 456 z "},"ŀ":{"ha":452,"x_min":118,"x_max":477,"o":"m 240 0 l 118 0 l 118 1055 l 240 1055 l 240 0 m 334 463 q 354 522 334 504 q 406 541 375 541 q 455 522 434 541 q 477 463 477 504 q 455 404 477 423 q 406 385 434 385 q 354 404 375 385 q 334 463 334 423 z "},"Ł":{"ha":728,"x_min":18,"x_max":693,"o":"m 135 0 l 135 343 l 66 304 l 18 387 l 135 457 l 135 991 l 260 991 l 260 530 l 450 643 l 500 555 l 260 416 l 260 111 l 693 111 l 693 0 l 135 0 z "},"ł":{"ha":358,"x_min":-12,"x_max":371,"o":"m 231 590 l 319 652 l 371 570 l 231 475 l 231 0 l 109 0 l 109 396 l 37 351 l -12 433 l 109 511 l 109 1055 l 231 1055 l 231 590 z "},"Ń":{"ha":1055,"x_min":135,"x_max":921,"o":"m 921 0 l 775 0 l 244 823 l 239 823 l 242 768 q 250 554 250 645 l 250 0 l 135 0 l 135 991 l 279 991 l 310 943 l 635 440 l 808 171 l 814 171 q 808 287 812 187 q 804 432 804 387 l 804 991 l 921 991 l 921 0 m 441 1088 q 507 1180 467 1120 q 574 1293 547 1240 l 721 1293 l 721 1279 q 628 1170 691 1236 q 522 1071 565 1104 l 441 1071 l 441 1088 z "},"ń":{"ha":859,"x_min":118,"x_max":746,"o":"m 625 0 l 625 476 q 585 611 625 567 q 458 656 545 656 q 292 592 344 656 q 240 386 240 529 l 240 0 l 118 0 l 118 745 l 216 745 l 235 643 l 241 643 q 338 728 276 698 q 476 758 401 758 q 680 692 613 758 q 746 485 746 625 l 746 0 l 625 0 m 347 859 q 413 951 373 891 q 479 1064 452 1011 l 627 1064 l 627 1050 q 534 941 597 1006 q 428 842 471 875 l 347 842 l 347 859 z "},"Ņ":{"ha":1055,"x_min":135,"x_max":921,"o":"m 921 0 l 775 0 l 244 823 l 239 823 l 242 768 q 250 554 250 645 l 250 0 l 135 0 l 135 991 l 279 991 l 310 943 l 635 440 l 808 171 l 814 171 q 808 287 812 187 q 804 432 804 387 l 804 991 l 921 991 l 921 0 m 391 -290 q 424 -193 406 -256 q 448 -85 442 -130 l 568 -85 l 568 -97 q 525 -203 557 -140 q 457 -307 492 -267 l 391 -307 l 391 -290 z "},"ņ":{"ha":859,"x_min":118,"x_max":746,"o":"m 625 0 l 625 476 q 585 611 625 567 q 458 656 545 656 q 292 592 344 656 q 240 386 240 529 l 240 0 l 118 0 l 118 745 l 216 745 l 235 643 l 241 643 q 338 728 276 698 q 476 758 401 758 q 680 692 613 758 q 746 485 746 625 l 746 0 l 625 0 m 309 -290 q 342 -193 323 -256 q 366 -85 360 -130 l 486 -85 l 486 -97 q 443 -203 475 -140 q 375 -307 410 -267 l 309 -307 l 309 -290 z "},"Ň":{"ha":1055,"x_min":135,"x_max":921,"o":"m 921 0 l 775 0 l 244 823 l 239 823 l 242 768 q 250 554 250 645 l 250 0 l 135 0 l 135 991 l 279 991 l 310 943 l 635 440 l 808 171 l 814 171 q 808 287 812 187 q 804 432 804 387 l 804 991 l 921 991 l 921 0 m 293 1293 l 376 1293 q 525 1165 454 1243 q 676 1293 610 1251 l 762 1293 l 762 1275 q 589 1071 623 1136 l 464 1071 q 293 1275 423 1140 l 293 1293 z "},"ň":{"ha":859,"x_min":118,"x_max":746,"o":"m 625 0 l 625 476 q 585 611 625 567 q 458 656 545 656 q 292 592 344 656 q 240 386 240 529 l 240 0 l 118 0 l 118 745 l 216 745 l 235 643 l 241 643 q 338 728 276 698 q 476 758 401 758 q 680 692 613 758 q 746 485 746 625 l 746 0 l 625 0 m 200 1064 l 283 1064 q 432 936 361 1014 q 583 1064 517 1021 l 669 1064 l 669 1046 q 496 842 530 907 l 371 842 q 200 1046 330 911 l 200 1064 z "},"ŉ":{"ha":960,"x_min":2,"x_max":844,"o":"m 724 0 l 724 476 q 683 611 724 567 q 557 656 643 656 q 390 592 442 656 q 338 386 338 529 l 338 0 l 216 0 l 216 745 l 315 745 l 333 643 l 340 643 q 437 728 374 698 q 574 758 499 758 q 778 692 711 758 q 844 485 844 625 l 844 0 l 724 0 m 201 991 l 212 977 q 92 652 176 842 l 2 652 q 71 991 50 845 l 201 991 z "},"Ŋ":{"ha":1055,"x_min":135,"x_max":921,"o":"m 660 -264 q 554 -245 593 -264 l 554 -140 q 660 -154 602 -154 q 766 -114 729 -154 q 804 0 803 -75 l 244 823 l 239 823 q 250 538 250 650 l 250 0 l 135 0 l 135 991 l 279 991 l 808 197 l 814 197 q 804 475 804 302 l 804 991 l 921 991 l 921 8 q 853 -194 921 -125 q 660 -264 786 -264 z "},"ŋ":{"ha":859,"x_min":118,"x_max":747,"o":"m 547 -334 q 449 -317 489 -334 l 449 -218 q 532 -232 490 -232 q 625 -115 625 -232 l 625 478 q 585 612 625 568 q 460 656 545 656 q 292 592 345 656 q 240 387 240 529 l 240 0 l 118 0 l 118 745 l 216 745 l 236 643 l 243 643 q 339 728 278 699 q 475 758 400 758 q 680 693 612 758 q 747 486 747 629 l 747 -111 q 699 -275 747 -216 q 547 -334 650 -334 z "},"Ō":{"ha":1084,"x_min":85,"x_max":1000,"o":"m 1000 497 q 880 123 1000 259 q 543 -14 760 -14 q 204 120 324 -14 q 85 498 85 254 q 204 874 85 741 q 545 1007 323 1007 q 880 872 760 1007 q 1000 497 1000 736 m 216 497 q 300 197 216 300 q 543 94 383 94 q 785 196 703 94 q 868 497 868 298 q 786 797 868 696 q 545 897 704 897 q 300 795 383 897 q 216 497 216 693 m 336 1169 l 749 1169 l 749 1071 l 336 1071 l 336 1169 z "},"ō":{"ha":840,"x_min":77,"x_max":765,"o":"m 765 374 q 673 89 765 191 q 418 -14 581 -14 q 239 34 317 -14 q 119 169 161 81 q 77 374 77 257 q 168 657 77 555 q 422 758 258 758 q 672 655 580 758 q 765 374 765 551 m 203 374 q 258 160 203 233 q 421 87 313 87 q 583 160 528 87 q 639 374 639 233 q 583 585 639 514 q 419 656 527 656 q 203 374 203 656 m 214 940 l 626 940 l 626 842 l 214 842 l 214 940 z "},"Ŏ":{"ha":1084,"x_min":85,"x_max":1000,"o":"m 1000 497 q 880 123 1000 259 q 543 -14 760 -14 q 204 120 324 -14 q 85 498 85 254 q 204 874 85 741 q 545 1007 323 1007 q 880 872 760 1007 q 1000 497 1000 736 m 216 497 q 300 197 216 300 q 543 94 383 94 q 785 196 703 94 q 868 497 868 298 q 786 797 868 696 q 545 897 704 897 q 300 795 383 897 q 216 497 216 693 m 538 1071 q 387 1118 442 1071 q 326 1257 332 1164 l 400 1257 q 434 1189 406 1209 q 541 1169 463 1169 q 642 1191 609 1169 q 681 1257 675 1212 l 758 1257 q 690 1120 749 1168 q 538 1071 632 1071 z "},"ŏ":{"ha":840,"x_min":77,"x_max":765,"o":"m 765 374 q 673 89 765 191 q 418 -14 581 -14 q 239 34 317 -14 q 119 169 161 81 q 77 374 77 257 q 168 657 77 555 q 422 758 258 758 q 672 655 580 758 q 765 374 765 551 m 203 374 q 258 160 203 233 q 421 87 313 87 q 583 160 528 87 q 639 374 639 233 q 583 585 639 514 q 419 656 527 656 q 203 374 203 656 m 415 842 q 264 888 319 842 q 203 1028 209 935 l 277 1028 q 311 960 283 980 q 418 940 340 940 q 519 961 486 940 q 558 1028 553 983 l 635 1028 q 568 890 626 939 q 415 842 509 842 z "},"Ő":{"ha":1084,"x_min":85,"x_max":1000,"o":"m 1000 497 q 880 123 1000 259 q 543 -14 760 -14 q 204 120 324 -14 q 85 498 85 254 q 204 874 85 741 q 545 1007 323 1007 q 880 872 760 1007 q 1000 497 1000 736 m 216 497 q 300 197 216 300 q 543 94 383 94 q 785 196 703 94 q 868 497 868 298 q 786 797 868 696 q 545 897 704 897 q 300 795 383 897 q 216 497 216 693 m 342 1088 q 401 1179 366 1119 q 463 1293 436 1239 l 596 1293 l 596 1279 q 515 1175 574 1241 q 412 1071 456 1108 l 342 1071 l 342 1088 m 587 1088 q 654 1194 618 1132 q 707 1293 690 1255 l 840 1293 l 840 1279 q 759 1175 818 1241 q 656 1071 701 1108 l 587 1071 l 587 1088 z "},"ő":{"ha":840,"x_min":77,"x_max":765,"o":"m 765 374 q 673 89 765 191 q 418 -14 581 -14 q 239 34 317 -14 q 119 169 161 81 q 77 374 77 257 q 168 657 77 555 q 422 758 258 758 q 672 655 580 758 q 765 374 765 551 m 203 374 q 258 160 203 233 q 421 87 313 87 q 583 160 528 87 q 639 374 639 233 q 583 585 639 514 q 419 656 527 656 q 203 374 203 656 m 214 859 q 273 950 237 890 q 334 1064 308 1010 l 468 1064 l 468 1050 q 387 945 446 1012 q 283 842 328 879 l 214 842 l 214 859 m 458 859 q 526 964 490 903 q 579 1064 562 1026 l 712 1064 l 712 1050 q 631 945 690 1012 q 528 842 572 879 l 458 842 l 458 859 z "},"Œ":{"ha":1289,"x_min":85,"x_max":1206,"o":"m 1206 0 l 677 0 q 543 -14 608 -14 q 204 120 323 -14 q 85 498 85 254 q 202 874 85 742 q 536 1007 319 1007 q 669 991 608 1007 l 1206 991 l 1206 882 l 807 882 l 807 572 l 1179 572 l 1179 464 l 807 464 l 807 110 l 1206 110 l 1206 0 m 547 897 q 299 795 383 897 q 215 497 215 692 q 299 198 215 301 q 546 94 383 94 q 684 118 625 94 l 684 875 q 547 897 626 897 z "},"œ":{"ha":1314,"x_min":75,"x_max":1242,"o":"m 971 -14 q 688 140 774 -14 q 574 25 645 64 q 411 -14 503 -14 q 166 91 258 -14 q 75 374 75 195 q 165 655 75 554 q 415 757 254 757 q 572 718 503 757 q 684 604 642 680 q 789 718 724 678 q 940 757 854 757 q 1160 667 1079 757 q 1242 422 1242 577 l 1242 349 l 747 349 q 972 90 753 90 q 1086 101 1034 90 q 1208 142 1138 111 l 1208 35 q 1093 -3 1145 7 q 971 -14 1041 -14 m 203 374 q 252 160 203 233 q 412 87 302 87 q 571 158 521 87 q 621 368 621 229 q 570 585 621 513 q 410 656 519 656 q 252 584 300 656 q 203 374 203 513 m 939 657 q 807 603 855 657 q 750 446 758 549 l 1112 446 q 1068 603 1112 548 q 939 657 1025 657 z "},"Ŕ":{"ha":864,"x_min":135,"x_max":843,"o":"m 260 515 l 408 515 q 585 563 529 515 q 640 704 640 610 q 584 841 640 798 q 401 884 528 884 l 260 884 l 260 515 m 260 410 l 260 0 l 135 0 l 135 991 l 408 991 q 681 921 593 991 q 770 710 770 851 q 571 444 770 513 l 843 0 l 697 0 l 457 410 l 260 410 m 346 1088 q 411 1180 372 1120 q 478 1293 451 1240 l 625 1293 l 625 1279 q 532 1170 595 1236 q 427 1071 469 1104 l 346 1071 l 346 1088 z "},"ŕ":{"ha":574,"x_min":118,"x_max":553,"o":"m 465 758 q 553 750 515 758 l 538 637 q 457 647 496 647 q 348 614 398 647 q 269 525 297 582 q 240 397 240 467 l 240 0 l 118 0 l 118 745 l 218 745 l 232 608 l 237 608 q 338 720 280 682 q 465 758 397 758 m 242 859 q 308 951 268 891 q 374 1064 347 1011 l 522 1064 l 522 1050 q 429 941 492 1006 q 323 842 366 875 l 242 842 l 242 859 z "},"Ŗ":{"ha":864,"x_min":135,"x_max":843,"o":"m 260 515 l 408 515 q 585 563 529 515 q 640 704 640 610 q 584 841 640 798 q 401 884 528 884 l 260 884 l 260 515 m 260 410 l 260 0 l 135 0 l 135 991 l 408 991 q 681 921 593 991 q 770 710 770 851 q 571 444 770 513 l 843 0 l 697 0 l 457 410 l 260 410 m 336 -290 q 370 -193 351 -256 q 393 -85 388 -130 l 514 -85 l 514 -97 q 470 -203 503 -140 q 403 -307 437 -267 l 336 -307 l 336 -290 z "},"ŗ":{"ha":574,"x_min":66,"x_max":553,"o":"m 465 758 q 553 750 515 758 l 538 637 q 457 647 496 647 q 348 614 398 647 q 269 525 297 582 q 240 397 240 467 l 240 0 l 118 0 l 118 745 l 218 745 l 232 608 l 237 608 q 338 720 280 682 q 465 758 397 758 m 66 -290 q 100 -193 81 -256 q 123 -85 118 -130 l 244 -85 l 244 -97 q 200 -203 233 -140 q 133 -307 168 -267 l 66 -307 l 66 -290 z "},"Ř":{"ha":864,"x_min":135,"x_max":843,"o":"m 260 515 l 408 515 q 585 563 529 515 q 640 704 640 610 q 584 841 640 798 q 401 884 528 884 l 260 884 l 260 515 m 260 410 l 260 0 l 135 0 l 135 991 l 408 991 q 681 921 593 991 q 770 710 770 851 q 571 444 770 513 l 843 0 l 697 0 l 457 410 l 260 410 m 196 1293 l 279 1293 q 428 1165 357 1243 q 579 1293 513 1251 l 665 1293 l 665 1275 q 492 1071 526 1136 l 367 1071 q 196 1275 326 1140 l 196 1293 z "},"ř":{"ha":574,"x_min":85,"x_max":555,"o":"m 465 758 q 553 750 515 758 l 538 637 q 457 647 496 647 q 348 614 398 647 q 269 525 297 582 q 240 397 240 467 l 240 0 l 118 0 l 118 745 l 218 745 l 232 608 l 237 608 q 338 720 280 682 q 465 758 397 758 m 85 1064 l 169 1064 q 317 936 246 1014 q 469 1064 403 1021 l 555 1064 l 555 1046 q 381 842 416 907 l 256 842 q 85 1046 216 911 l 85 1064 z "},"Ś":{"ha":762,"x_min":71,"x_max":697,"o":"m 697 265 q 604 61 697 136 q 343 -14 510 -14 q 71 33 167 -14 l 71 153 q 209 110 134 125 q 349 94 283 94 q 516 137 460 94 q 572 254 572 180 q 552 336 572 304 q 484 395 532 368 q 339 458 436 423 q 142 577 201 509 q 83 753 83 645 q 171 937 83 869 q 400 1006 258 1006 q 673 950 549 1006 l 635 843 q 397 896 507 896 q 259 858 309 896 q 210 751 210 820 q 229 670 210 703 q 291 612 248 638 q 427 551 334 585 q 591 472 537 511 q 671 384 646 434 q 697 265 697 334 m 315 1088 q 381 1180 341 1120 q 448 1293 420 1240 l 595 1293 l 595 1279 q 502 1170 565 1236 q 396 1071 439 1104 l 315 1071 l 315 1088 z "},"ś":{"ha":665,"x_min":71,"x_max":603,"o":"m 603 205 q 525 44 603 101 q 306 -14 447 -14 q 72 33 159 -14 l 72 144 q 309 85 195 85 q 443 115 401 85 q 485 195 485 144 q 445 269 485 239 q 301 339 404 300 q 153 409 196 380 q 91 473 111 437 q 71 561 71 509 q 145 705 71 652 q 350 758 220 758 q 587 708 477 758 l 546 611 q 342 659 433 659 q 227 634 266 659 q 187 568 187 610 q 221 501 187 528 q 379 427 255 474 q 516 362 472 392 q 582 295 561 332 q 603 205 603 258 m 251 859 q 316 951 277 891 q 383 1064 356 1011 l 530 1064 l 530 1050 q 437 941 500 1006 q 332 842 374 875 l 251 842 l 251 859 z "},"Ŝ":{"ha":762,"x_min":71,"x_max":697,"o":"m 697 265 q 604 61 697 136 q 343 -14 510 -14 q 71 33 167 -14 l 71 153 q 209 110 134 125 q 349 94 283 94 q 516 137 460 94 q 572 254 572 180 q 552 336 572 304 q 484 395 532 368 q 339 458 436 423 q 142 577 201 509 q 83 753 83 645 q 171 937 83 869 q 400 1006 258 1006 q 673 950 549 1006 l 635 843 q 397 896 507 896 q 259 858 309 896 q 210 751 210 820 q 229 670 210 703 q 291 612 248 638 q 427 551 334 585 q 591 472 537 511 q 671 384 646 434 q 697 265 697 334 m 161 1086 q 281 1221 246 1177 q 332 1293 316 1264 l 457 1293 q 631 1086 492 1225 l 631 1071 l 545 1071 q 393 1196 484 1107 q 245 1071 304 1109 l 161 1071 l 161 1086 z "},"ŝ":{"ha":665,"x_min":71,"x_max":603,"o":"m 603 205 q 525 44 603 101 q 306 -14 447 -14 q 72 33 159 -14 l 72 144 q 309 85 195 85 q 443 115 401 85 q 485 195 485 144 q 445 269 485 239 q 301 339 404 300 q 153 409 196 380 q 91 473 111 437 q 71 561 71 509 q 145 705 71 652 q 350 758 220 758 q 587 708 477 758 l 546 611 q 342 659 433 659 q 227 634 266 659 q 187 568 187 610 q 221 501 187 528 q 379 427 255 474 q 516 362 472 392 q 582 295 561 332 q 603 205 603 258 m 106 857 q 226 991 191 948 q 277 1064 261 1035 l 402 1064 q 576 857 437 996 l 576 842 l 490 842 q 338 966 429 878 q 190 842 250 880 l 106 842 l 106 857 z "},"Ş":{"ha":762,"x_min":71,"x_max":697,"o":"m 697 265 q 604 61 697 136 q 343 -14 510 -14 q 71 33 167 -14 l 71 153 q 209 110 134 125 q 349 94 283 94 q 516 137 460 94 q 572 254 572 180 q 552 336 572 304 q 484 395 532 368 q 339 458 436 423 q 142 577 201 509 q 83 753 83 645 q 171 937 83 869 q 400 1006 258 1006 q 673 950 549 1006 l 635 843 q 397 896 507 896 q 259 858 309 896 q 210 751 210 820 q 229 670 210 703 q 291 612 248 638 q 427 551 334 585 q 591 472 537 511 q 671 384 646 434 q 697 265 697 334 m 497 -193 q 446 -297 497 -260 q 292 -334 395 -334 q 222 -326 248 -334 l 222 -250 q 296 -257 247 -257 q 373 -244 347 -257 q 399 -196 399 -231 q 272 -119 399 -136 l 332 0 l 412 0 l 376 -74 q 497 -193 497 -100 z "},"ş":{"ha":665,"x_min":71,"x_max":603,"o":"m 603 205 q 525 44 603 101 q 306 -14 447 -14 q 72 33 159 -14 l 72 144 q 309 85 195 85 q 443 115 401 85 q 485 195 485 144 q 445 269 485 239 q 301 339 404 300 q 153 409 196 380 q 91 473 111 437 q 71 561 71 509 q 145 705 71 652 q 350 758 220 758 q 587 708 477 758 l 546 611 q 342 659 433 659 q 227 634 266 659 q 187 568 187 610 q 221 501 187 528 q 379 427 255 474 q 516 362 472 392 q 582 295 561 332 q 603 205 603 258 m 444 -193 q 393 -297 444 -260 q 239 -334 342 -334 q 170 -326 195 -334 l 170 -250 q 243 -257 194 -257 q 320 -244 294 -257 q 346 -196 346 -231 q 219 -119 346 -136 l 279 0 l 359 0 l 323 -74 q 444 -193 444 -100 z "},"Š":{"ha":762,"x_min":71,"x_max":697,"o":"m 697 265 q 604 61 697 136 q 343 -14 510 -14 q 71 33 167 -14 l 71 153 q 209 110 134 125 q 349 94 283 94 q 516 137 460 94 q 572 254 572 180 q 552 336 572 304 q 484 395 532 368 q 339 458 436 423 q 142 577 201 509 q 83 753 83 645 q 171 937 83 869 q 400 1006 258 1006 q 673 950 549 1006 l 635 843 q 397 896 507 896 q 259 858 309 896 q 210 751 210 820 q 229 670 210 703 q 291 612 248 638 q 427 551 334 585 q 591 472 537 511 q 671 384 646 434 q 697 265 697 334 m 159 1293 l 242 1293 q 391 1165 319 1243 q 542 1293 476 1251 l 628 1293 l 628 1275 q 454 1071 489 1136 l 330 1071 q 159 1275 289 1140 l 159 1293 z "},"š":{"ha":665,"x_min":71,"x_max":603,"o":"m 603 205 q 525 44 603 101 q 306 -14 447 -14 q 72 33 159 -14 l 72 144 q 309 85 195 85 q 443 115 401 85 q 485 195 485 144 q 445 269 485 239 q 301 339 404 300 q 153 409 196 380 q 91 473 111 437 q 71 561 71 509 q 145 705 71 652 q 350 758 220 758 q 587 708 477 758 l 546 611 q 342 659 433 659 q 227 634 266 659 q 187 568 187 610 q 221 501 187 528 q 379 427 255 474 q 516 362 472 392 q 582 295 561 332 q 603 205 603 258 m 115 1064 l 198 1064 q 347 936 275 1014 q 498 1064 432 1021 l 584 1064 l 584 1046 q 410 842 445 907 l 286 842 q 115 1046 245 911 l 115 1064 z "},"Ț":{"ha":772,"x_min":14,"x_max":757,"o":"m 449 0 l 323 0 l 323 882 l 14 882 l 14 991 l 757 991 l 757 882 l 449 882 l 449 0 m 266 -290 q 299 -193 281 -256 q 323 -85 317 -130 l 444 -85 l 444 -97 q 400 -203 433 -140 q 332 -307 367 -267 l 266 -307 l 266 -290 z "},"ț":{"ha":501,"x_min":22,"x_max":471,"o":"m 367 86 q 422 91 391 86 q 471 102 454 96 l 471 8 q 418 -6 454 1 q 346 -14 382 -14 q 127 216 127 -14 l 127 650 l 22 650 l 22 708 l 129 757 l 178 916 l 250 916 l 250 745 l 465 745 l 465 650 l 250 650 l 250 220 q 281 121 250 155 q 367 86 312 86 m 197 -290 q 230 -193 212 -256 q 254 -85 248 -130 l 374 -85 l 374 -97 q 331 -203 363 -140 q 263 -307 298 -267 l 197 -307 l 197 -290 z "},"Ť":{"ha":772,"x_min":14,"x_max":757,"o":"m 449 0 l 323 0 l 323 882 l 14 882 l 14 991 l 757 991 l 757 882 l 449 882 l 449 0 m 153 1293 l 237 1293 q 385 1165 314 1243 q 536 1293 471 1251 l 623 1293 l 623 1275 q 449 1071 484 1136 l 324 1071 q 153 1275 283 1140 l 153 1293 z "},"ť":{"ha":501,"x_min":22,"x_max":509,"o":"m 367 86 q 422 91 391 86 q 471 102 454 96 l 471 8 q 418 -6 454 1 q 346 -14 382 -14 q 127 216 127 -14 l 127 650 l 22 650 l 22 708 l 129 757 l 178 916 l 250 916 l 250 745 l 465 745 l 465 650 l 250 650 l 250 220 q 281 121 250 155 q 367 86 312 86 m 342 850 q 371 958 357 895 q 388 1055 384 1021 l 509 1055 l 509 1043 q 471 945 500 1007 q 408 833 441 882 l 342 833 l 342 850 z "},"Ŧ":{"ha":772,"x_min":14,"x_max":757,"o":"m 322 554 l 322 880 l 14 880 l 14 991 l 757 991 l 757 880 l 447 880 l 447 554 l 653 554 l 653 452 l 447 452 l 447 0 l 322 0 l 322 452 l 115 452 l 115 554 l 322 554 z "},"ŧ":{"ha":501,"x_min":22,"x_max":471,"o":"m 370 86 q 471 102 427 86 l 471 8 q 417 -7 453 0 q 342 -14 380 -14 q 127 224 127 -14 l 127 389 l 33 389 l 33 481 l 127 481 l 127 650 l 22 650 l 22 708 l 129 757 l 178 916 l 250 916 l 250 745 l 465 745 l 465 650 l 250 650 l 250 481 l 453 481 l 453 389 l 250 389 l 250 231 q 279 122 250 159 q 370 86 308 86 z "},"Ũ":{"ha":1015,"x_min":125,"x_max":889,"o":"m 889 991 l 889 350 q 787 83 889 180 q 503 -14 684 -14 q 224 84 323 -14 q 125 353 125 182 l 125 991 l 250 991 l 250 349 q 315 161 250 227 q 510 94 380 94 q 699 160 633 94 q 765 350 765 226 l 765 991 l 889 991 m 611 1072 q 554 1085 582 1072 q 499 1112 526 1097 q 448 1139 473 1126 q 400 1152 423 1152 q 350 1132 367 1152 q 323 1071 333 1112 l 253 1071 q 300 1201 261 1154 q 406 1249 340 1249 q 465 1236 436 1249 q 520 1209 494 1223 q 571 1182 547 1194 q 617 1169 595 1169 q 666 1189 650 1169 q 693 1250 683 1209 l 763 1250 q 715 1121 755 1169 q 611 1072 676 1072 z "},"ũ":{"ha":859,"x_min":110,"x_max":741,"o":"m 233 745 l 233 265 q 274 131 233 175 q 399 87 314 87 q 566 151 513 87 q 618 357 618 215 l 618 745 l 741 745 l 741 0 l 640 0 l 623 98 l 616 98 q 522 16 583 45 q 380 -14 461 -14 q 178 51 246 -14 q 110 257 110 115 l 110 745 l 233 745 m 531 843 q 474 856 502 843 q 419 883 446 868 q 368 910 393 897 q 320 922 343 922 q 270 902 287 922 q 243 842 253 882 l 173 842 q 220 972 181 924 q 326 1019 260 1019 q 385 1007 356 1019 q 440 980 414 994 q 491 952 467 965 q 537 940 515 940 q 586 960 570 940 q 613 1021 603 980 l 683 1021 q 635 891 675 940 q 531 843 596 843 z "},"Ū":{"ha":1015,"x_min":125,"x_max":889,"o":"m 889 991 l 889 350 q 787 83 889 180 q 503 -14 684 -14 q 224 84 323 -14 q 125 353 125 182 l 125 991 l 250 991 l 250 349 q 315 161 250 227 q 510 94 380 94 q 699 160 633 94 q 765 350 765 226 l 765 991 l 889 991 m 301 1169 l 713 1169 l 713 1071 l 301 1071 l 301 1169 z "},"ū":{"ha":859,"x_min":110,"x_max":741,"o":"m 233 745 l 233 265 q 274 131 233 175 q 399 87 314 87 q 566 151 513 87 q 618 357 618 215 l 618 745 l 741 745 l 741 0 l 640 0 l 623 98 l 616 98 q 522 16 583 45 q 380 -14 461 -14 q 178 51 246 -14 q 110 257 110 115 l 110 745 l 233 745 m 221 940 l 633 940 l 633 842 l 221 842 l 221 940 z "},"Ŭ":{"ha":1015,"x_min":125,"x_max":889,"o":"m 889 991 l 889 350 q 787 83 889 180 q 503 -14 684 -14 q 224 84 323 -14 q 125 353 125 182 l 125 991 l 250 991 l 250 349 q 315 161 250 227 q 510 94 380 94 q 699 160 633 94 q 765 350 765 226 l 765 991 l 889 991 m 501 1071 q 350 1118 406 1071 q 289 1257 295 1164 l 363 1257 q 397 1189 369 1209 q 504 1169 426 1169 q 606 1191 572 1169 q 644 1257 639 1212 l 721 1257 q 654 1120 712 1168 q 501 1071 595 1071 z "},"ŭ":{"ha":859,"x_min":110,"x_max":741,"o":"m 233 745 l 233 265 q 274 131 233 175 q 399 87 314 87 q 566 151 513 87 q 618 357 618 215 l 618 745 l 741 745 l 741 0 l 640 0 l 623 98 l 616 98 q 522 16 583 45 q 380 -14 461 -14 q 178 51 246 -14 q 110 257 110 115 l 110 745 l 233 745 m 420 842 q 270 888 325 842 q 208 1028 214 935 l 283 1028 q 317 960 288 980 q 423 940 345 940 q 525 961 492 940 q 564 1028 558 983 l 640 1028 q 573 890 631 939 q 420 842 515 842 z "},"Ů":{"ha":1015,"x_min":125,"x_max":889,"o":"m 889 991 l 889 350 q 787 83 889 180 q 503 -14 684 -14 q 224 84 323 -14 q 125 353 125 182 l 125 991 l 250 991 l 250 349 q 315 161 250 227 q 510 94 380 94 q 699 160 633 94 q 765 350 765 226 l 765 991 l 889 991 m 660 1219 q 617 1111 660 1151 q 506 1071 575 1071 q 395 1111 436 1071 q 355 1218 355 1150 q 395 1324 355 1284 q 506 1364 436 1364 q 617 1324 574 1364 q 660 1219 660 1284 m 583 1218 q 561 1275 583 1255 q 506 1296 539 1296 q 450 1275 472 1296 q 428 1218 428 1255 q 448 1161 428 1181 q 506 1140 468 1140 q 562 1161 541 1140 q 583 1218 583 1181 z "},"ů":{"ha":859,"x_min":110,"x_max":741,"o":"m 233 745 l 233 265 q 274 131 233 175 q 399 87 314 87 q 566 151 513 87 q 618 357 618 215 l 618 745 l 741 745 l 741 0 l 640 0 l 623 98 l 616 98 q 522 16 583 45 q 380 -14 461 -14 q 178 51 246 -14 q 110 257 110 115 l 110 745 l 233 745 m 579 990 q 537 882 579 922 q 425 842 494 842 q 315 881 355 842 q 274 989 274 921 q 315 1095 274 1055 q 425 1135 355 1135 q 536 1095 494 1135 q 579 990 579 1055 m 503 989 q 480 1046 503 1025 q 425 1067 458 1067 q 369 1046 391 1067 q 347 989 347 1025 q 367 931 347 952 q 425 911 387 911 q 481 931 460 911 q 503 989 503 952 z "},"Ű":{"ha":1015,"x_min":125,"x_max":889,"o":"m 889 991 l 889 350 q 787 83 889 180 q 503 -14 684 -14 q 224 84 323 -14 q 125 353 125 182 l 125 991 l 250 991 l 250 349 q 315 161 250 227 q 510 94 380 94 q 699 160 633 94 q 765 350 765 226 l 765 991 l 889 991 m 307 1088 q 366 1179 330 1119 q 427 1293 401 1239 l 561 1293 l 561 1279 q 480 1175 538 1241 q 376 1071 421 1108 l 307 1071 l 307 1088 m 551 1088 q 619 1194 583 1132 q 672 1293 655 1255 l 805 1293 l 805 1279 q 724 1175 783 1241 q 621 1071 665 1108 l 551 1071 l 551 1088 z "},"ű":{"ha":859,"x_min":110,"x_max":741,"o":"m 233 745 l 233 265 q 274 131 233 175 q 399 87 314 87 q 566 151 513 87 q 618 357 618 215 l 618 745 l 741 745 l 741 0 l 640 0 l 623 98 l 616 98 q 522 16 583 45 q 380 -14 461 -14 q 178 51 246 -14 q 110 257 110 115 l 110 745 l 233 745 m 228 859 q 287 950 252 890 q 349 1064 322 1010 l 482 1064 l 482 1050 q 401 945 460 1012 q 298 842 342 879 l 228 842 l 228 859 m 473 859 q 541 964 505 903 q 593 1064 576 1026 l 726 1064 l 726 1050 q 645 945 704 1012 q 542 842 587 879 l 473 842 l 473 859 z "},"Ų":{"ha":1015,"x_min":125,"x_max":889,"o":"m 889 991 l 889 350 q 787 83 889 180 q 503 -14 684 -14 q 224 84 323 -14 q 125 353 125 182 l 125 991 l 250 991 l 250 349 q 315 161 250 227 q 510 94 380 94 q 699 160 633 94 q 765 350 765 226 l 765 991 l 889 991 m 494 -161 q 511 -208 494 -193 q 557 -224 528 -224 q 624 -215 587 -224 l 624 -293 q 538 -306 577 -306 q 395 -175 395 -306 q 503 0 395 -81 l 589 0 q 518 -82 542 -45 q 494 -161 494 -119 z "},"ų":{"ha":859,"x_min":110,"x_max":766,"o":"m 233 745 l 233 265 q 274 131 233 175 q 399 87 314 87 q 566 151 513 87 q 618 357 618 215 l 618 745 l 741 745 l 741 0 l 640 0 l 623 98 l 616 98 q 522 16 583 45 q 380 -14 461 -14 q 178 51 246 -14 q 110 257 110 115 l 110 745 l 233 745 m 636 -161 q 653 -208 636 -193 q 699 -224 669 -224 q 766 -215 728 -224 l 766 -293 q 680 -306 719 -306 q 536 -175 536 -306 q 645 0 536 -81 l 731 0 q 660 -82 684 -45 q 636 -161 636 -119 z "},"Ŵ":{"ha":1292,"x_min":17,"x_max":1274,"o":"m 1010 0 l 884 0 l 690 650 q 640 846 648 795 q 593 646 629 768 l 406 0 l 279 0 l 17 991 l 147 991 l 301 386 q 349 150 332 267 q 401 393 363 261 l 576 991 l 705 991 l 888 389 q 942 150 923 271 q 990 387 953 243 l 1143 991 l 1274 991 l 1010 0 m 408 1086 q 528 1221 493 1177 q 579 1293 563 1264 l 704 1293 q 878 1086 739 1225 l 878 1071 l 791 1071 q 640 1196 730 1107 q 492 1071 551 1109 l 408 1071 l 408 1086 z "},"ŵ":{"ha":1092,"x_min":16,"x_max":1076,"o":"m 726 0 l 599 419 q 547 616 581 471 l 542 616 q 492 418 513 484 l 358 0 l 220 0 l 16 745 l 142 745 q 249 327 212 470 q 293 125 286 184 l 298 125 l 308 167 q 349 325 329 264 l 481 745 l 614 745 l 742 325 q 756 274 749 301 q 771 221 764 248 q 783 171 778 195 q 791 126 789 146 l 798 126 q 847 347 804 178 l 951 745 l 1076 745 l 869 0 l 726 0 m 311 857 q 431 991 396 948 q 482 1064 466 1035 l 607 1064 q 781 857 642 996 l 781 842 l 694 842 q 543 966 633 878 q 395 842 454 880 l 311 842 l 311 857 z "},"Ŷ":{"ha":786,"x_min":0,"x_max":786,"o":"m 393 504 l 652 991 l 786 991 l 456 385 l 456 0 l 330 0 l 330 379 l 0 991 l 136 991 l 393 504 m 159 1086 q 278 1221 243 1177 q 330 1293 313 1264 l 454 1293 q 628 1086 490 1225 l 628 1071 l 542 1071 q 391 1196 481 1107 q 242 1071 302 1109 l 159 1071 l 159 1086 z "},"ŷ":{"ha":708,"x_min":1,"x_max":708,"o":"m 1 745 l 132 745 l 293 321 q 355 118 344 182 l 361 118 q 389 212 367 143 q 425 322 410 281 l 576 745 l 708 745 l 387 -103 q 276 -280 340 -227 q 117 -334 212 -334 q 16 -322 66 -334 l 16 -225 q 97 -233 50 -233 q 196 -201 155 -233 q 262 -102 237 -169 l 301 -3 l 1 745 m 124 857 q 244 991 209 948 q 295 1064 279 1035 l 420 1064 q 593 857 455 996 l 593 842 l 507 842 q 356 966 446 878 q 208 842 267 880 l 124 842 l 124 857 z "},"Ÿ":{"ha":786,"x_min":0,"x_max":786,"o":"m 393 504 l 652 991 l 786 991 l 456 385 l 456 0 l 330 0 l 330 379 l 0 991 l 136 991 l 393 504 m 199 1175 q 218 1227 199 1211 q 264 1243 237 1243 q 311 1227 291 1243 q 330 1175 330 1211 q 311 1122 330 1139 q 264 1105 291 1105 q 218 1122 237 1105 q 199 1175 199 1139 m 460 1175 q 479 1227 460 1211 q 524 1243 498 1243 q 570 1227 551 1243 q 590 1175 590 1211 q 570 1122 590 1139 q 524 1105 551 1105 q 479 1122 498 1105 q 460 1175 460 1139 z "},"Ź":{"ha":794,"x_min":53,"x_max":741,"o":"m 741 0 l 53 0 l 53 94 l 575 880 l 69 880 l 69 991 l 726 991 l 726 897 l 204 111 l 741 111 l 741 0 m 307 1088 q 373 1180 333 1120 q 439 1293 412 1240 l 587 1293 l 587 1279 q 494 1170 557 1236 q 388 1071 431 1104 l 307 1071 l 307 1088 z "},"ź":{"ha":653,"x_min":54,"x_max":599,"o":"m 599 0 l 54 0 l 54 81 l 454 650 l 78 650 l 78 745 l 589 745 l 589 653 l 195 94 l 599 94 l 599 0 m 251 859 q 316 951 277 891 q 383 1064 356 1011 l 530 1064 l 530 1050 q 437 941 500 1006 q 332 842 374 875 l 251 842 l 251 859 z "},"Ż":{"ha":794,"x_min":53,"x_max":741,"o":"m 741 0 l 53 0 l 53 94 l 575 880 l 69 880 l 69 991 l 726 991 l 726 897 l 204 111 l 741 111 l 741 0 m 323 1175 q 344 1234 323 1216 q 395 1253 365 1253 q 445 1234 424 1253 q 467 1175 467 1216 q 445 1116 467 1135 q 395 1097 424 1097 q 344 1116 365 1097 q 323 1175 323 1135 z "},"ż":{"ha":653,"x_min":54,"x_max":599,"o":"m 599 0 l 54 0 l 54 81 l 454 650 l 78 650 l 78 745 l 589 745 l 589 653 l 195 94 l 599 94 l 599 0 m 257 946 q 278 1005 257 987 q 329 1023 298 1023 q 379 1005 357 1023 q 400 946 400 987 q 379 887 400 906 q 329 868 357 868 q 278 887 298 868 q 257 946 257 906 z "},"Ž":{"ha":794,"x_min":53,"x_max":741,"o":"m 741 0 l 53 0 l 53 94 l 575 880 l 69 880 l 69 991 l 726 991 l 726 897 l 204 111 l 741 111 l 741 0 m 165 1293 l 248 1293 q 397 1165 326 1243 q 548 1293 482 1251 l 634 1293 l 634 1275 q 460 1071 495 1136 l 336 1071 q 165 1275 295 1140 l 165 1293 z "},"ž":{"ha":653,"x_min":54,"x_max":599,"o":"m 599 0 l 54 0 l 54 81 l 454 650 l 78 650 l 78 745 l 589 745 l 589 653 l 195 94 l 599 94 l 599 0 m 95 1064 l 178 1064 q 327 936 256 1014 q 478 1064 412 1021 l 564 1064 l 564 1046 q 391 842 425 907 l 266 842 q 95 1046 225 911 l 95 1064 z "},"ſ":{"ha":453,"x_min":118,"x_max":503,"o":"m 363 961 q 270 921 299 961 q 240 802 240 882 l 240 0 l 118 0 l 118 802 q 364 1063 118 1063 q 503 1036 432 1063 l 471 940 q 363 961 410 961 z "},"ƒ":{"ha":794,"x_min":129,"x_max":708,"o":"m 224 -334 q 129 -321 174 -334 l 129 -220 q 216 -232 176 -232 q 304 -199 279 -232 q 330 -89 330 -167 l 330 564 l 184 564 l 184 621 l 330 663 l 330 753 q 385 945 330 884 q 566 1006 440 1006 q 708 977 629 1006 l 677 882 q 570 904 608 904 q 479 870 506 904 q 453 754 453 836 l 453 659 l 640 659 l 640 564 l 456 564 l 456 -89 q 400 -275 456 -216 q 224 -334 345 -334 z "},"Ǻ":{"ha":889,"x_min":0,"x_max":889,"o":"m 597 971 q 579 895 597 927 q 530 846 561 863 l 889 0 l 760 0 l 646 267 l 236 267 l 127 0 l 0 0 l 358 844 q 290 970 290 881 q 331 1077 290 1036 q 441 1117 372 1117 q 554 1076 511 1117 q 597 971 597 1036 m 610 378 l 493 665 q 443 806 475 707 q 395 663 422 733 l 279 378 l 610 378 m 376 1164 q 447 1257 415 1209 q 494 1331 479 1304 l 642 1331 l 642 1320 q 561 1236 621 1291 q 458 1152 501 1180 l 376 1152 l 376 1164 m 519 970 q 498 1027 519 1007 q 441 1047 476 1047 q 386 1027 408 1047 q 364 970 364 1007 q 384 912 364 933 q 441 892 404 892 q 498 912 476 892 q 519 970 519 932 z "},"ǻ":{"ha":779,"x_min":64,"x_max":667,"o":"m 578 0 l 554 106 l 549 106 q 438 11 493 36 q 298 -14 382 -14 q 126 44 189 -14 q 64 207 64 102 q 421 444 64 433 l 547 449 l 547 493 q 511 618 547 578 q 393 659 474 659 q 282 641 334 659 q 183 602 229 623 l 146 693 q 269 740 202 723 q 400 757 335 757 q 601 697 535 757 q 667 507 667 637 l 667 0 l 578 0 m 326 85 q 487 140 429 85 q 546 297 546 195 l 546 364 l 436 359 q 249 319 308 355 q 191 205 191 283 q 226 116 191 147 q 326 85 262 85 m 550 990 q 508 882 550 922 q 396 842 465 842 q 285 882 326 842 q 244 989 244 922 q 285 1095 244 1055 q 396 1135 326 1135 q 507 1095 465 1135 q 550 990 550 1055 m 473 989 q 451 1046 473 1025 q 396 1067 429 1067 q 340 1046 362 1067 q 318 989 318 1025 q 338 931 318 952 q 396 911 358 911 q 452 931 431 911 q 473 989 473 952 m 319 1189 l 319 1200 q 387 1269 351 1228 q 437 1331 422 1310 l 619 1331 l 619 1322 q 549 1271 605 1306 q 407 1189 494 1235 l 319 1189 z "},"Ǽ":{"ha":1223,"x_min":-1,"x_max":1140,"o":"m 1140 0 l 624 0 l 624 307 l 277 307 l 127 0 l -1 0 l 469 991 l 1140 991 l 1140 882 l 749 882 l 749 572 l 1114 572 l 1114 464 l 749 464 l 749 110 l 1140 110 l 1140 0 m 325 418 l 624 418 l 624 880 l 543 880 l 325 418 m 667 1088 q 732 1180 692 1120 q 799 1293 772 1240 l 946 1293 l 946 1279 q 853 1170 916 1236 q 747 1071 790 1104 l 667 1071 l 667 1088 z "},"ǽ":{"ha":1200,"x_min":64,"x_max":1129,"o":"m 64 207 q 403 444 64 433 l 528 449 l 528 496 q 489 618 528 578 q 372 659 451 659 q 164 602 278 659 l 126 693 q 243 739 174 720 q 382 757 312 757 q 525 729 469 757 q 610 637 581 701 q 704 727 646 695 q 838 758 762 758 q 1050 667 971 758 q 1129 425 1129 575 l 1129 350 l 653 350 q 868 90 659 90 q 980 101 928 90 q 1096 142 1032 113 l 1096 35 q 985 -3 1036 8 q 864 -14 933 -14 q 582 143 667 -14 q 459 23 526 59 q 300 -14 392 -14 q 126 44 189 -14 q 64 207 64 102 m 191 205 q 226 114 191 143 q 319 85 261 85 q 470 140 414 85 q 525 297 525 195 l 525 364 l 421 359 q 246 319 301 355 q 191 205 191 283 m 836 659 q 709 604 755 659 q 656 446 663 549 l 1000 446 q 958 604 1000 549 q 836 659 916 659 m 530 859 q 596 951 556 891 q 663 1064 635 1011 l 810 1064 l 810 1050 q 717 941 780 1006 q 611 842 654 875 l 530 842 l 530 859 z "},"Ǿ":{"ha":1084,"x_min":85,"x_max":1000,"o":"m 1000 497 q 880 123 1000 259 q 543 -14 760 -14 q 286 52 386 -14 l 220 -43 l 135 12 l 207 115 q 85 498 85 250 q 204 874 85 741 q 545 1007 323 1007 q 791 945 683 1007 l 856 1036 l 940 979 l 869 880 q 1000 497 1000 743 m 868 497 q 798 778 868 676 l 353 147 q 543 94 430 94 q 785 196 703 94 q 868 497 868 298 m 216 497 q 282 222 216 321 l 725 848 q 545 897 651 897 q 300 795 383 897 q 216 497 216 693 m 454 1088 q 520 1180 480 1120 q 587 1293 559 1240 l 734 1293 l 734 1279 q 641 1170 704 1236 q 535 1071 578 1104 l 454 1071 l 454 1088 z "},"ǿ":{"ha":840,"x_min":77,"x_max":765,"o":"m 765 374 q 673 89 765 191 q 418 -14 581 -14 q 239 32 315 -14 l 183 -46 l 103 8 l 165 94 q 77 374 77 200 q 168 657 77 555 q 422 758 258 758 q 604 708 525 758 l 659 786 l 741 733 l 677 646 q 765 374 765 541 m 203 374 q 236 196 203 261 l 542 621 q 419 656 492 656 q 203 374 203 656 m 639 374 q 607 545 639 477 l 301 119 q 421 87 348 87 q 583 160 528 87 q 639 374 639 233 m 322 859 q 388 951 348 891 q 454 1064 427 1011 l 602 1064 l 602 1050 q 509 941 572 1006 q 403 842 446 875 l 322 842 l 322 859 z "},"Ș":{"ha":762,"x_min":71,"x_max":697,"o":"m 697 265 q 604 61 697 136 q 343 -14 510 -14 q 71 33 167 -14 l 71 153 q 209 110 134 125 q 349 94 283 94 q 516 137 460 94 q 572 254 572 180 q 552 336 572 304 q 484 395 532 368 q 339 458 436 423 q 142 577 201 509 q 83 753 83 645 q 171 937 83 869 q 400 1006 258 1006 q 673 950 549 1006 l 635 843 q 397 896 507 896 q 259 858 309 896 q 210 751 210 820 q 229 670 210 703 q 291 612 248 638 q 427 551 334 585 q 591 472 537 511 q 671 384 646 434 q 697 265 697 334 m 264 -290 q 298 -193 279 -256 q 321 -85 316 -130 l 442 -85 l 442 -97 q 398 -203 431 -140 q 331 -307 366 -267 l 264 -307 l 264 -290 z "},"ș":{"ha":665,"x_min":71,"x_max":603,"o":"m 603 205 q 525 44 603 101 q 306 -14 447 -14 q 72 33 159 -14 l 72 144 q 309 85 195 85 q 443 115 401 85 q 485 195 485 144 q 445 269 485 239 q 301 339 404 300 q 153 409 196 380 q 91 473 111 437 q 71 561 71 509 q 145 705 71 652 q 350 758 220 758 q 587 708 477 758 l 546 611 q 342 659 433 659 q 227 634 266 659 q 187 568 187 610 q 221 501 187 528 q 379 427 255 474 q 516 362 472 392 q 582 295 561 332 q 603 205 603 258 m 224 -290 q 258 -193 239 -256 q 281 -85 276 -130 l 402 -85 l 402 -97 q 358 -203 391 -140 q 291 -307 326 -267 l 224 -307 l 224 -290 z "},"ˆ":{"ha":823,"x_min":176,"x_max":646,"o":"m 176 857 q 296 991 261 948 q 347 1064 331 1035 l 472 1064 q 646 857 507 996 l 646 842 l 559 842 q 408 966 498 878 q 260 842 319 880 l 176 842 l 176 857 z "},"ˇ":{"ha":823,"x_min":176,"x_max":646,"o":"m 176 1064 l 260 1064 q 408 936 337 1014 q 559 1064 494 1021 l 646 1064 l 646 1046 q 472 842 507 907 l 347 842 q 176 1046 307 911 l 176 1064 z "},"ˉ":{"ha":818,"x_min":203,"x_max":615,"o":"m 203 940 l 615 940 l 615 842 l 203 842 l 203 940 z "},"˘":{"ha":823,"x_min":195,"x_max":627,"o":"m 407 842 q 256 888 311 842 q 195 1028 201 935 l 269 1028 q 303 960 275 980 q 410 940 332 940 q 511 961 478 940 q 550 1028 545 983 l 627 1028 q 559 890 618 939 q 407 842 501 842 z "},"˙":{"ha":358,"x_min":109,"x_max":252,"o":"m 109 946 q 129 1005 109 987 q 180 1023 150 1023 q 230 1005 209 1023 q 252 946 252 987 q 230 887 252 906 q 180 868 209 868 q 129 887 150 868 q 109 946 109 906 z "},"˚":{"ha":802,"x_min":248,"x_max":553,"o":"m 553 990 q 510 882 553 922 q 399 842 468 842 q 288 881 329 842 q 248 989 248 921 q 288 1095 248 1055 q 399 1135 329 1135 q 510 1095 467 1135 q 553 990 553 1055 m 476 989 q 454 1046 476 1025 q 399 1067 432 1067 q 343 1046 365 1067 q 321 989 321 1025 q 341 931 321 952 q 399 911 361 911 q 455 931 433 911 q 476 989 476 952 z "},"˛":{"ha":275,"x_min":24,"x_max":253,"o":"m 123 -161 q 140 -208 123 -193 q 186 -224 157 -224 q 253 -215 216 -224 l 253 -293 q 167 -306 206 -306 q 24 -175 24 -306 q 132 0 24 -81 l 218 0 q 147 -82 171 -45 q 123 -161 123 -119 z "},"˜":{"ha":823,"x_min":175,"x_max":685,"o":"m 533 843 q 476 856 504 843 q 421 883 448 868 q 370 910 395 897 q 322 922 345 922 q 272 902 289 922 q 245 842 255 882 l 175 842 q 222 972 183 924 q 328 1019 262 1019 q 387 1007 358 1019 q 442 980 416 994 q 493 952 469 965 q 539 940 517 940 q 588 960 572 940 q 615 1021 605 980 l 685 1021 q 637 891 677 940 q 533 843 598 843 z "},"˝":{"ha":803,"x_min":151,"x_max":650,"o":"m 151 859 q 210 950 175 890 q 272 1064 245 1010 l 406 1064 l 406 1050 q 325 945 383 1012 q 221 842 266 879 l 151 842 l 151 859 m 396 859 q 464 964 428 903 q 517 1064 500 1026 l 650 1064 l 650 1050 q 569 945 627 1012 q 465 842 510 879 l 396 842 l 396 859 z "},"΄":{"ha":802,"x_min":342,"x_max":534,"o":"m 342 861 q 379 990 361 912 q 404 1118 397 1069 l 534 1118 l 534 1103 q 489 981 524 1060 q 415 842 453 901 l 342 842 l 342 861 z "},"΅":{"ha":802,"x_min":184,"x_max":616,"o":"m 346 958 q 408 1164 384 1055 l 542 1164 l 542 1150 q 484 1052 522 1110 q 404 942 446 993 l 346 942 l 346 958 m 184 946 q 249 1014 184 1014 q 294 998 275 1014 q 313 946 313 982 q 294 893 313 910 q 249 876 275 876 q 203 893 221 876 q 184 946 184 910 m 489 946 q 553 1014 489 1014 q 597 998 578 1014 q 616 946 616 982 q 600 896 616 916 q 553 876 583 876 q 507 893 524 876 q 489 946 489 910 z "},"Ά":{"ha":888,"x_min":0,"x_max":886,"o":"m 757 0 l 637 307 l 244 307 l 126 0 l 0 0 l 387 996 l 500 996 l 886 0 l 757 0 m 600 418 l 489 718 l 441 867 q 399 718 421 785 l 286 418 l 600 418 m 14 790 q 51 919 33 841 q 76 1047 69 998 l 206 1047 l 206 1031 q 160 909 196 989 q 87 770 125 830 l 14 770 l 14 790 z "},"·":{"ha":372,"x_min":100,"x_max":272,"o":"m 100 490 q 122 559 100 534 q 184 585 144 585 q 249 559 227 585 q 272 490 272 534 q 249 421 272 447 q 184 396 226 396 q 122 421 144 396 q 100 490 100 446 z "},"Έ":{"ha":857,"x_min":-33,"x_max":774,"o":"m 774 0 l 220 0 l 220 991 l 774 991 l 774 882 l 345 882 l 345 572 l 749 572 l 749 464 l 345 464 l 345 110 l 774 110 l 774 0 m -33 790 q 5 919 -13 841 q 30 1047 23 998 l 160 1047 l 160 1031 q 114 909 150 989 q 41 770 79 830 l -33 770 l -33 790 z "},"Ή":{"ha":1129,"x_min":-33,"x_max":993,"o":"m 993 0 l 868 0 l 868 463 l 359 463 l 359 0 l 235 0 l 235 991 l 359 991 l 359 572 l 868 572 l 868 991 l 993 991 l 993 0 m -33 790 q 5 919 -13 841 q 30 1047 23 998 l 160 1047 l 160 1031 q 114 909 150 989 q 41 770 79 830 l -33 770 l -33 790 z "},"Ί":{"ha":632,"x_min":-23,"x_max":575,"o":"m 575 0 l 217 0 l 217 72 l 334 98 l 334 892 l 217 920 l 217 991 l 575 991 l 575 920 l 458 892 l 458 98 l 575 72 l 575 0 m -23 790 q 15 919 -3 841 q 39 1047 33 998 l 170 1047 l 170 1031 q 124 909 159 989 q 50 770 88 830 l -23 770 l -23 790 z "},"Ό":{"ha":1131,"x_min":-20,"x_max":1046,"o":"m 1046 497 q 926 123 1046 259 q 589 -14 806 -14 q 251 120 370 -14 q 131 498 131 254 q 250 874 131 741 q 591 1007 369 1007 q 926 872 806 1007 q 1046 497 1046 736 m 262 497 q 346 197 262 300 q 589 94 429 94 q 831 196 749 94 q 914 497 914 298 q 832 797 914 696 q 591 897 750 897 q 346 795 429 897 q 262 497 262 693 m -20 790 q 17 919 -1 841 q 42 1047 35 998 l 172 1047 l 172 1031 q 126 909 162 989 q 53 770 91 830 l -20 770 l -20 790 z "},"Ύ":{"ha":968,"x_min":-34,"x_max":968,"o":"m 575 504 l 833 991 l 968 991 l 637 385 l 637 0 l 512 0 l 512 379 l 182 991 l 318 991 l 575 504 m -34 790 q 4 919 -14 841 q 28 1047 22 998 l 159 1047 l 159 1031 q 113 909 149 989 q 39 770 77 830 l -34 770 l -34 790 z "},"Ώ":{"ha":1131,"x_min":-20,"x_max":1080,"o":"m 588 897 q 348 811 429 897 q 266 557 266 724 q 322 296 266 405 q 498 100 378 186 l 498 0 l 98 0 l 98 110 l 345 110 q 188 305 242 189 q 134 561 134 422 q 254 888 134 770 q 588 1007 375 1007 q 924 889 804 1007 q 1044 562 1044 771 q 989 305 1044 422 q 833 110 935 188 l 1080 110 l 1080 0 l 680 0 l 680 100 q 856 297 800 186 q 913 557 913 408 q 830 810 913 724 q 588 897 748 897 m -20 790 q 17 919 -1 841 q 42 1047 35 998 l 172 1047 l 172 1031 q 126 909 162 989 q 53 770 91 830 l -20 770 l -20 790 z "},"ΐ":{"ha":481,"x_min":-18,"x_max":456,"o":"m 235 745 l 235 220 q 260 119 235 153 q 342 86 285 86 q 405 91 372 86 q 456 102 438 96 l 456 8 q 399 -7 437 0 q 325 -14 361 -14 q 164 44 214 -14 q 114 218 114 102 l 114 745 l 235 745 m 144 958 q 206 1164 182 1055 l 340 1164 l 340 1150 q 282 1052 320 1110 q 202 942 243 993 l 144 942 l 144 958 m -18 946 q 47 1014 -18 1014 q 92 998 73 1014 q 111 946 111 982 q 92 893 111 910 q 47 876 73 876 q 1 893 19 876 q -18 946 -18 910 m 287 946 q 351 1014 287 1014 q 395 998 376 1014 q 414 946 414 982 q 397 896 414 916 q 351 876 380 876 q 304 893 322 876 q 287 946 287 910 z "},"Α":{"ha":888,"x_min":0,"x_max":886,"o":"m 757 0 l 637 307 l 244 307 l 126 0 l 0 0 l 387 996 l 500 996 l 886 0 l 757 0 m 600 418 l 489 718 l 441 867 q 399 718 421 785 l 286 418 l 600 418 z "},"Β":{"ha":903,"x_min":135,"x_max":828,"o":"m 135 991 l 418 991 q 706 932 617 991 q 794 746 794 873 q 746 601 794 658 q 606 526 698 543 l 606 519 q 774 440 720 500 q 828 282 828 380 q 737 75 828 149 q 484 0 646 0 l 135 0 l 135 991 m 260 570 l 443 570 q 612 607 559 570 q 665 732 665 644 q 607 849 665 813 q 424 885 549 885 l 260 885 l 260 570 m 260 465 l 260 106 l 460 106 q 637 152 579 106 q 694 292 694 198 q 633 423 694 380 q 450 465 572 465 l 260 465 z "},"Γ":{"ha":728,"x_min":135,"x_max":694,"o":"m 694 991 l 694 880 l 260 880 l 260 0 l 135 0 l 135 991 l 694 991 z "},"Δ":{"ha":807,"x_min":28,"x_max":779,"o":"m 28 77 l 340 991 l 465 991 l 779 75 l 779 0 l 28 0 l 28 77 m 401 856 q 338 632 367 720 l 161 110 l 642 110 l 468 627 q 401 856 422 763 z "},"Ε":{"ha":772,"x_min":135,"x_max":689,"o":"m 689 0 l 135 0 l 135 991 l 689 991 l 689 882 l 260 882 l 260 572 l 664 572 l 664 464 l 260 464 l 260 110 l 689 110 l 689 0 z "},"Ζ":{"ha":794,"x_min":53,"x_max":741,"o":"m 741 0 l 53 0 l 53 94 l 575 880 l 69 880 l 69 991 l 726 991 l 726 897 l 204 111 l 741 111 l 741 0 z "},"Η":{"ha":1029,"x_min":135,"x_max":893,"o":"m 893 0 l 768 0 l 768 463 l 260 463 l 260 0 l 135 0 l 135 991 l 260 991 l 260 572 l 768 572 l 768 991 l 893 991 l 893 0 z "},"Θ":{"ha":1084,"x_min":83,"x_max":1000,"o":"m 332 558 l 751 558 l 751 450 l 332 450 l 332 558 m 1000 497 q 879 123 1000 259 q 542 -14 758 -14 q 202 120 321 -14 q 83 498 83 254 q 202 874 83 741 q 543 1007 321 1007 q 879 872 758 1007 q 1000 497 1000 738 m 215 497 q 298 197 215 299 q 542 94 382 94 q 786 196 704 94 q 868 497 868 298 q 785 796 868 696 q 543 896 703 896 q 299 795 382 896 q 215 497 215 695 z "},"Ι":{"ha":471,"x_min":56,"x_max":414,"o":"m 414 0 l 56 0 l 56 72 l 172 98 l 172 892 l 56 920 l 56 991 l 414 991 l 414 920 l 297 892 l 297 98 l 414 72 l 414 0 z "},"Κ":{"ha":860,"x_min":135,"x_max":860,"o":"m 860 0 l 713 0 l 361 473 l 260 385 l 260 0 l 135 0 l 135 991 l 260 991 l 260 503 l 345 597 l 699 991 l 844 991 l 452 559 l 860 0 z "},"Λ":{"ha":844,"x_min":0,"x_max":843,"o":"m 486 991 l 843 0 l 711 0 l 492 625 q 419 856 442 766 q 350 627 406 789 l 132 0 l 0 0 l 355 991 l 486 991 z "},"Μ":{"ha":1260,"x_min":135,"x_max":1125,"o":"m 572 0 l 245 869 l 240 869 q 250 602 250 761 l 250 0 l 135 0 l 135 991 l 319 991 l 625 179 l 631 179 l 942 991 l 1125 991 l 1125 0 l 1002 0 l 1002 610 q 1011 868 1002 711 l 1006 868 l 675 0 l 572 0 z "},"Ν":{"ha":1055,"x_min":135,"x_max":921,"o":"m 921 0 l 775 0 l 244 823 l 239 823 l 242 768 q 250 554 250 645 l 250 0 l 135 0 l 135 991 l 279 991 l 310 943 l 635 440 l 808 171 l 814 171 q 808 287 812 187 q 804 432 804 387 l 804 991 l 921 991 l 921 0 z "},"Ξ":{"ha":771,"x_min":49,"x_max":721,"o":"m 132 572 l 637 572 l 637 464 l 132 464 l 132 572 m 77 991 l 693 991 l 693 882 l 77 882 l 77 991 m 721 110 l 721 0 l 49 0 l 49 110 l 721 110 z "},"Ο":{"ha":1084,"x_min":85,"x_max":1000,"o":"m 1000 497 q 880 123 1000 259 q 543 -14 760 -14 q 204 120 324 -14 q 85 498 85 254 q 204 874 85 741 q 545 1007 323 1007 q 880 872 760 1007 q 1000 497 1000 736 m 216 497 q 300 197 216 300 q 543 94 383 94 q 785 196 703 94 q 868 497 868 298 q 786 797 868 696 q 545 897 704 897 q 300 795 383 897 q 216 497 216 693 z "},"Π":{"ha":1015,"x_min":135,"x_max":879,"o":"m 879 0 l 755 0 l 755 882 l 260 882 l 260 0 l 135 0 l 135 991 l 879 991 l 879 0 z "},"Ρ":{"ha":840,"x_min":135,"x_max":770,"o":"m 770 700 q 666 467 770 548 q 374 386 562 386 l 260 386 l 260 0 l 135 0 l 135 991 l 397 991 q 770 700 770 991 m 260 493 l 359 493 q 574 541 507 493 q 640 694 640 589 q 578 838 640 790 q 386 885 517 885 l 260 885 l 260 493 z "},"Σ":{"ha":791,"x_min":50,"x_max":758,"o":"m 50 0 l 50 103 l 375 518 l 58 888 l 58 991 l 718 991 l 718 880 l 267 880 l 201 882 l 514 519 l 187 109 l 414 110 l 758 110 l 758 0 l 50 0 z "},"Τ":{"ha":772,"x_min":14,"x_max":757,"o":"m 449 0 l 323 0 l 323 882 l 14 882 l 14 991 l 757 991 l 757 882 l 449 882 l 449 0 z "},"Υ":{"ha":786,"x_min":0,"x_max":786,"o":"m 393 504 l 652 991 l 786 991 l 456 385 l 456 0 l 330 0 l 330 379 l 0 991 l 136 991 l 393 504 z "},"Φ":{"ha":1117,"x_min":71,"x_max":1044,"o":"m 496 1006 l 619 1006 l 619 884 l 665 884 q 869 837 783 884 q 1000 705 955 789 q 1044 514 1044 621 q 994 315 1044 402 q 855 183 944 227 q 646 139 766 139 l 619 139 l 619 -14 l 496 -14 l 496 139 l 467 139 q 258 184 346 139 q 120 317 170 229 q 71 514 71 404 q 117 704 71 619 q 249 836 163 788 q 452 884 335 884 l 496 884 l 496 1006 m 619 241 l 636 241 q 844 314 770 241 q 918 515 918 387 q 849 708 918 637 q 657 778 781 778 l 619 778 l 619 241 m 496 778 l 458 778 q 267 707 336 778 q 197 515 197 636 q 271 314 197 387 q 481 241 345 241 l 496 241 l 496 778 z "},"Χ":{"ha":814,"x_min":5,"x_max":808,"o":"m 808 0 l 667 0 l 404 431 l 138 0 l 5 0 l 335 517 l 26 991 l 165 991 l 408 603 l 653 991 l 785 991 l 478 519 l 808 0 z "},"Ψ":{"ha":1117,"x_min":74,"x_max":1043,"o":"m 618 0 l 496 0 l 496 301 l 465 301 q 252 346 339 301 q 119 471 165 390 q 74 664 74 553 l 74 991 l 199 991 l 199 667 q 478 408 199 408 l 496 408 l 496 991 l 618 991 l 618 408 l 637 408 q 916 664 916 408 l 916 991 l 1043 991 l 1043 665 q 995 469 1043 553 q 859 343 947 385 q 650 301 771 301 l 618 301 l 618 0 z "},"Ω":{"ha":1086,"x_min":53,"x_max":1035,"o":"m 543 897 q 303 811 385 897 q 221 557 221 724 q 277 296 221 405 q 453 100 333 186 l 453 0 l 53 0 l 53 110 l 300 110 q 143 305 197 189 q 89 561 89 422 q 210 888 89 770 q 543 1007 330 1007 q 879 889 759 1007 q 999 562 999 771 q 944 305 999 422 q 789 110 890 188 l 1035 110 l 1035 0 l 635 0 l 635 100 q 811 297 755 186 q 868 557 868 408 q 786 810 868 724 q 543 897 703 897 z "},"Ϊ":{"ha":471,"x_min":41,"x_max":431,"o":"m 414 0 l 56 0 l 56 72 l 172 98 l 172 892 l 56 920 l 56 991 l 414 991 l 414 920 l 297 892 l 297 98 l 414 72 l 414 0 m 41 1175 q 60 1227 41 1211 q 106 1243 79 1243 q 152 1227 132 1243 q 172 1175 172 1211 q 152 1122 172 1139 q 106 1105 132 1105 q 60 1122 79 1105 q 41 1175 41 1139 m 302 1175 q 321 1227 302 1211 q 366 1243 340 1243 q 412 1227 392 1243 q 431 1175 431 1211 q 412 1122 431 1139 q 366 1105 392 1105 q 321 1122 340 1105 q 302 1175 302 1139 z "},"Ϋ":{"ha":786,"x_min":0,"x_max":786,"o":"m 393 504 l 652 991 l 786 991 l 456 385 l 456 0 l 330 0 l 330 379 l 0 991 l 136 991 l 393 504 m 198 1175 q 217 1227 198 1211 q 263 1243 236 1243 q 309 1227 290 1243 q 329 1175 329 1211 q 309 1122 329 1139 q 263 1105 290 1105 q 217 1122 236 1105 q 198 1175 198 1139 m 459 1175 q 478 1227 459 1211 q 523 1243 497 1243 q 569 1227 549 1243 q 589 1175 589 1211 q 569 1122 589 1139 q 523 1105 549 1105 q 478 1122 497 1105 q 459 1175 459 1139 z "},"ά":{"ha":854,"x_min":77,"x_max":833,"o":"m 403 87 q 564 152 515 87 q 614 363 614 216 l 614 371 q 563 590 614 524 q 401 656 513 656 q 203 368 203 656 q 251 158 203 229 q 403 87 298 87 m 382 -14 q 157 87 238 -14 q 77 370 77 189 q 159 657 77 555 q 393 758 242 758 q 530 730 475 758 q 621 644 584 701 l 629 644 q 673 745 646 707 l 770 745 q 744 610 753 698 q 734 453 734 522 l 734 164 q 751 104 734 121 q 791 86 768 86 q 833 93 813 86 l 833 4 q 801 -8 823 -2 q 755 -14 779 -14 q 666 16 696 -14 q 624 100 635 45 l 614 100 q 517 14 573 41 q 382 -14 461 -14 m 363 861 q 400 990 382 912 q 425 1118 418 1069 l 555 1118 l 555 1103 q 510 981 545 1060 q 436 842 474 901 l 363 842 l 363 861 z "},"έ":{"ha":671,"x_min":60,"x_max":624,"o":"m 493 437 l 493 338 l 392 338 q 182 210 182 338 q 232 118 182 149 q 379 86 282 86 q 495 99 437 86 q 621 144 553 113 l 621 37 q 372 -14 526 -14 q 141 44 223 -14 q 60 203 60 102 q 98 314 60 270 q 225 385 136 359 l 225 392 q 122 454 158 411 q 86 561 86 498 q 164 705 86 652 q 372 758 243 758 q 506 746 448 758 q 624 705 565 733 l 578 608 q 466 648 511 638 q 371 657 421 657 q 203 551 203 657 q 415 437 203 437 l 493 437 m 311 861 q 348 990 330 912 q 373 1118 366 1069 l 503 1118 l 503 1103 q 457 981 493 1060 q 384 842 422 901 l 311 842 l 311 861 z "},"ή":{"ha":859,"x_min":118,"x_max":746,"o":"m 625 -334 l 625 476 q 585 611 625 566 q 458 656 545 656 q 292 591 344 656 q 240 386 240 526 l 240 0 l 118 0 l 118 745 l 216 745 l 235 643 l 241 643 q 338 728 276 698 q 476 758 401 758 q 680 692 613 758 q 746 485 746 625 l 746 -334 l 625 -334 m 385 861 q 422 990 404 912 q 447 1118 440 1069 l 577 1118 l 577 1103 q 531 981 567 1060 q 458 842 496 901 l 385 842 l 385 861 z "},"ί":{"ha":481,"x_min":114,"x_max":456,"o":"m 235 745 l 235 220 q 260 119 235 153 q 342 86 285 86 q 405 91 372 86 q 456 102 438 96 l 456 8 q 399 -7 437 0 q 325 -14 361 -14 q 164 44 214 -14 q 114 218 114 102 l 114 745 l 235 745 m 133 861 q 171 990 153 912 q 195 1118 189 1069 l 326 1118 l 326 1103 q 280 981 315 1060 q 206 842 244 901 l 133 842 l 133 861 z "},"ΰ":{"ha":851,"x_min":110,"x_max":777,"o":"m 427 -14 q 189 72 268 -14 q 110 338 110 157 l 110 745 l 232 745 l 232 342 q 436 86 232 86 q 600 165 547 86 q 653 411 653 245 q 644 569 653 498 q 610 745 635 640 l 732 745 q 767 567 758 644 q 777 406 777 490 q 688 88 777 190 q 427 -14 600 -14 m 386 958 q 448 1164 424 1055 l 582 1164 l 582 1150 q 524 1052 562 1110 q 444 942 486 993 l 386 942 l 386 958 m 224 946 q 289 1014 224 1014 q 334 998 315 1014 q 353 946 353 982 q 334 893 353 910 q 289 876 315 876 q 243 893 261 876 q 224 946 224 910 m 529 946 q 593 1014 529 1014 q 637 998 618 1014 q 656 946 656 982 q 640 896 656 916 q 593 876 623 876 q 547 893 564 876 q 529 946 529 910 z "},"α":{"ha":854,"x_min":77,"x_max":833,"o":"m 403 87 q 564 152 515 87 q 614 363 614 216 l 614 371 q 563 590 614 524 q 401 656 513 656 q 203 368 203 656 q 251 158 203 229 q 403 87 298 87 m 382 -14 q 157 87 238 -14 q 77 370 77 189 q 159 657 77 555 q 393 758 242 758 q 530 730 475 758 q 621 644 584 701 l 629 644 q 673 745 646 707 l 770 745 q 744 610 753 698 q 734 453 734 522 l 734 164 q 751 104 734 121 q 791 86 768 86 q 833 93 813 86 l 833 4 q 801 -8 823 -2 q 755 -14 779 -14 q 666 16 696 -14 q 624 100 635 45 l 614 100 q 517 14 573 41 q 382 -14 461 -14 z "},"β":{"ha":876,"x_min":118,"x_max":814,"o":"m 450 1063 q 685 992 600 1063 q 770 798 770 922 q 558 564 770 598 l 558 558 q 749 476 685 544 q 814 282 814 409 q 725 64 814 141 q 475 -14 637 -14 q 345 -2 399 -14 q 240 33 290 9 l 240 -334 l 118 -334 l 118 743 q 204 979 118 895 q 450 1063 290 1063 m 447 961 q 240 737 240 961 l 240 143 q 341 102 288 118 q 464 86 393 86 q 692 290 692 86 q 629 447 692 393 q 450 501 567 501 l 376 501 l 376 604 l 436 604 q 591 652 537 604 q 644 791 644 701 q 593 917 644 873 q 447 961 541 961 z "},"γ":{"ha":720,"x_min":7,"x_max":713,"o":"m 370 -334 l 237 -334 q 258 -174 237 -272 q 309 8 278 -75 l 7 745 l 134 745 l 290 354 q 337 223 315 291 q 366 123 359 156 l 371 123 q 397 223 375 151 q 439 349 419 296 l 586 745 l 713 745 l 437 18 q 388 -161 407 -61 q 370 -334 370 -262 z "},"δ":{"ha":839,"x_min":75,"x_max":764,"o":"m 366 633 q 232 741 271 687 q 193 861 193 795 q 261 1003 193 951 q 443 1055 328 1055 q 578 1040 513 1055 q 729 981 642 1024 l 676 885 q 552 939 608 923 q 437 956 496 956 q 349 930 382 956 q 317 860 317 904 q 354 777 317 813 q 503 679 391 741 q 705 517 647 600 q 764 328 764 434 q 672 77 764 168 q 416 -14 581 -14 q 168 71 261 -14 q 75 297 75 155 q 151 506 75 418 q 366 633 227 593 m 637 326 q 597 471 637 410 q 463 581 557 531 q 269 477 334 550 q 203 296 203 405 q 260 145 203 202 q 416 87 318 87 q 581 149 524 87 q 637 326 637 210 z "},"ε":{"ha":671,"x_min":60,"x_max":624,"o":"m 493 437 l 493 338 l 392 338 q 182 210 182 338 q 232 118 182 149 q 379 86 282 86 q 495 99 437 86 q 621 144 553 113 l 621 37 q 372 -14 526 -14 q 141 44 223 -14 q 60 203 60 102 q 98 314 60 270 q 225 385 136 359 l 225 392 q 122 454 158 411 q 86 561 86 498 q 164 705 86 652 q 372 758 243 758 q 506 746 448 758 q 624 705 565 733 l 578 608 q 466 648 511 638 q 371 657 421 657 q 203 551 203 657 q 415 437 203 437 l 493 437 z "},"ζ":{"ha":672,"x_min":77,"x_max":635,"o":"m 635 -56 q 547 -271 635 -154 l 427 -271 q 513 -87 513 -156 q 496 -45 513 -60 q 442 -17 479 -30 q 345 7 405 -4 q 142 104 208 31 q 77 311 77 177 q 92 443 77 381 q 136 561 108 505 q 206 671 165 617 q 300 781 247 725 q 490 960 353 836 q 466 958 486 959 q 418 957 447 958 q 285 954 390 956 l 118 954 l 118 1055 l 635 1055 l 635 964 q 392 732 489 842 q 249 526 294 623 q 203 319 203 430 q 223 214 203 254 q 284 150 243 174 q 439 103 326 126 q 588 44 542 82 q 635 -56 635 5 z "},"η":{"ha":859,"x_min":118,"x_max":746,"o":"m 625 -334 l 625 476 q 585 611 625 566 q 458 656 545 656 q 292 591 344 656 q 240 386 240 526 l 240 0 l 118 0 l 118 745 l 216 745 l 235 643 l 241 643 q 338 728 276 698 q 476 758 401 758 q 680 692 613 758 q 746 485 746 625 l 746 -334 l 625 -334 z "},"θ":{"ha":827,"x_min":77,"x_max":750,"o":"m 750 524 q 666 119 750 251 q 411 -14 581 -14 q 161 123 245 -14 q 77 524 77 260 q 160 931 77 799 q 411 1063 243 1063 q 664 926 578 1063 q 750 524 750 789 m 411 86 q 571 186 519 86 q 627 488 622 287 l 200 488 q 254 183 203 281 q 411 86 305 86 m 411 962 q 258 872 309 962 q 200 589 207 781 l 625 589 q 564 873 616 784 q 411 962 512 962 z "},"ι":{"ha":481,"x_min":114,"x_max":456,"o":"m 235 745 l 235 220 q 260 119 235 153 q 342 86 285 86 q 405 91 372 86 q 456 102 438 96 l 456 8 q 399 -7 437 0 q 325 -14 361 -14 q 164 44 214 -14 q 114 218 114 102 l 114 745 l 235 745 z "},"κ":{"ha":742,"x_min":118,"x_max":729,"o":"m 559 745 l 707 745 l 425 415 l 729 0 l 583 0 l 339 336 l 248 261 l 248 0 l 118 0 l 118 745 l 248 745 l 248 551 q 239 364 248 457 l 296 433 l 559 745 z "},"λ":{"ha":753,"x_min":-8,"x_max":753,"o":"m -8 0 l 313 730 l 275 835 q 236 918 252 895 q 196 951 219 940 q 140 962 174 962 q 62 954 98 962 l 62 1053 q 154 1064 109 1064 q 260 1044 218 1064 q 333 980 302 1023 q 401 831 363 936 l 642 161 q 671 104 655 123 q 711 86 687 86 q 753 93 728 86 l 753 3 q 673 -14 719 -14 q 593 12 623 -14 q 541 98 562 37 l 439 383 q 370 604 381 548 l 364 604 q 288 390 342 519 l 118 0 l -8 0 z "},"μ":{"ha":865,"x_min":118,"x_max":747,"o":"m 240 264 q 407 87 240 87 q 573 151 522 87 q 625 357 625 214 l 625 745 l 747 745 l 747 0 l 648 0 l 629 100 l 623 100 q 399 -14 549 -14 q 239 49 300 -14 l 233 49 q 240 -117 240 -1 l 240 -334 l 118 -334 l 118 745 l 240 745 l 240 264 z "},"ν":{"ha":760,"x_min":0,"x_max":703,"o":"m 0 745 l 126 745 l 275 343 q 296 285 284 318 q 319 219 308 252 q 340 154 331 185 q 355 103 350 123 l 361 103 q 530 371 477 222 q 582 745 582 519 l 703 745 q 632 326 703 498 q 410 0 562 153 l 278 0 l 0 745 z "},"ξ":{"ha":663,"x_min":75,"x_max":635,"o":"m 75 286 q 128 450 75 379 q 269 549 180 520 l 269 557 q 122 746 122 599 q 170 877 122 824 q 328 962 217 930 q 160 954 230 954 l 118 954 l 118 1055 l 599 1055 l 599 961 l 562 961 q 399 935 474 961 q 282 860 325 908 q 240 749 240 812 q 295 637 240 673 q 467 602 350 602 l 582 602 l 582 509 l 463 509 q 274 451 345 509 q 203 296 203 393 q 220 210 203 243 q 268 157 237 177 q 344 125 299 137 q 444 102 389 113 q 590 42 545 79 q 635 -56 635 5 q 551 -271 635 -149 l 436 -271 q 496 -170 473 -220 q 518 -86 518 -120 q 478 -30 518 -50 q 349 7 437 -9 q 144 98 213 30 q 75 286 75 166 z "},"ο":{"ha":840,"x_min":77,"x_max":765,"o":"m 765 374 q 673 89 765 191 q 418 -14 581 -14 q 239 34 317 -14 q 119 169 161 81 q 77 374 77 257 q 168 657 77 555 q 422 758 258 758 q 672 655 580 758 q 765 374 765 551 m 203 374 q 258 160 203 233 q 421 87 313 87 q 583 160 528 87 q 639 374 639 233 q 583 585 639 514 q 419 656 527 656 q 203 374 203 656 z "},"π":{"ha":916,"x_min":17,"x_max":871,"o":"m 789 86 q 850 100 825 86 l 850 4 q 758 -14 817 -14 q 604 164 604 -14 l 604 643 l 289 643 l 289 0 l 168 0 l 168 643 l 17 643 l 17 696 l 117 745 l 871 745 l 871 643 l 725 643 l 725 172 q 789 86 725 86 z "},"ρ":{"ha":840,"x_min":110,"x_max":764,"o":"m 764 372 q 677 87 764 188 q 435 -14 591 -14 q 233 49 315 -14 l 227 49 q 233 -136 233 3 l 233 -334 l 110 -334 l 110 382 q 196 661 110 563 q 441 758 281 758 q 677 655 590 758 q 764 372 764 552 m 436 656 q 283 587 332 656 q 233 380 233 519 l 233 155 q 433 87 312 87 q 591 159 543 87 q 639 372 639 231 q 591 585 639 515 q 436 656 543 656 z "},"ς":{"ha":672,"x_min":77,"x_max":636,"o":"m 203 353 q 222 222 203 266 q 288 153 241 179 q 443 103 335 126 q 588 44 541 82 q 635 -56 635 7 q 551 -271 635 -153 l 436 -271 q 495 -173 471 -224 q 519 -86 519 -121 q 504 -45 519 -60 q 449 -16 488 -30 q 350 8 411 -3 q 143 121 209 35 q 77 351 77 206 q 169 652 77 546 q 435 758 262 758 q 544 747 490 758 q 636 718 597 735 l 597 616 q 429 652 503 652 q 258 579 314 652 q 203 353 203 507 z "},"σ":{"ha":857,"x_min":77,"x_max":823,"o":"m 764 342 q 722 155 764 236 q 602 30 680 74 q 418 -14 524 -14 q 167 84 257 -14 q 77 355 77 182 q 481 745 77 745 l 823 745 l 823 643 l 643 643 q 764 342 764 530 m 203 355 q 259 156 203 224 q 421 87 315 87 q 583 153 526 87 q 639 339 639 218 q 524 643 639 516 l 481 643 q 268 574 333 643 q 203 355 203 505 z "},"τ":{"ha":665,"x_min":14,"x_max":628,"o":"m 628 745 l 628 642 l 338 642 l 338 228 q 471 83 338 83 q 589 98 541 83 l 589 7 q 524 -9 562 -3 q 453 -16 486 -16 q 271 42 329 -16 q 214 215 214 100 l 214 642 l 14 642 l 14 696 l 115 745 l 628 745 z "},"υ":{"ha":851,"x_min":110,"x_max":777,"o":"m 427 -14 q 189 72 268 -14 q 110 338 110 157 l 110 745 l 232 745 l 232 342 q 436 86 232 86 q 600 165 547 86 q 653 411 653 245 q 644 569 653 498 q 610 745 635 640 l 732 745 q 767 567 758 644 q 777 406 777 490 q 688 88 777 190 q 427 -14 600 -14 z "},"φ":{"ha":1007,"x_min":77,"x_max":930,"o":"m 436 -334 l 436 -12 q 168 95 259 -3 q 77 376 77 193 q 218 751 77 578 l 313 686 q 225 531 252 607 q 199 372 199 456 q 436 87 199 111 l 436 501 q 494 691 436 625 q 656 758 551 758 q 856 659 781 758 q 930 390 930 559 q 884 182 930 270 q 753 44 838 94 q 555 -12 669 -6 l 555 -334 l 436 -334 m 807 389 q 766 585 807 513 q 657 657 726 657 q 582 618 609 657 q 555 503 555 580 l 555 87 q 741 177 674 98 q 807 389 807 256 z "},"χ":{"ha":765,"x_min":-16,"x_max":757,"o":"m 125 749 q 191 733 164 749 q 240 688 218 718 q 292 579 261 658 l 386 340 l 599 745 l 729 745 l 437 222 l 567 -106 q 622 -206 595 -178 q 694 -233 650 -233 q 757 -228 724 -233 l 757 -322 q 671 -334 713 -334 q 545 -294 593 -334 q 456 -144 496 -254 l 357 114 l 115 -334 l -16 -334 l 301 236 l 187 532 q 143 618 167 587 q 85 650 120 650 q 39 642 58 650 l 39 737 q 125 749 75 749 z "},"ψ":{"ha":1057,"x_min":110,"x_max":972,"o":"m 591 1054 l 591 90 q 787 178 721 102 q 852 389 852 253 q 843 555 852 477 q 808 745 833 633 l 929 745 q 972 393 972 557 q 876 102 972 205 q 591 -12 779 -1 l 591 -334 l 472 -334 l 472 -12 q 201 92 292 -6 q 110 375 110 189 l 110 745 l 231 745 l 231 371 q 472 89 231 106 l 472 1054 l 591 1054 z "},"ω":{"ha":1086,"x_min":78,"x_max":1008,"o":"m 343 -14 q 149 87 219 -14 q 78 361 78 187 q 98 560 78 470 q 160 745 118 650 l 285 745 q 220 555 240 644 q 200 359 200 467 q 240 159 200 231 q 351 87 279 87 q 450 136 416 87 q 485 268 485 184 l 485 478 l 602 478 l 602 268 q 636 134 602 181 q 733 87 670 87 q 845 156 804 87 q 886 359 886 224 q 866 555 886 466 q 802 745 846 645 l 926 745 q 990 553 971 640 q 1008 361 1008 465 q 938 86 1008 186 q 743 -14 867 -14 q 546 111 593 -14 l 539 111 q 343 -14 495 -14 z "},"ϊ":{"ha":481,"x_min":-15,"x_max":456,"o":"m 235 745 l 235 220 q 260 119 235 153 q 342 86 285 86 q 405 91 372 86 q 456 102 438 96 l 456 8 q 399 -7 437 0 q 325 -14 361 -14 q 164 44 214 -14 q 114 218 114 102 l 114 745 l 235 745 m -15 946 q 4 998 -15 982 q 50 1014 23 1014 q 96 998 77 1014 q 116 946 116 982 q 96 893 116 910 q 50 876 77 876 q 4 893 23 876 q -15 946 -15 910 m 246 946 q 265 998 246 982 q 310 1014 284 1014 q 356 998 336 1014 q 376 946 376 982 q 356 893 376 910 q 310 876 336 876 q 265 893 284 876 q 246 946 246 910 z "},"ϋ":{"ha":851,"x_min":110,"x_max":777,"o":"m 427 -14 q 189 72 268 -14 q 110 338 110 157 l 110 745 l 232 745 l 232 342 q 436 86 232 86 q 600 165 547 86 q 653 411 653 245 q 644 569 653 498 q 610 745 635 640 l 732 745 q 767 567 758 644 q 777 406 777 490 q 688 88 777 190 q 427 -14 600 -14 m 244 946 q 263 998 244 982 q 309 1014 282 1014 q 355 998 336 1014 q 375 946 375 982 q 355 893 375 910 q 309 876 336 876 q 263 893 282 876 q 244 946 244 910 m 505 946 q 524 998 505 982 q 569 1014 543 1014 q 615 998 595 1014 q 635 946 635 982 q 615 893 635 910 q 569 876 595 876 q 524 893 543 876 q 505 946 505 910 z "},"ό":{"ha":840,"x_min":77,"x_max":765,"o":"m 765 374 q 673 89 765 191 q 418 -14 581 -14 q 239 34 317 -14 q 119 169 161 81 q 77 374 77 257 q 168 657 77 555 q 422 758 258 758 q 672 655 580 758 q 765 374 765 551 m 203 374 q 258 160 203 233 q 421 87 313 87 q 583 160 528 87 q 639 374 639 233 q 583 585 639 514 q 419 656 527 656 q 203 374 203 656 m 366 861 q 403 990 385 912 q 428 1118 421 1069 l 558 1118 l 558 1103 q 512 981 548 1060 q 439 842 477 901 l 366 842 l 366 861 z "},"ύ":{"ha":851,"x_min":110,"x_max":777,"o":"m 427 -14 q 189 72 268 -14 q 110 338 110 157 l 110 745 l 232 745 l 232 342 q 436 86 232 86 q 600 165 547 86 q 653 411 653 245 q 644 569 653 498 q 610 745 635 640 l 732 745 q 767 567 758 644 q 777 406 777 490 q 688 88 777 190 q 427 -14 600 -14 m 370 861 q 407 990 389 912 q 432 1118 425 1069 l 562 1118 l 562 1103 q 516 981 552 1060 q 443 842 481 901 l 370 842 l 370 861 z "},"ώ":{"ha":1086,"x_min":78,"x_max":1008,"o":"m 343 -14 q 149 87 219 -14 q 78 361 78 187 q 98 560 78 470 q 160 745 118 650 l 285 745 q 220 555 240 644 q 200 359 200 467 q 240 159 200 231 q 351 87 279 87 q 450 136 416 87 q 485 268 485 184 l 485 478 l 602 478 l 602 268 q 636 134 602 181 q 733 87 670 87 q 845 156 804 87 q 886 359 886 224 q 866 555 886 466 q 802 745 846 645 l 926 745 q 990 553 971 640 q 1008 361 1008 465 q 938 86 1008 186 q 743 -14 867 -14 q 546 111 593 -14 l 539 111 q 343 -14 495 -14 m 485 861 q 523 990 505 912 q 547 1118 541 1069 l 677 1118 l 677 1103 q 632 981 667 1060 q 558 842 596 901 l 485 842 l 485 861 z "},"Ё":{"ha":772,"x_min":135,"x_max":689,"o":"m 689 0 l 135 0 l 135 991 l 689 991 l 689 882 l 260 882 l 260 572 l 664 572 l 664 464 l 260 464 l 260 110 l 689 110 l 689 0 m 229 1175 q 248 1227 229 1211 q 294 1243 267 1243 q 340 1227 321 1243 q 360 1175 360 1211 q 340 1122 360 1139 q 294 1105 321 1105 q 248 1122 267 1105 q 229 1175 229 1139 m 490 1175 q 509 1227 490 1211 q 554 1243 528 1243 q 600 1227 581 1243 q 620 1175 620 1211 q 600 1122 620 1139 q 554 1105 581 1105 q 509 1122 528 1105 q 490 1175 490 1139 z "},"Ђ":{"ha":1029,"x_min":14,"x_max":925,"o":"m 672 -14 q 567 3 602 -14 l 567 111 q 667 97 607 97 q 768 137 734 97 q 802 252 802 177 l 802 340 q 759 461 802 425 q 624 498 715 498 l 368 498 l 368 0 l 244 0 l 244 882 l 14 882 l 14 991 l 669 991 l 669 882 l 368 882 l 368 608 l 633 608 q 850 543 774 608 q 925 357 925 477 l 925 260 q 858 59 925 131 q 672 -14 791 -14 z "},"Ѓ":{"ha":728,"x_min":135,"x_max":694,"o":"m 694 991 l 694 880 l 260 880 l 260 0 l 135 0 l 135 991 l 694 991 m 326 1088 q 392 1180 352 1120 q 458 1293 431 1240 l 606 1293 l 606 1279 q 513 1170 576 1236 q 407 1071 450 1104 l 326 1071 l 326 1088 z "},"Є":{"ha":893,"x_min":85,"x_max":852,"o":"m 566 896 q 327 813 416 896 q 220 571 237 730 l 703 571 l 703 463 l 216 463 q 313 189 224 281 q 566 96 401 96 q 814 135 677 96 l 814 26 q 549 -14 707 -14 q 204 118 323 -14 q 85 497 85 250 q 212 870 85 734 q 568 1007 340 1007 q 852 946 728 1007 l 802 839 q 566 896 683 896 z "},"Ѕ":{"ha":762,"x_min":71,"x_max":697,"o":"m 697 265 q 604 61 697 136 q 343 -14 510 -14 q 71 33 167 -14 l 71 153 q 209 110 134 125 q 349 94 283 94 q 516 137 460 94 q 572 254 572 180 q 552 336 572 304 q 484 395 532 368 q 339 458 436 423 q 142 577 201 509 q 83 753 83 645 q 171 937 83 869 q 400 1006 258 1006 q 673 950 549 1006 l 635 843 q 397 896 507 896 q 259 858 309 896 q 210 751 210 820 q 229 670 210 703 q 291 612 248 638 q 427 551 334 585 q 591 472 537 511 q 671 384 646 434 q 697 265 697 334 z "},"І":{"ha":471,"x_min":56,"x_max":414,"o":"m 414 0 l 56 0 l 56 72 l 172 98 l 172 892 l 56 920 l 56 991 l 414 991 l 414 920 l 297 892 l 297 98 l 414 72 l 414 0 z "},"Ї":{"ha":471,"x_min":41,"x_max":431,"o":"m 414 0 l 56 0 l 56 72 l 172 98 l 172 892 l 56 920 l 56 991 l 414 991 l 414 920 l 297 892 l 297 98 l 414 72 l 414 0 m 41 1175 q 60 1227 41 1211 q 106 1243 79 1243 q 152 1227 132 1243 q 172 1175 172 1211 q 152 1122 172 1139 q 106 1105 132 1105 q 60 1122 79 1105 q 41 1175 41 1139 m 302 1175 q 321 1227 302 1211 q 366 1243 340 1243 q 412 1227 392 1243 q 431 1175 431 1211 q 412 1122 431 1139 q 366 1105 392 1105 q 321 1122 340 1105 q 302 1175 302 1139 z "},"Ј":{"ha":379,"x_min":-109,"x_max":253,"o":"m -5 -264 q -109 -245 -69 -264 l -109 -140 q -8 -154 -60 -154 q 94 -113 60 -154 q 127 5 127 -72 l 127 991 l 253 991 l 253 16 q 186 -191 253 -119 q -5 -264 119 -264 z "},"Љ":{"ha":1300,"x_min":1,"x_max":1247,"o":"m 1247 290 q 1154 75 1247 150 q 882 0 1060 0 l 654 0 l 654 882 l 412 882 q 346 414 374 593 q 289 150 317 235 q 213 24 260 64 q 92 -16 165 -16 q 1 1 45 -16 l 1 106 q 78 89 37 89 q 145 125 117 89 q 191 244 172 162 q 234 480 210 326 q 307 991 258 633 l 779 991 l 779 572 l 861 572 q 1149 502 1051 572 q 1247 290 1247 432 m 779 107 l 867 107 q 1057 152 996 107 q 1118 290 1118 197 q 1055 422 1118 381 q 846 464 992 464 l 779 464 l 779 107 z "},"Њ":{"ha":1331,"x_min":135,"x_max":1278,"o":"m 1278 290 q 1184 74 1278 149 q 914 0 1090 0 l 685 0 l 685 463 l 260 463 l 260 0 l 135 0 l 135 991 l 260 991 l 260 572 l 685 572 l 685 991 l 811 991 l 811 572 l 892 572 q 1180 502 1082 572 q 1278 290 1278 432 m 811 107 l 899 107 q 1088 152 1027 107 q 1149 290 1149 197 q 1086 422 1149 381 q 878 464 1023 464 l 811 464 l 811 107 z "},"Ћ":{"ha":1029,"x_min":14,"x_max":925,"o":"m 368 607 l 637 607 q 851 543 777 607 q 925 355 925 479 l 925 0 l 800 0 l 800 340 q 760 460 800 424 q 629 497 720 497 l 368 497 l 368 0 l 243 0 l 243 880 l 14 880 l 14 991 l 708 991 l 708 880 l 368 880 l 368 607 z "},"Ќ":{"ha":859,"x_min":135,"x_max":859,"o":"m 859 0 l 708 0 l 260 503 l 260 0 l 135 0 l 135 991 l 260 991 l 260 511 l 697 991 l 839 991 l 408 510 l 859 0 m 378 1088 q 443 1180 404 1120 q 510 1293 483 1240 l 657 1293 l 657 1279 q 564 1170 627 1236 q 458 1071 501 1104 l 378 1071 l 378 1088 z "},"Ў":{"ha":867,"x_min":16,"x_max":867,"o":"m 199 -14 q 64 7 122 -14 l 64 125 q 195 97 125 97 q 312 131 267 97 q 397 254 356 165 l 16 991 l 153 991 l 436 440 q 465 370 453 408 l 471 370 l 476 386 l 497 441 l 734 991 l 867 991 l 550 282 q 448 98 494 156 q 342 14 401 41 q 199 -14 283 -14 m 444 1071 q 254 1120 313 1071 q 188 1282 195 1170 l 302 1282 q 339 1183 308 1211 q 446 1156 370 1156 q 550 1185 516 1156 q 591 1282 583 1215 l 706 1282 q 632 1121 696 1172 q 444 1071 568 1071 z "},"Џ":{"ha":1015,"x_min":135,"x_max":879,"o":"m 879 0 l 567 0 l 567 -261 l 439 -261 l 439 0 l 135 0 l 135 991 l 260 991 l 260 111 l 755 111 l 755 991 l 879 991 l 879 0 z "},"А":{"ha":888,"x_min":0,"x_max":886,"o":"m 757 0 l 637 307 l 244 307 l 126 0 l 0 0 l 387 996 l 500 996 l 886 0 l 757 0 m 600 418 l 489 718 l 441 867 q 399 718 421 785 l 286 418 l 600 418 z "},"Б":{"ha":854,"x_min":135,"x_max":783,"o":"m 783 290 q 695 72 783 144 q 425 0 607 0 l 135 0 l 135 991 l 724 991 l 724 882 l 260 882 l 260 572 l 407 572 q 690 505 597 572 q 783 290 783 438 m 260 107 l 412 107 q 597 150 540 107 q 654 290 654 193 q 595 425 654 385 q 392 464 535 464 l 260 464 l 260 107 z "},"В":{"ha":903,"x_min":135,"x_max":828,"o":"m 135 991 l 418 991 q 706 932 617 991 q 794 746 794 873 q 746 601 794 658 q 606 526 698 543 l 606 519 q 774 440 720 500 q 828 282 828 380 q 737 75 828 149 q 484 0 646 0 l 135 0 l 135 991 m 260 570 l 443 570 q 612 607 559 570 q 665 732 665 644 q 607 849 665 813 q 424 885 549 885 l 260 885 l 260 570 m 260 465 l 260 106 l 460 106 q 637 152 579 106 q 694 292 694 198 q 633 423 694 380 q 450 465 572 465 l 260 465 z "},"Г":{"ha":728,"x_min":135,"x_max":694,"o":"m 694 991 l 694 880 l 260 880 l 260 0 l 135 0 l 135 991 l 694 991 z "},"Д":{"ha":960,"x_min":8,"x_max":929,"o":"m 929 -261 l 810 -261 l 810 0 l 127 0 l 127 -261 l 8 -261 l 8 111 l 85 111 q 258 526 185 282 q 345 991 332 769 l 803 991 l 803 111 l 929 111 l 929 -261 m 679 111 l 679 879 l 454 879 q 372 485 441 710 q 216 111 302 260 l 679 111 z "},"Е":{"ha":772,"x_min":135,"x_max":689,"o":"m 689 0 l 135 0 l 135 991 l 689 991 l 689 882 l 260 882 l 260 572 l 664 572 l 664 464 l 260 464 l 260 110 l 689 110 l 689 0 z "},"Ж":{"ha":1186,"x_min":1,"x_max":1183,"o":"m 400 510 l 16 991 l 154 991 l 533 511 l 533 991 l 653 991 l 653 511 l 1032 991 l 1171 991 l 786 511 l 1183 0 l 1040 0 l 653 503 l 653 0 l 533 0 l 533 503 l 144 0 l 1 0 l 400 510 z "},"З":{"ha":817,"x_min":53,"x_max":742,"o":"m 721 760 q 659 602 721 663 q 486 524 597 541 l 486 518 q 677 440 612 501 q 742 281 742 379 q 637 64 742 142 q 342 -14 532 -14 q 53 40 163 -14 l 53 154 q 197 105 120 122 q 340 89 274 89 q 543 138 475 89 q 611 281 611 188 q 534 415 611 370 q 306 461 458 461 l 164 461 l 164 566 l 298 566 q 518 615 446 566 q 591 747 591 664 q 537 861 591 819 q 392 903 484 903 q 253 884 315 903 q 117 818 191 866 l 57 903 q 393 1006 200 1006 q 633 939 546 1006 q 721 760 721 873 z "},"И":{"ha":1067,"x_min":136,"x_max":933,"o":"m 136 991 l 253 991 l 253 447 q 250 294 253 389 q 243 171 246 199 l 249 171 l 794 991 l 933 991 l 933 0 l 817 0 l 817 539 q 821 704 817 610 q 828 825 826 798 l 822 825 l 275 0 l 136 0 l 136 991 z "},"Й":{"ha":1067,"x_min":136,"x_max":933,"o":"m 136 991 l 253 991 l 253 447 q 250 294 253 389 q 243 171 246 199 l 249 171 l 794 991 l 933 991 l 933 0 l 817 0 l 817 539 q 821 704 817 610 q 828 825 826 798 l 822 825 l 275 0 l 136 0 l 136 991 m 550 1071 q 360 1120 420 1071 q 294 1282 301 1170 l 408 1282 q 445 1183 414 1211 q 553 1156 476 1156 q 656 1185 623 1156 q 697 1282 690 1215 l 812 1282 q 739 1121 802 1172 q 550 1071 675 1071 z "},"К":{"ha":859,"x_min":135,"x_max":859,"o":"m 859 0 l 708 0 l 260 503 l 260 0 l 135 0 l 135 991 l 260 991 l 260 511 l 697 991 l 839 991 l 408 510 l 859 0 z "},"Л":{"ha":983,"x_min":1,"x_max":848,"o":"m 848 0 l 724 0 l 724 882 l 410 882 l 389 720 q 314 242 346 387 q 231 41 282 98 q 92 -16 180 -16 q 1 1 41 -16 l 1 106 q 78 89 37 89 q 163 156 132 89 q 232 462 195 224 q 306 991 269 700 l 848 991 l 848 0 z "},"М":{"ha":1260,"x_min":135,"x_max":1125,"o":"m 572 0 l 245 869 l 240 869 q 250 602 250 761 l 250 0 l 135 0 l 135 991 l 319 991 l 625 179 l 631 179 l 942 991 l 1125 991 l 1125 0 l 1002 0 l 1002 610 q 1011 868 1002 711 l 1006 868 l 675 0 l 572 0 z "},"Н":{"ha":1029,"x_min":135,"x_max":893,"o":"m 893 0 l 768 0 l 768 463 l 260 463 l 260 0 l 135 0 l 135 991 l 260 991 l 260 572 l 768 572 l 768 991 l 893 991 l 893 0 z "},"О":{"ha":1084,"x_min":85,"x_max":1000,"o":"m 1000 497 q 880 123 1000 259 q 543 -14 760 -14 q 204 120 324 -14 q 85 498 85 254 q 204 874 85 741 q 545 1007 323 1007 q 880 872 760 1007 q 1000 497 1000 736 m 216 497 q 300 197 216 300 q 543 94 383 94 q 785 196 703 94 q 868 497 868 298 q 786 797 868 696 q 545 897 704 897 q 300 795 383 897 q 216 497 216 693 z "},"П":{"ha":1015,"x_min":135,"x_max":879,"o":"m 879 0 l 755 0 l 755 882 l 260 882 l 260 0 l 135 0 l 135 991 l 879 991 l 879 0 z "},"Р":{"ha":840,"x_min":135,"x_max":770,"o":"m 770 700 q 666 467 770 548 q 374 386 562 386 l 260 386 l 260 0 l 135 0 l 135 991 l 397 991 q 770 700 770 991 m 260 493 l 359 493 q 574 541 507 493 q 640 694 640 589 q 578 838 640 790 q 386 885 517 885 l 260 885 l 260 493 z "},"С":{"ha":878,"x_min":85,"x_max":835,"o":"m 559 896 q 308 789 399 896 q 216 496 216 682 q 305 200 216 304 q 558 96 394 96 q 796 135 664 96 l 796 26 q 675 -5 733 3 q 541 -14 616 -14 q 203 120 321 -14 q 85 497 85 253 q 141 766 85 650 q 306 943 198 881 q 561 1006 414 1006 q 835 947 718 1006 l 785 842 q 559 896 666 896 z "},"Т":{"ha":772,"x_min":14,"x_max":757,"o":"m 449 0 l 323 0 l 323 882 l 14 882 l 14 991 l 757 991 l 757 882 l 449 882 l 449 0 z "},"У":{"ha":867,"x_min":16,"x_max":867,"o":"m 199 -14 q 64 7 122 -14 l 64 125 q 195 97 125 97 q 312 131 267 97 q 397 254 356 165 l 16 991 l 153 991 l 436 440 q 465 370 453 408 l 471 370 l 476 386 l 497 441 l 734 991 l 867 991 l 550 282 q 448 98 494 156 q 342 14 401 41 q 199 -14 283 -14 z "},"Ф":{"ha":1117,"x_min":71,"x_max":1044,"o":"m 496 1006 l 619 1006 l 619 884 l 665 884 q 869 837 783 884 q 1000 705 955 789 q 1044 514 1044 621 q 994 315 1044 402 q 855 183 944 227 q 646 139 766 139 l 619 139 l 619 -14 l 496 -14 l 496 139 l 467 139 q 258 184 346 139 q 120 317 170 229 q 71 514 71 404 q 117 704 71 619 q 249 836 163 788 q 452 884 335 884 l 496 884 l 496 1006 m 619 241 l 636 241 q 844 314 770 241 q 918 515 918 387 q 849 708 918 637 q 657 778 781 778 l 619 778 l 619 241 m 496 778 l 458 778 q 267 707 336 778 q 197 515 197 636 q 271 314 197 387 q 481 241 345 241 l 496 241 l 496 778 z "},"Х":{"ha":814,"x_min":5,"x_max":808,"o":"m 808 0 l 667 0 l 404 431 l 138 0 l 5 0 l 335 517 l 26 991 l 165 991 l 408 603 l 653 991 l 785 991 l 478 519 l 808 0 z "},"Ц":{"ha":1029,"x_min":135,"x_max":1000,"o":"m 879 110 l 1000 110 l 1000 -261 l 880 -261 l 880 0 l 135 0 l 135 991 l 260 991 l 260 111 l 755 111 l 755 991 l 879 991 l 879 110 z "},"Ч":{"ha":970,"x_min":111,"x_max":835,"o":"m 835 0 l 710 0 l 710 407 q 541 358 609 371 q 403 345 473 345 q 186 410 262 345 q 111 596 111 475 l 111 991 l 236 991 l 236 614 q 278 494 236 534 q 415 454 320 454 q 539 465 479 454 q 710 511 600 475 l 710 991 l 835 991 l 835 0 z "},"Ш":{"ha":1440,"x_min":135,"x_max":1304,"o":"m 1304 0 l 135 0 l 135 991 l 260 991 l 260 111 l 656 111 l 656 991 l 781 991 l 781 111 l 1178 111 l 1178 991 l 1304 991 l 1304 0 z "},"Щ":{"ha":1446,"x_min":135,"x_max":1404,"o":"m 135 0 l 135 991 l 260 991 l 260 111 l 646 111 l 646 991 l 772 991 l 772 111 l 1160 111 l 1160 991 l 1284 991 l 1284 110 l 1404 110 l 1404 -261 l 1284 -261 l 1284 0 l 135 0 z "},"Ъ":{"ha":961,"x_min":11,"x_max":890,"o":"m 890 290 q 801 75 890 149 q 539 0 711 0 l 241 0 l 241 882 l 11 882 l 11 991 l 366 991 l 366 572 l 522 572 q 797 502 703 572 q 890 290 890 431 m 366 107 l 526 107 q 704 152 647 107 q 761 290 761 197 q 702 422 761 381 q 507 464 642 464 l 366 464 l 366 107 z "},"Ы":{"ha":1192,"x_min":135,"x_max":1057,"o":"m 779 290 q 690 75 779 150 q 428 0 601 0 l 135 0 l 135 991 l 260 991 l 260 572 l 412 572 q 686 501 592 572 q 779 290 779 430 m 260 106 l 416 106 q 593 152 537 106 q 650 290 650 197 q 591 422 650 381 q 399 463 533 463 l 260 463 l 260 106 m 1057 0 l 932 0 l 932 991 l 1057 991 l 1057 0 z "},"Ь":{"ha":892,"x_min":135,"x_max":821,"o":"m 821 290 q 727 75 821 151 q 461 0 633 0 l 135 0 l 135 991 l 260 991 l 260 572 l 446 572 q 724 500 628 572 q 821 290 821 428 m 260 107 l 449 107 q 692 290 692 107 q 630 422 692 380 q 431 464 568 464 l 260 464 l 260 107 z "},"Э":{"ha":879,"x_min":41,"x_max":793,"o":"m 322 896 q 93 843 209 896 l 41 947 q 323 1006 159 1006 q 577 946 471 1006 q 738 776 683 886 q 793 513 793 665 q 669 123 793 259 q 314 -14 545 -14 q 178 -5 237 -14 q 50 26 119 3 l 50 135 q 168 107 109 119 q 294 96 227 96 q 565 191 473 96 q 661 464 656 286 l 179 464 l 179 574 l 660 574 q 557 810 646 724 q 322 896 468 896 z "},"Ю":{"ha":1461,"x_min":135,"x_max":1375,"o":"m 1375 497 q 1260 122 1375 257 q 937 -14 1145 -14 q 618 111 734 -14 q 494 463 503 235 l 260 463 l 260 0 l 135 0 l 135 991 l 260 991 l 260 572 l 497 572 q 627 895 513 782 q 935 1007 741 1007 q 1259 872 1142 1007 q 1375 497 1375 737 m 625 497 q 703 197 625 300 q 933 94 781 94 q 1165 196 1086 94 q 1244 497 1244 298 q 1167 797 1244 696 q 936 897 1089 897 q 704 795 782 897 q 625 497 625 693 z "},"Я":{"ha":888,"x_min":31,"x_max":753,"o":"m 433 411 l 176 0 l 31 0 l 309 433 q 154 537 203 467 q 104 714 104 607 q 197 920 104 848 q 475 991 290 991 l 753 991 l 753 0 l 628 0 l 628 411 l 433 411 m 628 885 l 478 885 q 294 842 354 885 q 233 708 233 798 q 484 517 233 517 l 628 517 l 628 885 z "},"а":{"ha":779,"x_min":64,"x_max":667,"o":"m 578 0 l 554 106 l 549 106 q 438 11 493 36 q 298 -14 382 -14 q 126 44 189 -14 q 64 207 64 102 q 421 444 64 433 l 547 449 l 547 493 q 511 618 547 578 q 393 659 474 659 q 282 641 334 659 q 183 602 229 623 l 146 693 q 269 740 202 723 q 400 757 335 757 q 601 697 535 757 q 667 507 667 637 l 667 0 l 578 0 m 326 85 q 487 140 429 85 q 546 297 546 195 l 546 364 l 436 359 q 249 319 308 355 q 191 205 191 283 q 226 116 191 147 q 326 85 262 85 z "},"б":{"ha":832,"x_min":79,"x_max":757,"o":"m 79 447 q 154 830 79 696 q 390 1000 229 965 q 728 1063 541 1031 l 749 956 l 668 943 q 415 897 511 917 q 268 798 317 876 q 212 572 219 720 l 221 572 q 326 660 260 627 q 465 693 391 693 q 680 605 602 693 q 757 358 757 517 q 667 84 757 181 q 416 -14 576 -14 q 169 108 258 -14 q 79 447 79 229 m 427 87 q 628 346 628 87 q 446 591 628 591 q 350 571 396 591 q 266 517 303 551 q 204 444 228 484 q 427 87 204 87 z "},"в":{"ha":800,"x_min":118,"x_max":754,"o":"m 730 557 q 690 447 730 485 q 574 396 649 410 l 574 390 q 711 334 668 377 q 754 218 754 291 q 676 56 754 113 q 453 0 599 0 l 118 0 l 118 745 l 452 745 q 730 557 730 745 m 632 225 q 583 313 632 288 q 440 338 534 338 l 240 338 l 240 98 l 443 98 q 632 225 632 98 m 611 546 q 571 621 611 598 q 449 643 530 643 l 240 643 l 240 439 l 427 439 q 569 464 526 439 q 611 546 611 488 z "},"г":{"ha":602,"x_min":118,"x_max":572,"o":"m 572 642 l 240 642 l 240 0 l 118 0 l 118 745 l 572 745 l 572 642 z "},"д":{"ha":807,"x_min":26,"x_max":779,"o":"m 779 -258 l 661 -258 l 661 0 l 143 0 l 143 -258 l 26 -258 l 26 103 l 86 103 q 227 394 176 229 q 279 745 277 559 l 671 745 l 671 103 l 779 103 l 779 -258 m 553 103 l 553 648 l 387 648 q 329 348 377 498 q 212 103 281 197 l 553 103 z "},"е":{"ha":783,"x_min":77,"x_max":713,"o":"m 435 -14 q 172 88 267 -14 q 77 367 77 189 q 165 652 77 546 q 406 758 254 758 q 629 668 546 758 q 713 422 713 577 l 713 349 l 203 349 q 267 156 206 222 q 440 90 328 90 q 553 101 500 90 q 679 142 607 111 l 679 35 q 563 -3 617 8 q 435 -14 509 -14 m 404 659 q 266 602 317 659 q 205 446 215 546 l 585 446 q 536 604 583 550 q 404 659 490 659 z "},"ж":{"ha":1042,"x_min":1,"x_max":1038,"o":"m 463 745 l 576 745 l 576 383 l 879 745 l 1011 745 l 704 383 l 1038 0 l 899 0 l 576 378 l 576 0 l 463 0 l 463 378 l 140 0 l 1 0 l 335 383 q 28 745 125 633 l 161 745 l 463 383 l 463 745 z "},"з":{"ha":681,"x_min":46,"x_max":618,"o":"m 265 437 q 476 551 476 437 q 307 657 476 657 q 208 647 254 657 q 97 610 161 637 l 54 707 q 314 758 170 758 q 519 706 445 758 q 593 562 593 654 q 453 397 593 435 l 453 392 q 578 321 538 368 q 618 205 618 275 q 533 45 618 103 q 300 -14 448 -14 q 46 35 136 -14 l 46 144 q 298 86 170 86 q 446 118 394 86 q 497 212 497 150 q 445 307 497 276 q 285 338 393 338 l 184 338 l 184 437 l 265 437 z "},"и":{"ha":893,"x_min":118,"x_max":774,"o":"m 233 745 l 233 290 l 228 159 l 225 121 l 624 745 l 774 745 l 774 0 l 660 0 l 660 439 l 662 533 l 665 623 l 269 0 l 118 0 l 118 745 l 233 745 z "},"й":{"ha":893,"x_min":118,"x_max":774,"o":"m 233 745 l 233 290 l 228 159 l 225 121 l 624 745 l 774 745 l 774 0 l 660 0 l 660 439 l 662 533 l 665 623 l 269 0 l 118 0 l 118 745 l 233 745 m 444 842 q 254 891 313 842 q 188 1053 195 941 l 302 1053 q 339 954 308 982 q 446 926 370 926 q 550 956 516 926 q 591 1053 583 986 l 706 1053 q 632 892 696 943 q 444 842 568 842 z "},"к":{"ha":734,"x_min":118,"x_max":718,"o":"m 558 745 l 692 745 l 374 386 l 718 0 l 576 0 l 240 378 l 240 0 l 118 0 l 118 745 l 240 745 l 240 383 l 558 745 z "},"л":{"ha":803,"x_min":9,"x_max":685,"o":"m 685 0 l 561 0 l 561 643 l 342 643 q 291 259 323 399 q 207 55 258 120 q 74 -9 155 -9 q 9 0 30 -9 l 9 92 q 47 86 24 86 q 166 243 122 86 q 236 745 211 401 l 685 745 l 685 0 z "},"м":{"ha":1036,"x_min":118,"x_max":917,"o":"m 514 117 q 566 269 534 191 l 760 745 l 917 745 l 917 0 l 807 0 l 807 614 q 751 458 783 540 l 566 0 l 467 0 l 281 461 q 254 532 267 494 q 228 614 241 571 l 228 0 l 118 0 l 118 745 l 271 745 l 458 288 q 514 117 484 224 z "},"н":{"ha":885,"x_min":118,"x_max":766,"o":"m 240 745 l 240 435 l 644 435 l 644 745 l 766 745 l 766 0 l 644 0 l 644 332 l 240 332 l 240 0 l 118 0 l 118 745 l 240 745 z "},"о":{"ha":840,"x_min":77,"x_max":765,"o":"m 765 374 q 673 89 765 191 q 418 -14 581 -14 q 239 34 317 -14 q 119 169 161 81 q 77 374 77 257 q 168 657 77 555 q 422 758 258 758 q 672 655 580 758 q 765 374 765 551 m 203 374 q 258 160 203 233 q 421 87 313 87 q 583 160 528 87 q 639 374 639 233 q 583 585 639 514 q 419 656 527 656 q 203 374 203 656 z "},"п":{"ha":867,"x_min":118,"x_max":747,"o":"m 240 0 l 118 0 l 118 745 l 747 745 l 747 0 l 625 0 l 625 640 l 240 640 l 240 0 z "},"р":{"ha":854,"x_min":118,"x_max":778,"o":"m 471 -14 q 240 94 321 -14 l 232 94 l 235 66 q 240 -28 240 14 l 240 -334 l 118 -334 l 118 745 l 218 745 l 235 643 l 240 643 q 340 731 283 704 q 472 758 397 758 q 697 657 617 758 q 778 374 778 557 q 697 89 778 191 q 471 -14 616 -14 m 450 656 q 291 593 340 656 q 240 397 241 531 l 240 374 q 290 155 240 222 q 453 87 340 87 q 599 163 547 87 q 652 375 652 239 q 599 584 652 511 q 450 656 547 656 z "},"с":{"ha":667,"x_min":77,"x_max":621,"o":"m 416 -14 q 166 85 256 -14 q 77 368 77 184 q 167 657 77 555 q 425 758 258 758 q 533 747 479 758 q 621 718 586 736 l 583 616 q 422 652 489 652 q 256 581 310 652 q 203 370 203 510 q 256 163 203 235 q 415 92 310 92 q 608 135 513 92 l 608 26 q 416 -14 531 -14 z "},"т":{"ha":661,"x_min":28,"x_max":632,"o":"m 632 642 l 389 642 l 389 0 l 268 0 l 268 642 l 28 642 l 28 745 l 632 745 l 632 642 z "},"у":{"ha":708,"x_min":1,"x_max":708,"o":"m 1 745 l 132 745 l 293 321 q 355 118 344 182 l 361 118 q 389 212 367 143 q 425 322 410 281 l 576 745 l 708 745 l 387 -103 q 276 -280 340 -227 q 117 -334 212 -334 q 16 -322 66 -334 l 16 -225 q 97 -233 50 -233 q 196 -201 155 -233 q 262 -102 237 -169 l 301 -3 l 1 745 z "},"ф":{"ha":1007,"x_min":75,"x_max":930,"o":"m 930 372 q 833 104 930 206 q 562 -11 736 3 l 562 -334 l 443 -334 l 443 -11 q 174 105 272 3 q 75 372 75 207 q 173 642 75 542 q 447 755 271 742 l 447 1055 l 562 1055 l 562 755 q 832 637 734 739 q 930 372 930 535 m 203 372 q 447 89 203 114 l 447 654 q 261 570 319 642 q 203 372 203 498 m 804 372 q 562 653 804 627 l 562 89 q 804 372 804 115 z "},"х":{"ha":734,"x_min":25,"x_max":710,"o":"m 294 380 l 37 745 l 176 745 l 368 464 l 558 745 l 696 745 l 439 380 l 710 0 l 571 0 l 368 297 l 163 0 l 25 0 l 294 380 z "},"ц":{"ha":878,"x_min":118,"x_max":852,"o":"m 852 -258 l 733 -258 l 733 0 l 118 0 l 118 745 l 240 745 l 240 103 l 625 103 l 625 745 l 747 745 l 747 102 l 852 102 l 852 -258 z "},"ч":{"ha":851,"x_min":103,"x_max":733,"o":"m 225 745 l 225 473 q 368 346 225 346 q 487 365 431 346 q 611 425 543 383 l 611 745 l 733 745 l 733 0 l 611 0 l 611 332 q 476 264 536 283 q 343 245 416 245 q 168 304 232 245 q 103 465 103 362 l 103 745 l 225 745 z "},"ш":{"ha":1247,"x_min":118,"x_max":1128,"o":"m 684 103 l 1006 103 l 1006 745 l 1128 745 l 1128 0 l 118 0 l 118 745 l 240 745 l 240 103 l 561 103 l 561 745 l 684 745 l 684 103 z "},"щ":{"ha":1258,"x_min":118,"x_max":1235,"o":"m 684 103 l 1006 103 l 1006 745 l 1126 745 l 1126 102 l 1235 102 l 1235 -257 l 1112 -257 l 1112 0 l 118 0 l 118 745 l 240 745 l 240 103 l 561 103 l 561 745 l 684 745 l 684 103 z "},"ъ":{"ha":966,"x_min":25,"x_max":892,"o":"m 385 439 l 590 439 q 892 228 892 439 q 589 0 892 0 l 262 0 l 262 642 l 25 642 l 25 745 l 385 745 l 385 439 m 771 221 q 730 309 771 282 q 586 336 689 336 l 385 336 l 385 98 l 590 98 q 771 221 771 98 z "},"ы":{"ha":1080,"x_min":118,"x_max":962,"o":"m 240 439 l 433 439 q 648 386 578 439 q 717 228 717 333 q 644 57 717 115 q 428 0 570 0 l 118 0 l 118 745 l 240 745 l 240 439 m 596 221 q 556 310 596 281 q 418 338 515 338 l 240 338 l 240 98 l 416 98 q 596 221 596 98 m 962 0 l 840 0 l 840 745 l 962 745 l 962 0 z "},"ь":{"ha":825,"x_min":118,"x_max":751,"o":"m 240 439 l 461 439 q 751 228 751 439 q 676 58 751 117 q 456 0 601 0 l 118 0 l 118 745 l 240 745 l 240 439 m 629 221 q 587 309 629 281 q 447 338 545 338 l 240 338 l 240 98 l 450 98 q 583 130 536 98 q 629 221 629 161 z "},"э":{"ha":686,"x_min":40,"x_max":610,"o":"m 237 -14 q 40 26 123 -14 l 40 132 q 240 90 144 90 q 484 334 468 90 l 117 334 l 117 433 l 482 433 q 418 600 473 547 q 257 653 363 653 q 83 616 186 653 l 49 715 q 148 747 92 735 q 256 758 204 758 q 520 660 430 758 q 610 372 610 561 q 512 87 610 189 q 237 -14 415 -14 z "},"ю":{"ha":1161,"x_min":118,"x_max":1084,"o":"m 1084 374 q 997 89 1084 191 q 755 -14 909 -14 q 525 77 610 -14 q 429 332 439 168 l 240 332 l 240 0 l 118 0 l 118 745 l 240 745 l 240 435 l 431 435 q 531 674 446 590 q 758 758 616 758 q 997 654 909 758 q 1084 374 1084 551 m 554 374 q 602 160 554 233 q 757 87 650 87 q 911 160 863 87 q 958 374 958 233 q 910 584 958 513 q 757 656 862 656 q 602 584 650 656 q 554 374 554 513 z "},"я":{"ha":777,"x_min":22,"x_max":659,"o":"m 164 0 l 22 0 l 235 313 q 105 389 149 334 q 61 525 61 444 q 131 686 61 628 q 325 745 201 745 l 659 745 l 659 0 l 536 0 l 536 296 l 355 296 l 164 0 m 179 524 q 361 397 179 397 l 536 397 l 536 643 l 338 643 q 219 612 260 643 q 179 524 179 582 z "},"ё":{"ha":783,"x_min":77,"x_max":713,"o":"m 435 -14 q 172 88 267 -14 q 77 367 77 189 q 165 652 77 546 q 406 758 254 758 q 629 668 546 758 q 713 422 713 577 l 713 349 l 203 349 q 267 156 206 222 q 440 90 328 90 q 553 101 500 90 q 679 142 607 111 l 679 35 q 563 -3 617 8 q 435 -14 509 -14 m 404 659 q 266 602 317 659 q 205 446 215 546 l 585 446 q 536 604 583 550 q 404 659 490 659 m 211 946 q 230 998 211 982 q 276 1014 249 1014 q 322 998 302 1014 q 342 946 342 982 q 322 893 342 910 q 276 876 302 876 q 230 893 249 876 q 211 946 211 910 m 472 946 q 491 998 472 982 q 536 1014 510 1014 q 582 998 562 1014 q 602 946 602 982 q 582 893 602 910 q 536 876 562 876 q 491 893 510 876 q 472 946 472 910 z "},"ђ":{"ha":859,"x_min":12,"x_max":747,"o":"m 554 -334 q 461 -317 500 -334 l 461 -216 q 538 -231 498 -231 q 625 -115 625 -231 l 625 450 q 585 584 625 541 q 460 628 545 628 q 293 565 345 628 q 241 358 241 501 l 241 0 l 118 0 l 118 840 l 12 840 l 12 930 l 118 930 l 118 1055 l 240 1055 l 240 930 l 507 930 l 507 840 l 240 840 l 240 718 q 235 615 240 677 l 241 615 q 336 699 275 668 q 475 730 397 730 q 679 666 610 730 q 747 458 747 601 l 747 -110 q 699 -276 747 -218 q 554 -334 650 -334 z "},"ѓ":{"ha":602,"x_min":118,"x_max":572,"o":"m 572 642 l 240 642 l 240 0 l 118 0 l 118 745 l 572 745 l 572 642 m 256 859 q 322 951 282 891 q 389 1064 361 1011 l 536 1064 l 536 1050 q 443 941 506 1006 q 337 842 380 875 l 256 842 l 256 859 z "},"є":{"ha":688,"x_min":77,"x_max":640,"o":"m 431 -14 q 169 84 261 -14 q 77 368 77 182 q 170 658 77 557 q 435 758 263 758 q 546 747 492 758 q 640 718 600 736 l 604 618 q 432 653 511 653 q 270 599 325 653 q 203 433 214 545 l 568 433 l 568 334 l 201 334 q 263 150 208 209 q 428 90 319 90 q 539 103 491 90 q 629 132 587 115 l 629 26 q 431 -14 548 -14 z "},"ѕ":{"ha":665,"x_min":71,"x_max":603,"o":"m 603 205 q 525 44 603 101 q 306 -14 447 -14 q 72 33 159 -14 l 72 144 q 309 85 195 85 q 443 115 401 85 q 485 195 485 144 q 445 269 485 239 q 301 339 404 300 q 153 409 196 380 q 91 473 111 437 q 71 561 71 509 q 145 705 71 652 q 350 758 220 758 q 587 708 477 758 l 546 611 q 342 659 433 659 q 227 634 266 659 q 187 568 187 610 q 221 501 187 528 q 379 427 255 474 q 516 362 472 392 q 582 295 561 332 q 603 205 603 258 z "},"і":{"ha":358,"x_min":109,"x_max":252,"o":"m 240 0 l 118 0 l 118 745 l 240 745 l 240 0 m 109 946 q 129 1005 109 987 q 180 1023 150 1023 q 230 1005 209 1023 q 252 946 252 987 q 230 887 252 906 q 180 868 209 868 q 129 887 150 868 q 109 946 109 906 z "},"ї":{"ha":358,"x_min":-14,"x_max":377,"o":"m 240 0 l 118 0 l 118 745 l 240 745 l 240 0 m -14 946 q 5 998 -14 982 q 52 1014 24 1014 q 98 998 78 1014 q 117 946 117 982 q 98 893 117 910 q 52 876 78 876 q 5 893 24 876 q -14 946 -14 910 m 248 946 q 267 998 248 982 q 311 1014 286 1014 q 357 998 338 1014 q 377 946 377 982 q 357 893 377 910 q 311 876 338 876 q 267 893 286 876 q 248 946 248 910 z "},"ј":{"ha":358,"x_min":-77,"x_max":252,"o":"m 31 -334 q -77 -317 -33 -334 l -77 -218 q 16 -232 -30 -232 q 93 -203 68 -232 q 118 -115 118 -174 l 118 745 l 240 745 l 240 -111 q 187 -278 240 -222 q 31 -334 134 -334 m 109 946 q 129 1005 109 987 q 180 1023 150 1023 q 230 1005 209 1023 q 252 946 252 987 q 230 887 252 906 q 180 868 209 868 q 129 887 150 868 q 109 946 109 906 z "},"љ":{"ha":1169,"x_min":9,"x_max":1096,"o":"m 637 439 l 810 439 q 1096 228 1096 439 q 796 0 1096 0 l 514 0 l 514 642 l 340 642 q 290 259 322 399 q 206 55 257 119 q 75 -9 155 -9 q 9 0 30 -9 l 9 90 q 46 85 29 85 q 165 240 119 85 q 236 745 211 395 l 637 745 l 637 439 m 974 221 q 931 309 974 281 q 787 336 889 336 l 637 336 l 637 98 l 791 98 q 927 130 881 98 q 974 221 974 161 z "},"њ":{"ha":1231,"x_min":118,"x_max":1156,"o":"m 700 745 l 700 437 l 867 437 q 1086 385 1016 437 q 1156 228 1156 332 q 859 0 1156 0 l 574 0 l 574 332 l 243 332 l 243 0 l 118 0 l 118 745 l 243 745 l 243 435 l 576 435 l 576 745 l 700 745 m 697 336 l 697 98 l 852 98 q 1035 221 1035 98 q 992 309 1035 282 q 850 336 950 336 l 697 336 z "},"ћ":{"ha":859,"x_min":12,"x_max":746,"o":"m 625 0 l 625 449 q 585 584 625 539 q 458 628 545 628 q 292 565 344 628 q 240 358 240 503 l 240 0 l 118 0 l 118 839 l 12 839 l 12 930 l 118 930 l 118 1055 l 240 1055 l 240 930 l 534 930 l 534 839 l 240 839 l 240 718 q 233 615 240 659 l 241 615 q 339 702 277 673 q 475 730 401 730 q 678 665 610 730 q 746 457 746 600 l 746 0 l 625 0 z "},"ќ":{"ha":734,"x_min":118,"x_max":718,"o":"m 558 745 l 692 745 l 374 386 l 718 0 l 576 0 l 240 378 l 240 0 l 118 0 l 118 745 l 240 745 l 240 383 l 558 745 m 305 859 q 371 951 331 891 q 437 1064 410 1011 l 585 1064 l 585 1050 q 492 941 555 1006 q 386 842 429 875 l 305 842 l 305 859 z "},"ў":{"ha":708,"x_min":1,"x_max":708,"o":"m 1 745 l 132 745 l 293 321 q 355 118 344 182 l 361 118 q 389 212 367 143 q 425 322 410 281 l 576 745 l 708 745 l 387 -103 q 276 -280 340 -227 q 117 -334 212 -334 q 16 -322 66 -334 l 16 -225 q 97 -233 50 -233 q 196 -201 155 -233 q 262 -102 237 -169 l 301 -3 l 1 745 m 352 842 q 162 891 222 842 q 96 1053 103 941 l 210 1053 q 247 954 216 982 q 355 926 278 926 q 458 956 425 926 q 499 1053 492 986 l 614 1053 q 541 892 604 943 q 352 842 477 842 z "},"џ":{"ha":869,"x_min":118,"x_max":750,"o":"m 378 0 l 118 0 l 118 745 l 240 745 l 240 103 l 628 103 l 628 745 l 750 745 l 750 0 l 497 0 l 497 -257 l 378 -257 l 378 0 z "},"Ґ":{"ha":739,"x_min":135,"x_max":707,"o":"m 590 991 l 590 1196 l 707 1196 l 707 880 l 260 880 l 260 0 l 135 0 l 135 991 l 590 991 z "},"ґ":{"ha":606,"x_min":118,"x_max":575,"o":"m 575 650 l 240 650 l 240 0 l 118 0 l 118 745 l 456 745 l 456 961 l 575 961 l 575 650 z "},"Ẁ":{"ha":1292,"x_min":17,"x_max":1274,"o":"m 1010 0 l 884 0 l 690 650 q 640 846 648 795 q 593 646 629 768 l 406 0 l 279 0 l 17 991 l 147 991 l 301 386 q 349 150 332 267 q 401 393 363 261 l 576 991 l 705 991 l 888 389 q 942 150 923 271 q 990 387 953 243 l 1143 991 l 1274 991 l 1010 0 m 728 1071 l 646 1071 q 534 1176 595 1112 q 448 1279 473 1241 l 448 1293 l 594 1293 q 656 1186 616 1249 q 728 1088 696 1124 l 728 1071 z "},"ẁ":{"ha":1092,"x_min":16,"x_max":1076,"o":"m 726 0 l 599 419 q 547 616 581 471 l 542 616 q 492 418 513 484 l 358 0 l 220 0 l 16 745 l 142 745 q 249 327 212 470 q 293 125 286 184 l 298 125 l 308 167 q 349 325 329 264 l 481 745 l 614 745 l 742 325 q 756 274 749 301 q 771 221 764 248 q 783 171 778 195 q 791 126 789 146 l 798 126 q 847 347 804 178 l 951 745 l 1076 745 l 869 0 l 726 0 m 621 842 l 539 842 q 428 947 488 882 q 342 1050 367 1012 l 342 1064 l 488 1064 q 549 957 509 1019 q 621 859 589 895 l 621 842 z "},"Ẃ":{"ha":1292,"x_min":17,"x_max":1274,"o":"m 1010 0 l 884 0 l 690 650 q 640 846 648 795 q 593 646 629 768 l 406 0 l 279 0 l 17 991 l 147 991 l 301 386 q 349 150 332 267 q 401 393 363 261 l 576 991 l 705 991 l 888 389 q 942 150 923 271 q 990 387 953 243 l 1143 991 l 1274 991 l 1010 0 m 555 1088 q 621 1180 581 1120 q 688 1293 661 1240 l 835 1293 l 835 1279 q 742 1170 805 1236 q 636 1071 679 1104 l 555 1071 l 555 1088 z "},"ẃ":{"ha":1092,"x_min":16,"x_max":1076,"o":"m 726 0 l 599 419 q 547 616 581 471 l 542 616 q 492 418 513 484 l 358 0 l 220 0 l 16 745 l 142 745 q 249 327 212 470 q 293 125 286 184 l 298 125 l 308 167 q 349 325 329 264 l 481 745 l 614 745 l 742 325 q 756 274 749 301 q 771 221 764 248 q 783 171 778 195 q 791 126 789 146 l 798 126 q 847 347 804 178 l 951 745 l 1076 745 l 869 0 l 726 0 m 458 859 q 524 951 484 891 q 591 1064 564 1011 l 738 1064 l 738 1050 q 645 941 708 1006 q 539 842 582 875 l 458 842 l 458 859 z "},"Ẅ":{"ha":1292,"x_min":17,"x_max":1274,"o":"m 1010 0 l 884 0 l 690 650 q 640 846 648 795 q 593 646 629 768 l 406 0 l 279 0 l 17 991 l 147 991 l 301 386 q 349 150 332 267 q 401 393 363 261 l 576 991 l 705 991 l 888 389 q 942 150 923 271 q 990 387 953 243 l 1143 991 l 1274 991 l 1010 0 m 448 1175 q 467 1227 448 1211 q 513 1243 486 1243 q 559 1227 540 1243 q 579 1175 579 1211 q 559 1122 579 1139 q 513 1105 540 1105 q 467 1122 486 1105 q 448 1175 448 1139 m 709 1175 q 728 1227 709 1211 q 773 1243 747 1243 q 819 1227 800 1243 q 839 1175 839 1211 q 819 1122 839 1139 q 773 1105 800 1105 q 728 1122 747 1105 q 709 1175 709 1139 z "},"ẅ":{"ha":1092,"x_min":16,"x_max":1076,"o":"m 726 0 l 599 419 q 547 616 581 471 l 542 616 q 492 418 513 484 l 358 0 l 220 0 l 16 745 l 142 745 q 249 327 212 470 q 293 125 286 184 l 298 125 l 308 167 q 349 325 329 264 l 481 745 l 614 745 l 742 325 q 756 274 749 301 q 771 221 764 248 q 783 171 778 195 q 791 126 789 146 l 798 126 q 847 347 804 178 l 951 745 l 1076 745 l 869 0 l 726 0 m 350 946 q 369 998 350 982 q 415 1014 388 1014 q 461 998 441 1014 q 481 946 481 982 q 461 893 481 910 q 415 876 441 876 q 369 893 388 876 q 350 946 350 910 m 611 946 q 630 998 611 982 q 675 1014 649 1014 q 721 998 701 1014 q 741 946 741 982 q 721 893 741 910 q 675 876 701 876 q 630 893 649 876 q 611 946 611 910 z "},"Ỳ":{"ha":786,"x_min":0,"x_max":786,"o":"m 393 504 l 652 991 l 786 991 l 456 385 l 456 0 l 330 0 l 330 379 l 0 991 l 136 991 l 393 504 m 467 1071 l 385 1071 q 274 1176 334 1112 q 188 1279 213 1241 l 188 1293 l 334 1293 q 395 1186 355 1249 q 467 1088 435 1124 l 467 1071 z "},"ỳ":{"ha":708,"x_min":1,"x_max":708,"o":"m 1 745 l 132 745 l 293 321 q 355 118 344 182 l 361 118 q 389 212 367 143 q 425 322 410 281 l 576 745 l 708 745 l 387 -103 q 276 -280 340 -227 q 117 -334 212 -334 q 16 -322 66 -334 l 16 -225 q 97 -233 50 -233 q 196 -201 155 -233 q 262 -102 237 -169 l 301 -3 l 1 745 m 434 842 l 352 842 q 240 947 301 882 q 155 1050 180 1012 l 155 1064 l 300 1064 q 362 957 322 1019 q 434 859 402 895 l 434 842 z "},"―":{"ha":1389,"x_min":56,"x_max":1333,"o":"m 56 318 l 56 427 l 1333 427 l 1333 318 l 56 318 z "},"‗":{"ha":571,"x_min":-3,"x_max":574,"o":"m 574 -309 l -3 -309 l -3 -220 l 574 -220 l 574 -309 m 574 -125 l -3 -125 l -3 -36 l 574 -36 l 574 -125 z "},"‚":{"ha":347,"x_min":43,"x_max":253,"o":"m 243 161 l 253 146 q 134 -179 220 20 l 43 -179 q 113 161 88 -3 l 243 161 z "},"‛":{"ha":243,"x_min":17,"x_max":228,"o":"m 158 991 q 228 652 183 821 l 138 652 q 70 812 107 715 q 17 977 33 908 l 26 991 l 158 991 z "},"„":{"ha":578,"x_min":18,"x_max":485,"o":"m 218 161 l 228 146 q 109 -179 195 20 l 18 -179 q 87 161 62 -9 l 218 161 m 475 161 l 485 146 q 366 -179 452 20 l 273 -179 q 313 -9 292 -109 q 345 161 334 91 l 475 161 z "},"†":{"ha":711,"x_min":90,"x_max":623,"o":"m 623 672 l 385 693 l 419 0 l 281 0 l 314 693 l 90 672 l 90 793 l 314 772 l 281 1055 l 419 1055 l 385 772 l 623 793 l 623 672 z "},"‡":{"ha":711,"x_min":83,"x_max":628,"o":"m 390 335 l 628 355 l 628 237 l 390 257 l 424 0 l 283 0 l 317 257 l 83 237 l 83 355 l 317 335 l 288 533 l 317 721 l 83 700 l 83 818 l 317 798 l 283 1055 l 424 1055 l 390 798 l 628 818 l 628 700 l 390 721 l 419 533 l 390 335 z "},"•":{"ha":522,"x_min":107,"x_max":415,"o":"m 107 507 q 146 634 107 590 q 261 679 186 679 q 375 634 336 679 q 415 507 415 590 q 375 380 415 425 q 261 335 334 335 q 147 380 186 335 q 107 507 107 425 z "},"‰":{"ha":1634,"x_min":68,"x_max":1567,"o":"m 170 696 q 194 527 170 584 q 271 471 218 471 q 378 696 378 471 q 271 920 378 920 q 194 864 218 920 q 170 696 170 808 m 479 696 q 426 462 479 541 q 271 383 373 383 q 121 464 174 383 q 68 696 68 545 q 120 928 68 851 q 271 1006 172 1006 q 425 925 370 1006 q 479 696 479 845 m 777 298 q 801 130 777 185 q 878 74 825 74 q 959 129 932 74 q 985 298 985 184 q 878 521 985 521 q 801 466 825 521 q 777 298 777 410 m 1086 298 q 1033 65 1086 144 q 878 -14 979 -14 q 728 67 781 -14 q 675 298 675 149 q 726 531 675 454 q 878 608 778 608 q 1032 528 977 608 q 1086 298 1086 448 m 905 991 l 355 0 l 249 0 l 799 991 l 905 991 m 1257 298 q 1281 130 1257 185 q 1358 74 1305 74 q 1466 298 1466 74 q 1358 521 1466 521 q 1281 466 1305 521 q 1257 298 1257 410 m 1567 298 q 1514 66 1567 145 q 1358 -14 1461 -14 q 1208 68 1261 -14 q 1156 298 1156 149 q 1207 531 1156 454 q 1358 608 1259 608 q 1512 528 1457 608 q 1567 298 1567 448 z "},"′":{"ha":313,"x_min":90,"x_max":222,"o":"m 222 991 l 195 633 l 118 633 l 90 991 l 222 991 z "},"″":{"ha":567,"x_min":90,"x_max":476,"o":"m 222 991 l 195 633 l 118 633 l 90 991 l 222 991 m 476 991 l 449 633 l 372 633 l 345 991 l 476 991 z "},"‹":{"ha":431,"x_min":56,"x_max":376,"o":"m 56 375 l 289 654 l 376 604 l 182 367 l 376 129 l 289 78 l 56 357 l 56 375 z "},"›":{"ha":431,"x_min":54,"x_max":375,"o":"m 375 357 l 140 78 l 54 129 l 249 367 l 54 604 l 140 654 l 375 375 l 375 357 z "},"‼":{"ha":693,"x_min":100,"x_max":591,"o":"m 546 279 l 467 279 l 432 991 l 581 991 l 546 279 m 419 75 q 441 144 419 120 q 505 168 463 168 q 569 143 547 168 q 591 75 591 119 q 569 6 591 32 q 505 -20 546 -20 q 441 5 464 -20 q 419 75 419 31 m 227 279 l 147 279 l 113 991 l 261 991 l 227 279 m 100 75 q 122 144 100 120 q 186 168 144 168 q 250 143 228 168 q 272 75 272 119 q 249 6 272 32 q 186 -20 227 -20 q 122 5 144 -20 q 100 75 100 31 z "},"⁄":{"ha":180,"x_min":-265,"x_max":444,"o":"m 444 991 l -161 0 l -265 0 l 340 991 l 444 991 z "},"ⁿ":{"ha":551,"x_min":74,"x_max":484,"o":"m 399 541 l 399 823 q 373 904 399 881 q 294 928 347 928 q 189 893 219 928 q 158 775 158 859 l 158 541 l 74 541 l 74 994 l 143 994 l 153 935 l 161 935 q 309 1003 211 1003 q 484 833 484 1003 l 484 541 l 399 541 z "},"₣":{"ha":794,"x_min":62,"x_max":718,"o":"m 301 271 l 511 271 l 511 180 l 301 180 l 301 0 l 180 0 l 180 180 l 62 180 l 62 271 l 180 271 l 180 991 l 718 991 l 718 882 l 301 882 l 301 533 l 692 533 l 692 424 l 301 424 l 301 271 z "},"₤":{"ha":794,"x_min":46,"x_max":745,"o":"m 467 1004 q 713 950 601 1004 l 669 854 q 468 901 568 901 q 307 729 307 901 l 307 607 l 587 607 l 587 517 l 307 517 l 307 408 l 587 408 l 587 317 l 306 317 q 284 191 306 240 q 211 111 263 142 l 745 111 l 745 0 l 46 0 l 46 103 q 184 317 184 132 l 50 317 l 50 408 l 184 408 l 184 517 l 50 517 l 50 607 l 184 607 l 184 699 q 467 1004 184 1004 z "},"₧":{"ha":1078,"x_min":106,"x_max":1029,"o":"m 937 85 q 990 90 962 85 q 1029 98 1017 94 l 1029 8 q 908 -14 984 -14 q 786 35 828 -14 q 743 176 743 83 l 743 481 l 636 481 l 636 536 l 745 586 l 787 718 l 859 718 l 859 574 l 1011 574 l 1011 481 l 859 481 l 859 192 q 877 113 859 140 q 937 85 895 85 m 640 700 q 546 466 640 545 q 269 386 451 386 l 227 386 l 227 0 l 106 0 l 106 991 l 292 991 q 640 700 640 991 m 227 493 l 262 493 q 455 541 394 493 q 517 694 517 589 q 460 838 517 791 q 283 885 404 885 l 227 885 l 227 493 z "},"€":{"ha":794,"x_min":32,"x_max":777,"o":"m 528 897 q 265 632 316 897 l 604 632 l 604 542 l 256 542 l 254 504 l 254 462 l 256 432 l 562 432 l 562 342 l 267 342 q 358 159 290 224 q 539 94 425 94 q 746 139 642 94 l 746 31 q 532 -14 647 -14 q 273 77 372 -14 q 143 342 174 168 l 32 342 l 32 432 l 132 432 l 131 460 l 131 489 l 132 542 l 32 542 l 32 632 l 142 632 q 269 908 169 811 q 528 1004 370 1004 q 777 940 667 1004 l 725 840 q 528 897 615 897 z "},"℅":{"ha":1140,"x_min":90,"x_max":1050,"o":"m 889 991 l 339 0 l 232 0 l 782 991 l 889 991 m 1050 227 q 993 56 1050 119 q 833 -7 936 -7 q 680 57 737 -7 q 623 227 623 120 q 680 398 623 337 q 838 460 737 460 q 991 397 932 460 q 1050 227 1050 334 m 718 227 q 748 108 718 149 q 836 68 778 68 q 923 108 892 68 q 953 227 953 149 q 836 385 953 385 q 718 227 718 385 m 328 532 q 153 592 216 532 q 90 762 90 652 q 153 938 90 876 q 334 999 216 999 q 465 974 404 999 l 441 901 q 332 922 385 922 q 186 764 186 922 q 329 607 186 607 q 458 631 399 607 l 458 558 q 402 540 437 548 q 328 532 366 532 z "},"ℓ":{"ha":722,"x_min":75,"x_max":631,"o":"m 432 81 q 559 224 547 81 l 631 224 q 573 48 625 109 q 419 -14 521 -14 q 260 48 315 -14 q 205 228 205 111 l 205 385 q 75 346 151 364 l 75 428 q 205 468 128 442 l 205 800 q 257 952 205 898 q 406 1006 309 1006 q 534 951 487 1006 q 582 802 582 896 q 512 574 582 675 q 319 419 442 472 l 319 232 q 347 121 319 162 q 432 81 374 81 m 489 798 q 406 925 489 925 q 340 896 361 925 q 319 798 319 867 l 319 509 q 489 798 489 597 z "},"№":{"ha":1417,"x_min":132,"x_max":1350,"o":"m 829 0 l 693 0 l 236 819 l 231 819 q 241 550 241 624 l 241 0 l 132 0 l 132 991 l 272 991 l 724 175 l 729 175 q 720 436 720 341 l 720 991 l 829 991 l 829 0 m 1350 422 q 1295 249 1350 311 q 1139 186 1240 186 q 988 250 1044 186 q 933 422 933 313 q 988 595 933 534 q 1143 657 1043 657 q 1294 594 1237 657 q 1350 422 1350 532 m 1026 422 q 1053 306 1026 346 q 1141 267 1080 267 q 1229 306 1202 267 q 1255 422 1255 346 q 1229 537 1255 500 q 1141 574 1202 574 q 1054 537 1081 574 q 1026 422 1026 500 m 961 0 l 961 96 l 1318 96 l 1318 0 l 961 0 z "},"™":{"ha":1074,"x_min":24,"x_max":960,"o":"m 252 503 l 164 503 l 164 917 l 24 917 l 24 991 l 393 991 l 393 917 l 252 917 l 252 503 m 656 503 l 522 879 l 517 879 l 521 793 l 521 503 l 437 503 l 437 991 l 568 991 l 699 615 l 833 991 l 960 991 l 960 503 l 871 503 l 871 786 l 875 879 l 869 879 l 729 503 l 656 503 z "},"Ω":{"ha":1086,"x_min":53,"x_max":1035,"o":"m 543 897 q 303 811 385 897 q 221 557 221 724 q 277 296 221 405 q 453 100 333 186 l 453 0 l 53 0 l 53 110 l 300 110 q 143 305 197 189 q 89 561 89 422 q 210 888 89 770 q 543 1007 330 1007 q 879 889 759 1007 q 999 562 999 771 q 944 305 999 422 q 789 110 890 188 l 1035 110 l 1035 0 l 635 0 l 635 100 q 811 297 755 186 q 868 557 868 408 q 786 810 868 724 q 543 897 703 897 z "},"℮":{"ha":860,"x_min":69,"x_max":789,"o":"m 429 -24 q 241 26 323 -24 q 114 164 159 76 q 69 359 69 253 q 116 562 69 475 q 245 696 163 648 q 429 743 328 743 q 615 695 532 743 q 743 559 697 647 q 789 359 789 471 l 228 359 l 228 118 q 317 58 261 82 q 429 35 374 35 q 580 70 518 35 q 697 193 642 106 l 746 165 q 606 18 680 60 q 429 -24 532 -24 m 632 418 l 632 606 q 543 664 598 642 q 428 686 488 686 q 228 607 311 686 l 228 418 l 632 418 z "},"⅛":{"ha":1097,"x_min":47,"x_max":1044,"o":"m 859 991 l 254 0 l 150 0 l 755 991 l 859 991 m 227 991 l 329 991 l 329 397 l 230 397 l 230 781 q 235 904 230 826 q 199 872 214 885 q 95 796 183 859 l 47 864 l 227 991 m 837 604 q 974 564 922 604 q 1025 453 1025 524 q 924 313 1025 365 q 1044 157 1044 263 q 987 34 1044 81 q 837 -14 930 -14 q 682 31 736 -14 q 627 153 627 75 q 652 239 627 200 q 734 309 677 278 q 666 370 686 338 q 646 449 646 401 q 700 561 646 519 q 837 604 753 604 m 722 153 q 749 89 722 113 q 834 64 777 64 q 921 89 893 64 q 948 153 948 113 q 917 220 948 194 q 833 264 886 247 l 815 271 q 745 221 769 250 q 722 153 722 193 m 836 527 q 766 507 791 527 q 741 450 741 487 q 838 351 741 389 q 905 389 879 366 q 930 450 930 412 q 905 507 930 487 q 836 527 880 527 z "},"⅜":{"ha":1097,"x_min":24,"x_max":1060,"o":"m 907 991 l 301 0 l 197 0 l 803 991 l 907 991 m 852 604 q 989 564 938 604 q 1040 453 1040 524 q 940 313 1040 365 q 1060 157 1060 263 q 1003 34 1060 81 q 852 -14 945 -14 q 697 31 751 -14 q 643 153 643 75 q 668 239 643 200 q 750 309 693 278 q 682 370 702 338 q 661 449 661 401 q 715 561 661 519 q 852 604 769 604 m 737 153 q 765 89 737 113 q 850 64 792 64 q 936 89 909 64 q 964 153 964 113 q 933 220 964 194 q 848 264 902 247 l 831 271 q 761 221 785 250 q 737 153 737 193 m 851 527 q 782 507 806 527 q 757 450 757 487 q 854 351 757 389 q 920 389 895 366 q 946 450 946 412 q 921 507 946 487 q 851 527 895 527 m 428 851 q 325 710 428 749 q 446 568 446 680 q 383 434 446 482 q 205 386 321 386 q 24 425 102 386 l 24 513 q 207 465 120 465 q 346 571 346 465 q 193 667 346 667 l 114 667 l 114 743 l 193 743 q 295 770 263 743 q 328 840 328 796 q 301 903 328 880 q 231 925 275 925 q 77 872 160 925 l 26 936 q 125 989 77 973 q 229 1004 174 1004 q 375 963 321 1004 q 428 851 428 922 z "},"⅝":{"ha":1097,"x_min":48,"x_max":1057,"o":"m 903 991 l 297 0 l 193 0 l 799 991 l 903 991 m 233 772 q 391 722 332 772 q 451 589 451 672 q 393 438 451 492 q 220 385 335 385 q 123 395 170 385 q 48 421 76 406 l 48 514 q 134 478 86 491 q 218 465 181 465 q 317 493 280 465 q 354 581 354 520 q 317 663 354 634 q 214 692 281 692 q 152 686 177 692 q 105 675 126 680 q 62 703 85 691 l 85 991 l 422 991 l 422 916 l 165 916 l 153 764 q 233 772 197 772 m 850 604 q 986 564 935 604 q 1038 453 1038 524 q 937 313 1038 365 q 1057 157 1057 263 q 1000 34 1057 81 q 850 -14 943 -14 q 694 31 749 -14 q 640 153 640 75 q 665 239 640 200 q 747 309 690 278 q 679 370 699 338 q 659 449 659 401 q 712 561 659 519 q 850 604 766 604 m 734 153 q 762 89 734 113 q 847 64 789 64 q 933 89 906 64 q 961 153 961 113 q 930 220 961 194 q 846 264 899 247 l 828 271 q 758 221 782 250 q 734 153 734 193 m 848 527 q 779 507 804 527 q 754 450 754 487 q 851 351 754 389 q 918 389 892 366 q 943 450 943 412 q 918 507 943 487 q 848 527 892 527 z "},"⅞":{"ha":1097,"x_min":69,"x_max":1052,"o":"m 844 991 l 239 0 l 135 0 l 741 991 l 844 991 m 844 604 q 981 564 930 604 q 1032 453 1032 524 q 932 313 1032 365 q 1052 157 1052 263 q 995 34 1052 81 q 844 -14 937 -14 q 689 31 743 -14 q 635 153 635 75 q 660 239 635 200 q 742 309 685 278 q 673 370 694 338 q 653 449 653 401 q 707 561 653 519 q 844 604 761 604 m 729 153 q 756 89 729 113 q 842 64 784 64 q 928 89 901 64 q 956 153 956 113 q 925 220 956 194 q 840 264 894 247 l 823 271 q 753 221 777 250 q 729 153 729 193 m 843 527 q 773 507 798 527 q 749 450 749 487 q 846 351 749 389 q 912 389 886 366 q 938 450 938 412 q 912 507 938 487 q 843 527 887 527 m 140 397 l 376 908 l 69 908 l 69 991 l 479 991 l 479 924 l 243 397 l 140 397 z "},"∂":{"ha":807,"x_min":66,"x_max":733,"o":"m 733 632 q 676 299 733 454 q 526 65 620 144 q 313 -14 433 -14 q 130 55 193 -14 q 66 254 66 124 q 113 474 66 370 q 239 632 159 578 q 421 686 318 686 q 529 659 481 686 q 608 585 577 631 l 611 636 q 425 900 608 900 q 338 886 386 900 q 250 844 290 871 l 250 961 q 344 992 292 981 q 441 1003 396 1003 q 659 910 584 1003 q 733 632 733 817 m 319 89 q 490 195 416 89 q 587 460 564 302 q 531 555 574 518 q 435 591 489 591 q 313 547 368 591 q 226 420 259 503 q 193 253 193 336 q 226 132 193 174 q 319 89 259 89 z "},"∆":{"ha":807,"x_min":28,"x_max":779,"o":"m 28 77 l 340 991 l 465 991 l 779 75 l 779 0 l 28 0 l 28 77 m 401 856 q 338 632 367 720 l 161 110 l 642 110 l 468 627 q 401 856 422 763 z "},"∏":{"ha":1026,"x_min":134,"x_max":893,"o":"m 768 -334 l 768 880 l 258 880 l 258 -334 l 134 -334 l 134 991 l 893 991 l 893 -334 l 768 -334 z "},"∑":{"ha":876,"x_min":49,"x_max":847,"o":"m 49 -334 l 49 -257 l 473 364 l 60 914 l 60 991 l 803 991 l 803 882 l 235 882 l 621 367 l 218 -224 l 847 -224 l 847 -334 l 49 -334 z "},"√":{"ha":762,"x_min":25,"x_max":827,"o":"m 425 -9 l 335 -9 l 147 518 l 25 518 l 25 615 l 224 615 l 380 158 l 728 1149 l 827 1149 l 425 -9 z "},"∞":{"ha":979,"x_min":81,"x_max":899,"o":"m 899 488 q 842 334 899 397 q 697 272 785 272 q 488 419 572 272 q 285 275 403 275 q 137 335 193 275 q 81 490 81 395 q 138 644 81 583 q 285 704 195 704 q 489 558 407 704 q 697 701 573 701 q 843 642 787 701 q 899 488 899 583 m 290 366 q 370 395 333 366 q 441 490 406 425 q 372 585 408 554 q 289 615 336 615 q 204 579 237 615 q 172 489 172 544 q 204 400 172 434 q 290 366 236 366 m 689 612 q 610 582 646 612 q 538 488 574 552 q 608 393 571 424 q 690 363 644 363 q 774 398 742 363 q 807 488 807 433 q 775 576 807 541 q 689 612 743 612 z "},"∫":{"ha":538,"x_min":7,"x_max":521,"o":"m 433 1055 q 521 1043 490 1055 l 521 942 q 443 958 481 958 q 328 800 328 958 l 328 -86 q 271 -271 328 -208 q 102 -334 214 -334 q 7 -319 48 -334 l 7 -220 q 90 -236 48 -236 q 210 -78 210 -236 l 210 808 q 433 1055 210 1055 z "},"≈":{"ha":794,"x_min":65,"x_max":726,"o":"m 227 345 q 147 323 190 345 q 65 262 104 301 l 65 370 q 239 444 138 444 q 325 434 285 444 q 421 400 365 424 q 503 370 471 379 q 567 361 535 361 q 645 383 603 361 q 726 444 688 406 l 726 336 q 553 262 655 262 q 470 272 507 262 q 372 307 432 282 q 290 336 321 328 q 227 345 259 345 m 227 619 q 146 597 190 619 q 65 538 102 575 l 65 644 q 239 718 137 718 q 318 710 281 718 q 421 673 355 701 q 498 646 465 655 q 567 636 531 636 q 650 660 608 636 q 726 718 692 684 l 726 611 q 553 536 656 536 q 466 547 506 536 q 372 581 426 558 q 282 612 312 606 q 227 619 253 619 z "},"≠":{"ha":794,"x_min":69,"x_max":722,"o":"m 183 150 l 254 301 l 69 301 l 69 400 l 300 400 l 382 578 l 69 578 l 69 676 l 428 676 l 519 871 l 610 829 l 536 676 l 722 676 l 722 578 l 492 578 l 407 400 l 722 400 l 722 301 l 361 301 l 272 110 l 183 150 z "},"≤":{"ha":794,"x_min":69,"x_max":724,"o":"m 724 165 l 69 453 l 69 522 l 724 848 l 724 741 l 200 493 l 724 273 l 724 165 m 69 0 l 69 98 l 724 98 l 724 0 l 69 0 z "},"≥":{"ha":794,"x_min":69,"x_max":724,"o":"m 69 273 l 593 492 l 69 741 l 69 848 l 724 522 l 724 453 l 69 165 l 69 273 m 69 0 l 69 98 l 724 98 l 724 0 l 69 0 z "},"◊":{"ha":810,"x_min":72,"x_max":736,"o":"m 72 498 l 378 999 l 431 999 l 736 498 l 431 0 l 378 0 l 72 498 m 615 498 l 404 851 l 195 498 l 404 146 l 615 498 z "},"ﬁ":{"ha":836,"x_min":21,"x_max":730,"o":"m 461 650 l 273 650 l 273 0 l 151 0 l 151 650 l 21 650 l 21 707 l 151 749 l 151 791 q 211 995 151 927 q 393 1063 270 1063 q 538 1038 465 1063 l 505 942 q 395 962 442 962 q 303 922 333 962 q 273 793 273 881 l 273 745 l 461 745 l 461 650 m 718 0 l 596 0 l 596 745 l 718 745 l 718 0 m 587 946 q 607 1005 587 987 q 659 1023 628 1023 q 708 1005 687 1023 q 730 946 730 987 q 708 887 730 906 q 659 868 687 868 q 607 887 628 868 q 587 946 587 906 z "},"ﬂ":{"ha":836,"x_min":21,"x_max":718,"o":"m 461 650 l 273 650 l 273 0 l 151 0 l 151 650 l 21 650 l 21 707 l 151 749 l 151 791 q 211 995 151 927 q 393 1063 270 1063 q 538 1038 465 1063 l 505 942 q 395 962 442 962 q 303 922 333 962 q 273 793 273 881 l 273 745 l 461 745 l 461 650 m 718 0 l 596 0 l 596 1055 l 718 1055 l 718 0 z "},"ȷ":{"ha":358,"x_min":-77,"x_max":240,"o":"m 31 -334 q -77 -317 -33 -334 l -77 -218 q 16 -232 -30 -232 q 93 -203 68 -232 q 118 -115 118 -174 l 118 745 l 240 745 l 240 -111 q 187 -278 240 -222 q 31 -334 134 -334 z "}}}
